%TF.GenerationSoftware,KiCad,Pcbnew,8.0.2*%
%TF.CreationDate,2024-06-12T11:30:57+02:00*%
%TF.ProjectId,e07-900m10s-breakout,6530372d-3930-4306-9d31-30732d627265,rev?*%
%TF.SameCoordinates,Original*%
%TF.FileFunction,Copper,L1,Top*%
%TF.FilePolarity,Positive*%
%FSLAX46Y46*%
G04 Gerber Fmt 4.6, Leading zero omitted, Abs format (unit mm)*
G04 Created by KiCad (PCBNEW 8.0.2) date 2024-06-12 11:30:57*
%MOMM*%
%LPD*%
G01*
G04 APERTURE LIST*
G04 Aperture macros list*
%AMRoundRect*
0 Rectangle with rounded corners*
0 $1 Rounding radius*
0 $2 $3 $4 $5 $6 $7 $8 $9 X,Y pos of 4 corners*
0 Add a 4 corners polygon primitive as box body*
4,1,4,$2,$3,$4,$5,$6,$7,$8,$9,$2,$3,0*
0 Add four circle primitives for the rounded corners*
1,1,$1+$1,$2,$3*
1,1,$1+$1,$4,$5*
1,1,$1+$1,$6,$7*
1,1,$1+$1,$8,$9*
0 Add four rect primitives between the rounded corners*
20,1,$1+$1,$2,$3,$4,$5,0*
20,1,$1+$1,$4,$5,$6,$7,0*
20,1,$1+$1,$6,$7,$8,$9,0*
20,1,$1+$1,$8,$9,$2,$3,0*%
G04 Aperture macros list end*
%TA.AperFunction,ComponentPad*%
%ADD10C,0.800000*%
%TD*%
%TA.AperFunction,ComponentPad*%
%ADD11C,5.000000*%
%TD*%
%TA.AperFunction,SMDPad,CuDef*%
%ADD12R,0.800000X1.800000*%
%TD*%
%TA.AperFunction,SMDPad,CuDef*%
%ADD13RoundRect,0.250000X1.100000X-0.412500X1.100000X0.412500X-1.100000X0.412500X-1.100000X-0.412500X0*%
%TD*%
%TA.AperFunction,SMDPad,CuDef*%
%ADD14RoundRect,0.101600X0.660400X0.406400X-0.660400X0.406400X-0.660400X-0.406400X0.660400X-0.406400X0*%
%TD*%
%TA.AperFunction,ComponentPad*%
%ADD15C,1.270000*%
%TD*%
%TA.AperFunction,SMDPad,CuDef*%
%ADD16R,4.318000X1.524000*%
%TD*%
%TA.AperFunction,ComponentPad*%
%ADD17R,1.700000X1.700000*%
%TD*%
%TA.AperFunction,ComponentPad*%
%ADD18O,1.700000X1.700000*%
%TD*%
%TA.AperFunction,ViaPad*%
%ADD19C,0.600000*%
%TD*%
%TA.AperFunction,Conductor*%
%ADD20C,0.600000*%
%TD*%
%TA.AperFunction,Conductor*%
%ADD21C,0.300000*%
%TD*%
%TA.AperFunction,Conductor*%
%ADD22C,0.800000*%
%TD*%
%TA.AperFunction,Conductor*%
%ADD23C,1.000000*%
%TD*%
%TA.AperFunction,Conductor*%
%ADD24C,0.200000*%
%TD*%
%TA.AperFunction,Conductor*%
%ADD25C,0.500000*%
%TD*%
G04 APERTURE END LIST*
D10*
%TO.P,H3,1*%
%TO.N,N/C*%
X153120825Y-76763825D03*
X153670000Y-75438000D03*
X153670000Y-78089650D03*
X154995825Y-74888825D03*
D11*
X154995825Y-76763825D03*
D10*
X154995825Y-78638825D03*
X156321650Y-75438000D03*
X156321650Y-78089650D03*
X156870825Y-76763825D03*
%TD*%
D12*
%TO.P,U1,1,GND*%
%TO.N,GND*%
X148954000Y-58532000D03*
%TO.P,U1,2,GND*%
X147684000Y-58532000D03*
%TO.P,U1,3,GND*%
X146414000Y-58532000D03*
%TO.P,U1,4,GND*%
X140844000Y-58532000D03*
%TO.P,U1,5,GND*%
X139574000Y-58532000D03*
%TO.P,U1,6*%
%TO.N,N/C*%
X138304000Y-58532000D03*
%TO.P,U1,7*%
X137034000Y-58532000D03*
%TO.P,U1,8*%
X135764000Y-58532000D03*
%TO.P,U1,9,VCC*%
%TO.N,3V3*%
X134494000Y-58532000D03*
%TO.P,U1,10*%
%TO.N,N/C*%
X133224000Y-58532000D03*
%TO.P,U1,11,GND*%
%TO.N,GND*%
X131954000Y-58532000D03*
%TO.P,U1,12,GND*%
X131954000Y-72532000D03*
%TO.P,U1,13*%
%TO.N,N/C*%
X133224000Y-72532000D03*
%TO.P,U1,14,GDO2*%
%TO.N,/GDO2*%
X134494000Y-72532000D03*
%TO.P,U1,15,GDO0*%
%TO.N,/GDO0*%
X135764000Y-72532000D03*
%TO.P,U1,16,GD01/MISO*%
%TO.N,/MISO*%
X137034000Y-72532000D03*
%TO.P,U1,17,MOSI*%
%TO.N,/MOSI*%
X138304000Y-72532000D03*
%TO.P,U1,18,SCK*%
%TO.N,/SCLK*%
X139574000Y-72532000D03*
%TO.P,U1,19,CSN*%
%TO.N,/CSN*%
X140844000Y-72532000D03*
%TO.P,U1,20,GND*%
%TO.N,GND*%
X146414000Y-72532000D03*
%TO.P,U1,21,ANT*%
%TO.N,/ANTENNA*%
X147684000Y-72532000D03*
%TO.P,U1,22,GND*%
%TO.N,GND*%
X148954000Y-72532000D03*
%TD*%
D13*
%TO.P,C1,1,1*%
%TO.N,GND*%
X131826000Y-53594000D03*
%TO.P,C1,2,2*%
%TO.N,3V3*%
X131826000Y-50469000D03*
%TD*%
D10*
%TO.P,H4,1*%
%TO.N,N/C*%
X153120825Y-50601825D03*
X153670000Y-49276000D03*
X153670000Y-51927650D03*
X154995825Y-48726825D03*
D11*
X154995825Y-50601825D03*
D10*
X154995825Y-52476825D03*
X156321650Y-49276000D03*
X156321650Y-51927650D03*
X156870825Y-50601825D03*
%TD*%
D14*
%TO.P,J$1,ANT1,ANT*%
%TO.N,/ANTENNA*%
X154716750Y-65024000D03*
D15*
%TO.P,J$1,ANT2,ANT*%
X153479500Y-65024000D03*
D16*
%TO.P,J$1,GND3,GND*%
%TO.N,GND*%
X156210000Y-67564000D03*
%TO.P,J$1,GND4,GND*%
X156210000Y-62484000D03*
%TD*%
D17*
%TO.P,J1,1,Pin_1*%
%TO.N,GND*%
X110744000Y-73660000D03*
D18*
%TO.P,J1,2,Pin_2*%
%TO.N,3V3*%
X110744000Y-71120000D03*
%TO.P,J1,3,Pin_3*%
%TO.N,/MOSI*%
X110744000Y-68580000D03*
%TO.P,J1,4,Pin_4*%
%TO.N,/SCLK*%
X110744000Y-66040000D03*
%TO.P,J1,5,Pin_5*%
%TO.N,/MISO*%
X110744000Y-63500000D03*
%TO.P,J1,6,Pin_6*%
%TO.N,/CSN*%
X110744000Y-60960000D03*
%TO.P,J1,7,Pin_7*%
%TO.N,/GDO0*%
X110744000Y-58420000D03*
%TO.P,J1,8,Pin_8*%
%TO.N,/GDO2*%
X110744000Y-55880000D03*
%TD*%
D13*
%TO.P,C2,1,1*%
%TO.N,GND*%
X137414000Y-53594000D03*
%TO.P,C2,2,2*%
%TO.N,3V3*%
X137414000Y-50469000D03*
%TD*%
D19*
%TO.N,GND*%
X129794000Y-78486000D03*
X150368000Y-72390000D03*
X154178000Y-70104000D03*
X156210000Y-72136000D03*
X144526000Y-64262000D03*
X144526000Y-74422000D03*
X155702000Y-68580000D03*
X152654000Y-71628000D03*
X146304000Y-62992000D03*
X151638000Y-58674000D03*
X131826000Y-74676000D03*
X154940000Y-61468000D03*
X146304000Y-65532000D03*
X144526000Y-69596000D03*
X110998000Y-77216000D03*
X150622000Y-76200000D03*
X144526000Y-66802000D03*
X147828000Y-55626000D03*
X144526000Y-61468000D03*
X153416000Y-59944000D03*
X146304000Y-68326000D03*
X139192000Y-55118000D03*
X150368000Y-58674000D03*
X146304000Y-70866000D03*
X146304000Y-60198000D03*
X155702000Y-57912000D03*
X151638000Y-56134000D03*
X144272000Y-55626000D03*
X120142000Y-78486000D03*
X145542000Y-77724000D03*
X131826000Y-55118000D03*
%TO.N,3V3*%
X113030000Y-69596000D03*
X120650000Y-52324000D03*
%TO.N,/MISO*%
X117856000Y-69596000D03*
X117856000Y-63500000D03*
%TO.N,/GDO0*%
X115824000Y-70612000D03*
X115824000Y-58674000D03*
%TO.N,/GDO2*%
X114300000Y-55880000D03*
X114300000Y-71374000D03*
%TD*%
D20*
%TO.N,GND*%
X154178000Y-60706000D02*
X154432000Y-60706000D01*
X139574000Y-58532000D02*
X139574000Y-55754000D01*
D21*
X149860000Y-73438000D02*
X148954000Y-72532000D01*
D22*
X146304000Y-70866000D02*
X146414000Y-70756000D01*
D20*
X154178000Y-60452000D02*
X154178000Y-60706000D01*
D23*
X150226000Y-72532000D02*
X150368000Y-72390000D01*
D22*
X146414000Y-72532000D02*
X146414000Y-70976000D01*
X146414000Y-70976000D02*
X146304000Y-70866000D01*
D23*
X148954000Y-72532000D02*
X150226000Y-72532000D01*
D22*
X146414000Y-62882000D02*
X146414000Y-61832000D01*
D20*
X152908000Y-59182000D02*
X153416000Y-59690000D01*
X150510000Y-58532000D02*
X151496000Y-58532000D01*
X150226000Y-58532000D02*
X150368000Y-58674000D01*
X153416000Y-59690000D02*
X153416000Y-59944000D01*
D23*
X156210000Y-68214000D02*
X155844000Y-68580000D01*
D20*
X151496000Y-58532000D02*
X151638000Y-58674000D01*
D23*
X151638000Y-72390000D02*
X151780000Y-72532000D01*
D22*
X146414000Y-70756000D02*
X146414000Y-69706000D01*
D21*
X146414000Y-72532000D02*
X146414000Y-72788000D01*
D20*
X148954000Y-57260000D02*
X148954000Y-58532000D01*
X147320000Y-55626000D02*
X147828000Y-55626000D01*
D21*
X131826000Y-58404000D02*
X131954000Y-58532000D01*
D22*
X146414000Y-64152000D02*
X146414000Y-63102000D01*
D23*
X155082000Y-69342000D02*
X154940000Y-69342000D01*
D21*
X144526000Y-74422000D02*
X149860000Y-74422000D01*
X146414000Y-72532000D02*
X146414000Y-72534000D01*
D23*
X155702000Y-68722000D02*
X155082000Y-69342000D01*
D22*
X146304000Y-65532000D02*
X146414000Y-65422000D01*
X146304000Y-68326000D02*
X146414000Y-68216000D01*
X146304000Y-62992000D02*
X146414000Y-62882000D01*
X146414000Y-64372000D02*
X146304000Y-64262000D01*
D23*
X154940000Y-69342000D02*
X154940000Y-69484000D01*
X151780000Y-72532000D02*
X151892000Y-72532000D01*
D20*
X151638000Y-58674000D02*
X151780000Y-58532000D01*
X140844000Y-57024000D02*
X140844000Y-58532000D01*
D23*
X152654000Y-71770000D02*
X151892000Y-72532000D01*
X153416000Y-70866000D02*
X153416000Y-71008000D01*
D22*
X146414000Y-66912000D02*
X146304000Y-66802000D01*
D20*
X154940000Y-61468000D02*
X155194000Y-61468000D01*
X147684000Y-55990000D02*
X147684000Y-58532000D01*
D22*
X146414000Y-66692000D02*
X146414000Y-65642000D01*
X146414000Y-63102000D02*
X146304000Y-62992000D01*
D20*
X147684000Y-55990000D02*
X148954000Y-57260000D01*
D22*
X146414000Y-65642000D02*
X146304000Y-65532000D01*
D21*
X131954000Y-74548000D02*
X131826000Y-74676000D01*
D22*
X146414000Y-60088000D02*
X146414000Y-58532000D01*
D20*
X154432000Y-60706000D02*
X154940000Y-61214000D01*
X139574000Y-55754000D02*
X140844000Y-57024000D01*
D23*
X152796000Y-71628000D02*
X152654000Y-71628000D01*
D20*
X154940000Y-61214000D02*
X154940000Y-61468000D01*
D22*
X146304000Y-69596000D02*
X146414000Y-69486000D01*
D20*
X144272000Y-55626000D02*
X144400000Y-55754000D01*
X155194000Y-61468000D02*
X156210000Y-62484000D01*
X139574000Y-55754000D02*
X139192000Y-55372000D01*
D22*
X146414000Y-65422000D02*
X146414000Y-64372000D01*
D20*
X152258000Y-58532000D02*
X152654000Y-58928000D01*
X147828000Y-55626000D02*
X147828000Y-56134000D01*
X152654000Y-59182000D02*
X152908000Y-59182000D01*
X139192000Y-55118000D02*
X138938000Y-55118000D01*
D22*
X146414000Y-61612000D02*
X146414000Y-60308000D01*
D23*
X153558000Y-70866000D02*
X153416000Y-70866000D01*
D20*
X147828000Y-56134000D02*
X147684000Y-55990000D01*
X138938000Y-55118000D02*
X137414000Y-53594000D01*
D23*
X155702000Y-68580000D02*
X155702000Y-68722000D01*
X154940000Y-69484000D02*
X154320000Y-70104000D01*
X150368000Y-72390000D02*
X150510000Y-72532000D01*
X152654000Y-71628000D02*
X152654000Y-71770000D01*
D22*
X146304000Y-60198000D02*
X146414000Y-60088000D01*
D21*
X156210000Y-67564000D02*
X156210000Y-68214000D01*
D20*
X151780000Y-58532000D02*
X152258000Y-58532000D01*
X153670000Y-59944000D02*
X154178000Y-60452000D01*
D22*
X146414000Y-61832000D02*
X146304000Y-61722000D01*
D20*
X150368000Y-58674000D02*
X150510000Y-58532000D01*
X146414000Y-57040000D02*
X146414000Y-58532000D01*
D23*
X154178000Y-70104000D02*
X154178000Y-70246000D01*
D20*
X139192000Y-55372000D02*
X139192000Y-55118000D01*
X152654000Y-58928000D02*
X152654000Y-59182000D01*
D23*
X150510000Y-72532000D02*
X151496000Y-72532000D01*
D22*
X146414000Y-68216000D02*
X146414000Y-66912000D01*
X146304000Y-64262000D02*
X146414000Y-64152000D01*
D20*
X147574000Y-55880000D02*
X147320000Y-55626000D01*
D23*
X151496000Y-72532000D02*
X151638000Y-72390000D01*
D20*
X139574000Y-55754000D02*
X144144000Y-55754000D01*
D21*
X146414000Y-72534000D02*
X144780000Y-74168000D01*
D23*
X154178000Y-70246000D02*
X153558000Y-70866000D01*
D20*
X144144000Y-55754000D02*
X144272000Y-55626000D01*
D21*
X131954000Y-72532000D02*
X131954000Y-74548000D01*
D20*
X147574000Y-55880000D02*
X146414000Y-57040000D01*
D21*
X149860000Y-74422000D02*
X149860000Y-73438000D01*
D23*
X155844000Y-68580000D02*
X155702000Y-68580000D01*
D24*
X148954000Y-58532000D02*
X148954000Y-58784000D01*
D22*
X146414000Y-69486000D02*
X146414000Y-68436000D01*
D20*
X148954000Y-58532000D02*
X150226000Y-58532000D01*
D22*
X146304000Y-61722000D02*
X146414000Y-61612000D01*
X146304000Y-66802000D02*
X146414000Y-66692000D01*
D20*
X147448000Y-55754000D02*
X147574000Y-55880000D01*
D22*
X146414000Y-69706000D02*
X146304000Y-69596000D01*
D23*
X154320000Y-70104000D02*
X154178000Y-70104000D01*
D20*
X131826000Y-53594000D02*
X131826000Y-55118000D01*
X131826000Y-55118000D02*
X131826000Y-58404000D01*
X144400000Y-55754000D02*
X147448000Y-55754000D01*
X153416000Y-59944000D02*
X153670000Y-59944000D01*
D22*
X146414000Y-68436000D02*
X146304000Y-68326000D01*
X146414000Y-60308000D02*
X146304000Y-60198000D01*
D23*
X153416000Y-71008000D02*
X152796000Y-71628000D01*
D24*
%TO.N,3V3*%
X155854825Y-51363825D02*
X155092825Y-50601825D01*
D20*
X134494000Y-50595000D02*
X134494000Y-58532000D01*
X134620000Y-50469000D02*
X134494000Y-50595000D01*
D23*
X110744000Y-71120000D02*
X113030000Y-71120000D01*
D25*
X137337000Y-50546000D02*
X137414000Y-50469000D01*
D23*
X134620000Y-50469000D02*
X137414000Y-50469000D01*
X131826000Y-50469000D02*
X134620000Y-50469000D01*
X122505000Y-50469000D02*
X131826000Y-50469000D01*
X120650000Y-52324000D02*
X122505000Y-50469000D01*
X113030000Y-71120000D02*
X113030000Y-69596000D01*
D21*
%TO.N,/MISO*%
X117856000Y-63500000D02*
X110744000Y-63500000D01*
X135497370Y-69596000D02*
X137034000Y-71132630D01*
X117856000Y-69596000D02*
X135497370Y-69596000D01*
X137034000Y-71132630D02*
X137034000Y-72532000D01*
%TO.N,/CSN*%
X140844000Y-72532000D02*
X140844000Y-62358000D01*
X139446000Y-60960000D02*
X110744000Y-60960000D01*
X140844000Y-62358000D02*
X139446000Y-60960000D01*
%TO.N,/GDO0*%
X115570000Y-58420000D02*
X110744000Y-58420000D01*
X115824000Y-70612000D02*
X135382000Y-70612000D01*
X135764000Y-70994000D02*
X135764000Y-72532000D01*
X135382000Y-70612000D02*
X135764000Y-70994000D01*
D24*
X115824000Y-58674000D02*
X115570000Y-58420000D01*
D21*
%TO.N,/GDO2*%
X118872000Y-75946000D02*
X133096000Y-75946000D01*
X133096000Y-75946000D02*
X134494000Y-74548000D01*
X114300000Y-55880000D02*
X110744000Y-55880000D01*
D24*
X114342000Y-71332000D02*
X114300000Y-71374000D01*
D21*
X134494000Y-74548000D02*
X134494000Y-72532000D01*
X114300000Y-71374000D02*
X118872000Y-75946000D01*
%TO.N,/MOSI*%
X135612740Y-68580000D02*
X138304000Y-71271260D01*
X110744000Y-68580000D02*
X135612740Y-68580000D01*
X138304000Y-71271260D02*
X138304000Y-72532000D01*
%TO.N,/SCLK*%
X134412000Y-66040000D02*
X139574000Y-71202000D01*
X139574000Y-71202000D02*
X139574000Y-72532000D01*
X110744000Y-66040000D02*
X134412000Y-66040000D01*
D23*
%TO.N,/ANTENNA*%
X153479500Y-65024000D02*
X151892000Y-65024000D01*
X147684000Y-69232000D02*
X147684000Y-72532000D01*
X151892000Y-65024000D02*
X147684000Y-69232000D01*
D21*
X153479500Y-65024000D02*
X154716750Y-65024000D01*
%TD*%
%TA.AperFunction,Conductor*%
%TO.N,GND*%
G36*
X157684539Y-54629685D02*
G01*
X157730294Y-54682489D01*
X157741500Y-54734000D01*
X157741500Y-61098000D01*
X157721815Y-61165039D01*
X157669011Y-61210794D01*
X157617500Y-61222000D01*
X156460000Y-61222000D01*
X156460000Y-61722000D01*
X155960000Y-61722000D01*
X155960000Y-61222000D01*
X155253362Y-61222000D01*
X155186323Y-61202315D01*
X155165681Y-61185681D01*
X152400001Y-58420000D01*
X152400000Y-58420000D01*
X152351813Y-58421566D01*
X149982028Y-58498586D01*
X149914384Y-58481089D01*
X149866938Y-58429799D01*
X149854000Y-58374651D01*
X149854000Y-57985553D01*
X149853999Y-57985552D01*
X149319427Y-58520123D01*
X148954000Y-58532000D01*
X148927933Y-58204511D01*
X149773885Y-57358560D01*
X149711194Y-57274817D01*
X149711185Y-57274808D01*
X149596093Y-57188649D01*
X149596086Y-57188645D01*
X149461379Y-57138403D01*
X149461372Y-57138401D01*
X149401844Y-57132000D01*
X148877362Y-57132000D01*
X148810323Y-57112315D01*
X148789681Y-57095681D01*
X147574000Y-55880000D01*
X146558000Y-55880000D01*
X146558000Y-55626000D01*
X143510000Y-55626000D01*
X143510000Y-55880000D01*
X139751362Y-55880000D01*
X139684323Y-55860315D01*
X139663681Y-55843681D01*
X138733219Y-54913219D01*
X138699734Y-54851896D01*
X138704718Y-54782204D01*
X138746590Y-54726271D01*
X138781896Y-54707832D01*
X138833119Y-54690858D01*
X138833124Y-54690856D01*
X138934283Y-54628461D01*
X138999380Y-54610000D01*
X157617500Y-54610000D01*
X157684539Y-54629685D01*
G37*
%TD.AperFunction*%
%TD*%
%TA.AperFunction,Conductor*%
%TO.N,GND*%
G36*
X146558000Y-55880000D02*
G01*
X146558000Y-57008000D01*
X146538315Y-57075039D01*
X146485511Y-57120794D01*
X146434000Y-57132000D01*
X145966155Y-57132000D01*
X145906627Y-57138401D01*
X145906620Y-57138403D01*
X145771913Y-57188645D01*
X145771906Y-57188649D01*
X145656812Y-57274809D01*
X145594114Y-57358560D01*
X145594114Y-57358561D01*
X146558000Y-58322447D01*
X146558000Y-58741550D01*
X145594114Y-59705436D01*
X145594113Y-59705438D01*
X145656805Y-59789182D01*
X145656814Y-59789191D01*
X145771906Y-59875350D01*
X145771913Y-59875354D01*
X145906620Y-59925596D01*
X145906627Y-59925598D01*
X145966155Y-59931999D01*
X145966172Y-59932000D01*
X146434000Y-59932000D01*
X146501039Y-59951685D01*
X146546794Y-60004489D01*
X146558000Y-60056000D01*
X146558000Y-71008000D01*
X146538315Y-71075039D01*
X146485511Y-71120794D01*
X146434000Y-71132000D01*
X145966155Y-71132000D01*
X145906627Y-71138401D01*
X145906620Y-71138403D01*
X145771913Y-71188645D01*
X145771906Y-71188649D01*
X145656812Y-71274809D01*
X145594114Y-71358560D01*
X145594114Y-71358561D01*
X146558000Y-72322447D01*
X146558000Y-72390000D01*
X146224320Y-72695872D01*
X145514000Y-71985552D01*
X145514000Y-73292452D01*
X145494315Y-73359491D01*
X145473789Y-73383859D01*
X143510000Y-75184000D01*
X143510000Y-59078447D01*
X145514000Y-59078447D01*
X146060447Y-58532000D01*
X146060447Y-58531999D01*
X145514000Y-57985552D01*
X145514000Y-59078447D01*
X143510000Y-59078447D01*
X143510000Y-55626000D01*
X146558000Y-55626000D01*
X146558000Y-55880000D01*
G37*
%TD.AperFunction*%
%TD*%
%TA.AperFunction,Conductor*%
%TO.N,GND*%
G36*
X156460000Y-68826000D02*
G01*
X157617500Y-68826000D01*
X157684539Y-68845685D01*
X157730294Y-68898489D01*
X157741500Y-68950000D01*
X157741500Y-75055698D01*
X157721815Y-75122737D01*
X157669011Y-75168492D01*
X157599853Y-75178436D01*
X157536297Y-75149411D01*
X157510114Y-75117700D01*
X157506953Y-75112226D01*
X157298240Y-74831875D01*
X157298235Y-74831869D01*
X157182258Y-74708942D01*
X157058383Y-74577642D01*
X156872896Y-74422000D01*
X156790638Y-74352977D01*
X156790630Y-74352971D01*
X156498621Y-74160913D01*
X156186283Y-74004051D01*
X156186277Y-74004048D01*
X155857837Y-73884506D01*
X155857834Y-73884505D01*
X155517740Y-73803902D01*
X155474344Y-73798829D01*
X155170584Y-73763325D01*
X154821066Y-73763325D01*
X154517305Y-73798829D01*
X154473910Y-73803902D01*
X154473908Y-73803902D01*
X154133815Y-73884505D01*
X154133812Y-73884506D01*
X153805372Y-74004048D01*
X153805366Y-74004051D01*
X153493028Y-74160913D01*
X153201019Y-74352971D01*
X153201011Y-74352977D01*
X152933267Y-74577642D01*
X152933265Y-74577644D01*
X152693414Y-74831869D01*
X152693409Y-74831875D01*
X152484695Y-75112227D01*
X152309938Y-75414916D01*
X152309932Y-75414929D01*
X152171499Y-75735852D01*
X152071255Y-76070690D01*
X152071253Y-76070697D01*
X152010564Y-76414886D01*
X152010563Y-76414897D01*
X151990240Y-76763821D01*
X151990240Y-76763828D01*
X152010563Y-77112752D01*
X152010564Y-77112763D01*
X152071253Y-77456952D01*
X152071255Y-77456959D01*
X152171499Y-77791797D01*
X152309932Y-78112720D01*
X152309938Y-78112733D01*
X152484695Y-78415422D01*
X152693409Y-78695774D01*
X152693414Y-78695780D01*
X152817288Y-78827078D01*
X152933267Y-78950008D01*
X153109728Y-79098076D01*
X153201011Y-79174672D01*
X153201019Y-79174678D01*
X153364041Y-79281900D01*
X153409235Y-79335185D01*
X153418446Y-79404445D01*
X153388751Y-79467690D01*
X153329576Y-79504840D01*
X153295902Y-79509500D01*
X108828500Y-79509500D01*
X108761461Y-79489815D01*
X108715706Y-79437011D01*
X108704500Y-79385500D01*
X108704500Y-73022000D01*
X108724185Y-72954961D01*
X108776989Y-72909206D01*
X108828500Y-72898000D01*
X109270000Y-72898000D01*
X109337039Y-72917685D01*
X109382794Y-72970489D01*
X109394000Y-73022000D01*
X109394000Y-73410000D01*
X110310988Y-73410000D01*
X110278075Y-73467007D01*
X110244000Y-73594174D01*
X110244000Y-73725826D01*
X110278075Y-73852993D01*
X110310988Y-73910000D01*
X109394000Y-73910000D01*
X109394000Y-74557844D01*
X109400401Y-74617372D01*
X109400403Y-74617379D01*
X109450645Y-74752086D01*
X109450649Y-74752093D01*
X109536809Y-74867187D01*
X109536812Y-74867190D01*
X109651906Y-74953350D01*
X109651913Y-74953354D01*
X109786620Y-75003596D01*
X109786627Y-75003598D01*
X109846155Y-75009999D01*
X109846172Y-75010000D01*
X110494000Y-75010000D01*
X110494000Y-74093012D01*
X110551007Y-74125925D01*
X110678174Y-74160000D01*
X110809826Y-74160000D01*
X110936993Y-74125925D01*
X110994000Y-74093012D01*
X110994000Y-75010000D01*
X111641828Y-75010000D01*
X111641844Y-75009999D01*
X111701372Y-75003598D01*
X111701379Y-75003596D01*
X111836086Y-74953354D01*
X111836093Y-74953350D01*
X111951187Y-74867190D01*
X111951190Y-74867187D01*
X112037350Y-74752093D01*
X112037354Y-74752086D01*
X112087596Y-74617379D01*
X112087598Y-74617372D01*
X112093999Y-74557844D01*
X112094000Y-74557827D01*
X112094000Y-73910000D01*
X111177012Y-73910000D01*
X111209925Y-73852993D01*
X111244000Y-73725826D01*
X111244000Y-73594174D01*
X111209925Y-73467007D01*
X111177012Y-73410000D01*
X112094000Y-73410000D01*
X112094000Y-73022000D01*
X112113685Y-72954961D01*
X112166489Y-72909206D01*
X112218000Y-72898000D01*
X112703479Y-72898000D01*
X112770518Y-72917685D01*
X112811554Y-72961208D01*
X114950524Y-76763821D01*
X115062000Y-76962000D01*
X141223999Y-76962000D01*
X141224000Y-76962000D01*
X143510000Y-75057000D01*
X143510000Y-75184000D01*
X144341273Y-74422000D01*
X149860000Y-74422000D01*
X150071890Y-74191685D01*
X154971479Y-68866045D01*
X155031355Y-68830036D01*
X155062734Y-68826000D01*
X155960000Y-68826000D01*
X155960000Y-68072000D01*
X156460000Y-68072000D01*
X156460000Y-68826000D01*
G37*
%TD.AperFunction*%
%TD*%
M02*
