%TF.GenerationSoftware,KiCad,Pcbnew,8.0.2*%
%TF.CreationDate,2024-06-12T13:55:33+02:00*%
%TF.ProjectId,e07-900m10s-breakout,6530372d-3930-4306-9d31-30732d627265,rev?*%
%TF.SameCoordinates,Original*%
%TF.FileFunction,Drillmap*%
%TF.FilePolarity,Positive*%
%FSLAX45Y45*%
G04 Gerber Fmt 4.5, Leading zero omitted, Abs format (unit mm)*
G04 Created by KiCad (PCBNEW 8.0.2) date 2024-06-12 13:55:33*
%MOMM*%
%LPD*%
G01*
G04 APERTURE LIST*
%ADD10C,0.050000*%
%ADD11C,0.200000*%
G04 APERTURE END LIST*
D10*
X10820400Y-4724400D02*
X15824200Y-4724400D01*
X15824200Y-8001000D01*
X10820400Y-8001000D01*
X10820400Y-4724400D01*
D11*
X11078677Y-8314984D02*
X11078677Y-8114984D01*
X11078677Y-8114984D02*
X11126296Y-8114984D01*
X11126296Y-8114984D02*
X11154867Y-8124508D01*
X11154867Y-8124508D02*
X11173915Y-8143555D01*
X11173915Y-8143555D02*
X11183439Y-8162603D01*
X11183439Y-8162603D02*
X11192962Y-8200698D01*
X11192962Y-8200698D02*
X11192962Y-8229269D01*
X11192962Y-8229269D02*
X11183439Y-8267365D01*
X11183439Y-8267365D02*
X11173915Y-8286412D01*
X11173915Y-8286412D02*
X11154867Y-8305460D01*
X11154867Y-8305460D02*
X11126296Y-8314984D01*
X11126296Y-8314984D02*
X11078677Y-8314984D01*
X11278677Y-8314984D02*
X11278677Y-8181650D01*
X11278677Y-8219746D02*
X11288201Y-8200698D01*
X11288201Y-8200698D02*
X11297724Y-8191174D01*
X11297724Y-8191174D02*
X11316772Y-8181650D01*
X11316772Y-8181650D02*
X11335820Y-8181650D01*
X11402486Y-8314984D02*
X11402486Y-8181650D01*
X11402486Y-8114984D02*
X11392962Y-8124508D01*
X11392962Y-8124508D02*
X11402486Y-8134031D01*
X11402486Y-8134031D02*
X11412010Y-8124508D01*
X11412010Y-8124508D02*
X11402486Y-8114984D01*
X11402486Y-8114984D02*
X11402486Y-8134031D01*
X11526296Y-8314984D02*
X11507248Y-8305460D01*
X11507248Y-8305460D02*
X11497724Y-8286412D01*
X11497724Y-8286412D02*
X11497724Y-8114984D01*
X11631058Y-8314984D02*
X11612010Y-8305460D01*
X11612010Y-8305460D02*
X11602486Y-8286412D01*
X11602486Y-8286412D02*
X11602486Y-8114984D01*
X11859629Y-8314984D02*
X11859629Y-8114984D01*
X11859629Y-8114984D02*
X11926296Y-8257841D01*
X11926296Y-8257841D02*
X11992962Y-8114984D01*
X11992962Y-8114984D02*
X11992962Y-8314984D01*
X12173915Y-8314984D02*
X12173915Y-8210222D01*
X12173915Y-8210222D02*
X12164391Y-8191174D01*
X12164391Y-8191174D02*
X12145343Y-8181650D01*
X12145343Y-8181650D02*
X12107248Y-8181650D01*
X12107248Y-8181650D02*
X12088201Y-8191174D01*
X12173915Y-8305460D02*
X12154867Y-8314984D01*
X12154867Y-8314984D02*
X12107248Y-8314984D01*
X12107248Y-8314984D02*
X12088201Y-8305460D01*
X12088201Y-8305460D02*
X12078677Y-8286412D01*
X12078677Y-8286412D02*
X12078677Y-8267365D01*
X12078677Y-8267365D02*
X12088201Y-8248317D01*
X12088201Y-8248317D02*
X12107248Y-8238793D01*
X12107248Y-8238793D02*
X12154867Y-8238793D01*
X12154867Y-8238793D02*
X12173915Y-8229269D01*
X12269153Y-8181650D02*
X12269153Y-8381650D01*
X12269153Y-8191174D02*
X12288201Y-8181650D01*
X12288201Y-8181650D02*
X12326296Y-8181650D01*
X12326296Y-8181650D02*
X12345343Y-8191174D01*
X12345343Y-8191174D02*
X12354867Y-8200698D01*
X12354867Y-8200698D02*
X12364391Y-8219746D01*
X12364391Y-8219746D02*
X12364391Y-8276888D01*
X12364391Y-8276888D02*
X12354867Y-8295936D01*
X12354867Y-8295936D02*
X12345343Y-8305460D01*
X12345343Y-8305460D02*
X12326296Y-8314984D01*
X12326296Y-8314984D02*
X12288201Y-8314984D01*
X12288201Y-8314984D02*
X12269153Y-8305460D01*
X12450105Y-8295936D02*
X12459629Y-8305460D01*
X12459629Y-8305460D02*
X12450105Y-8314984D01*
X12450105Y-8314984D02*
X12440582Y-8305460D01*
X12440582Y-8305460D02*
X12450105Y-8295936D01*
X12450105Y-8295936D02*
X12450105Y-8314984D01*
X12450105Y-8191174D02*
X12459629Y-8200698D01*
X12459629Y-8200698D02*
X12450105Y-8210222D01*
X12450105Y-8210222D02*
X12440582Y-8200698D01*
X12440582Y-8200698D02*
X12450105Y-8191174D01*
X12450105Y-8191174D02*
X12450105Y-8210222D01*
M02*
