%TF.GenerationSoftware,KiCad,Pcbnew,8.0.2*%
%TF.CreationDate,2024-06-12T11:30:58+02:00*%
%TF.ProjectId,e07-900m10s-breakout,6530372d-3930-4306-9d31-30732d627265,rev?*%
%TF.SameCoordinates,Original*%
%TF.FileFunction,Soldermask,Top*%
%TF.FilePolarity,Negative*%
%FSLAX46Y46*%
G04 Gerber Fmt 4.6, Leading zero omitted, Abs format (unit mm)*
G04 Created by KiCad (PCBNEW 8.0.2) date 2024-06-12 11:30:58*
%MOMM*%
%LPD*%
G01*
G04 APERTURE LIST*
G04 Aperture macros list*
%AMRoundRect*
0 Rectangle with rounded corners*
0 $1 Rounding radius*
0 $2 $3 $4 $5 $6 $7 $8 $9 X,Y pos of 4 corners*
0 Add a 4 corners polygon primitive as box body*
4,1,4,$2,$3,$4,$5,$6,$7,$8,$9,$2,$3,0*
0 Add four circle primitives for the rounded corners*
1,1,$1+$1,$2,$3*
1,1,$1+$1,$4,$5*
1,1,$1+$1,$6,$7*
1,1,$1+$1,$8,$9*
0 Add four rect primitives between the rounded corners*
20,1,$1+$1,$2,$3,$4,$5,0*
20,1,$1+$1,$4,$5,$6,$7,0*
20,1,$1+$1,$6,$7,$8,$9,0*
20,1,$1+$1,$8,$9,$2,$3,0*%
G04 Aperture macros list end*
%ADD10C,0.800000*%
%ADD11C,5.000000*%
%ADD12R,0.800000X1.800000*%
%ADD13RoundRect,0.250000X1.100000X-0.412500X1.100000X0.412500X-1.100000X0.412500X-1.100000X-0.412500X0*%
%ADD14RoundRect,0.109220X0.690880X0.436880X-0.690880X0.436880X-0.690880X-0.436880X0.690880X-0.436880X0*%
%ADD15C,1.346200*%
%ADD16RoundRect,0.038100X-2.159000X-0.762000X2.159000X-0.762000X2.159000X0.762000X-2.159000X0.762000X0*%
%ADD17R,1.700000X1.700000*%
%ADD18O,1.700000X1.700000*%
G04 APERTURE END LIST*
D10*
%TO.C,H3*%
X153120825Y-76763825D03*
X153670000Y-75438000D03*
X153670000Y-78089650D03*
X154995825Y-74888825D03*
D11*
X154995825Y-76763825D03*
D10*
X154995825Y-78638825D03*
X156321650Y-75438000D03*
X156321650Y-78089650D03*
X156870825Y-76763825D03*
%TD*%
D12*
%TO.C,U1*%
X148954000Y-58532000D03*
X147684000Y-58532000D03*
X146414000Y-58532000D03*
X140844000Y-58532000D03*
X139574000Y-58532000D03*
X138304000Y-58532000D03*
X137034000Y-58532000D03*
X135764000Y-58532000D03*
X134494000Y-58532000D03*
X133224000Y-58532000D03*
X131954000Y-58532000D03*
X131954000Y-72532000D03*
X133224000Y-72532000D03*
X134494000Y-72532000D03*
X135764000Y-72532000D03*
X137034000Y-72532000D03*
X138304000Y-72532000D03*
X139574000Y-72532000D03*
X140844000Y-72532000D03*
X146414000Y-72532000D03*
X147684000Y-72532000D03*
X148954000Y-72532000D03*
%TD*%
D13*
%TO.C,C1*%
X131826000Y-53594000D03*
X131826000Y-50469000D03*
%TD*%
D10*
%TO.C,H4*%
X153120825Y-50601825D03*
X153670000Y-49276000D03*
X153670000Y-51927650D03*
X154995825Y-48726825D03*
D11*
X154995825Y-50601825D03*
D10*
X154995825Y-52476825D03*
X156321650Y-49276000D03*
X156321650Y-51927650D03*
X156870825Y-50601825D03*
%TD*%
D14*
%TO.C,J$1*%
X154716750Y-65024000D03*
D15*
X153479500Y-65024000D03*
D16*
X156210000Y-67564000D03*
X156210000Y-62484000D03*
%TD*%
D17*
%TO.C,J1*%
X110744000Y-73660000D03*
D18*
X110744000Y-71120000D03*
X110744000Y-68580000D03*
X110744000Y-66040000D03*
X110744000Y-63500000D03*
X110744000Y-60960000D03*
X110744000Y-58420000D03*
X110744000Y-55880000D03*
%TD*%
D13*
%TO.C,C2*%
X137414000Y-53594000D03*
X137414000Y-50469000D03*
%TD*%
M02*
