%TF.GenerationSoftware,KiCad,Pcbnew,8.0.2*%
%TF.CreationDate,2024-06-12T13:55:33+02:00*%
%TF.ProjectId,e07-900m10s-breakout,6530372d-3930-4306-9d31-30732d627265,rev?*%
%TF.SameCoordinates,Original*%
%TF.FileFunction,Drillmap*%
%TF.FilePolarity,Positive*%
%FSLAX45Y45*%
G04 Gerber Fmt 4.5, Leading zero omitted, Abs format (unit mm)*
G04 Created by KiCad (PCBNEW 8.0.2) date 2024-06-12 13:55:33*
%MOMM*%
%LPD*%
G01*
G04 APERTURE LIST*
%ADD10C,0.050000*%
%ADD11C,0.200000*%
%ADD12C,0.100000*%
%ADD13C,0.250000*%
G04 APERTURE END LIST*
D10*
X10820400Y-4724400D02*
X15824200Y-4724400D01*
X15824200Y-8001000D01*
X10820400Y-8001000D01*
X10820400Y-4724400D01*
D11*
D12*
X11084800Y-7706600D02*
X11114800Y-7736600D01*
X11114800Y-7706600D02*
X11084800Y-7736600D01*
X11288000Y-6944600D02*
X11318000Y-6974600D01*
X11318000Y-6944600D02*
X11288000Y-6974600D01*
X11415000Y-5573000D02*
X11445000Y-5603000D01*
X11445000Y-5573000D02*
X11415000Y-5603000D01*
X11415000Y-7122400D02*
X11445000Y-7152400D01*
X11445000Y-7122400D02*
X11415000Y-7152400D01*
X11567400Y-5852400D02*
X11597400Y-5882400D01*
X11597400Y-5852400D02*
X11567400Y-5882400D01*
X11567400Y-7046200D02*
X11597400Y-7076200D01*
X11597400Y-7046200D02*
X11567400Y-7076200D01*
X11770600Y-6335000D02*
X11800600Y-6365000D01*
X11800600Y-6335000D02*
X11770600Y-6365000D01*
X11770600Y-6944600D02*
X11800600Y-6974600D01*
X11800600Y-6944600D02*
X11770600Y-6974600D01*
X11999200Y-7833600D02*
X12029200Y-7863600D01*
X12029200Y-7833600D02*
X11999200Y-7863600D01*
X12050000Y-5217400D02*
X12080000Y-5247400D01*
X12080000Y-5217400D02*
X12050000Y-5247400D01*
X12964400Y-7833600D02*
X12994400Y-7863600D01*
X12994400Y-7833600D02*
X12964400Y-7863600D01*
X13167600Y-5496800D02*
X13197600Y-5526800D01*
X13197600Y-5496800D02*
X13167600Y-5526800D01*
X13167600Y-7452600D02*
X13197600Y-7482600D01*
X13197600Y-7452600D02*
X13167600Y-7482600D01*
X13904200Y-5496800D02*
X13934200Y-5526800D01*
X13934200Y-5496800D02*
X13904200Y-5526800D01*
X14412200Y-5547600D02*
X14442200Y-5577600D01*
X14442200Y-5547600D02*
X14412200Y-5577600D01*
X14437600Y-6131800D02*
X14467600Y-6161800D01*
X14467600Y-6131800D02*
X14437600Y-6161800D01*
X14437600Y-6411200D02*
X14467600Y-6441200D01*
X14467600Y-6411200D02*
X14437600Y-6441200D01*
X14437600Y-6665200D02*
X14467600Y-6695200D01*
X14467600Y-6665200D02*
X14437600Y-6695200D01*
X14437600Y-6944600D02*
X14467600Y-6974600D01*
X14467600Y-6944600D02*
X14437600Y-6974600D01*
X14437600Y-7427200D02*
X14467600Y-7457200D01*
X14467600Y-7427200D02*
X14437600Y-7457200D01*
X14539200Y-7757400D02*
X14569200Y-7787400D01*
X14569200Y-7757400D02*
X14539200Y-7787400D01*
X14615400Y-6004800D02*
X14645400Y-6034800D01*
X14645400Y-6004800D02*
X14615400Y-6034800D01*
X14615400Y-6284200D02*
X14645400Y-6314200D01*
X14645400Y-6284200D02*
X14615400Y-6314200D01*
X14615400Y-6538200D02*
X14645400Y-6568200D01*
X14645400Y-6538200D02*
X14615400Y-6568200D01*
X14615400Y-6817600D02*
X14645400Y-6847600D01*
X14645400Y-6817600D02*
X14615400Y-6847600D01*
X14615400Y-7071600D02*
X14645400Y-7101600D01*
X14645400Y-7071600D02*
X14615400Y-7101600D01*
X14767800Y-5547600D02*
X14797800Y-5577600D01*
X14797800Y-5547600D02*
X14767800Y-5577600D01*
X15021800Y-5852400D02*
X15051800Y-5882400D01*
X15051800Y-5852400D02*
X15021800Y-5882400D01*
X15021800Y-7224000D02*
X15051800Y-7254000D01*
X15051800Y-7224000D02*
X15021800Y-7254000D01*
X15047200Y-7605000D02*
X15077200Y-7635000D01*
X15077200Y-7605000D02*
X15047200Y-7635000D01*
X15148800Y-5598400D02*
X15178800Y-5628400D01*
X15178800Y-5598400D02*
X15148800Y-5628400D01*
X15148800Y-5852400D02*
X15178800Y-5882400D01*
X15178800Y-5852400D02*
X15148800Y-5882400D01*
X15250400Y-7147800D02*
X15280400Y-7177800D01*
X15280400Y-7147800D02*
X15250400Y-7177800D01*
X15326600Y-5979400D02*
X15356600Y-6009400D01*
X15356600Y-5979400D02*
X15326600Y-6009400D01*
X15402800Y-6995400D02*
X15432800Y-7025400D01*
X15432800Y-6995400D02*
X15402800Y-7025400D01*
X15479000Y-6131800D02*
X15509000Y-6161800D01*
X15509000Y-6131800D02*
X15479000Y-6161800D01*
X15555200Y-5776200D02*
X15585200Y-5806200D01*
X15585200Y-5776200D02*
X15555200Y-5806200D01*
X15555200Y-6843000D02*
X15585200Y-6873000D01*
X15585200Y-6843000D02*
X15555200Y-6873000D01*
X15606000Y-7198600D02*
X15636000Y-7228600D01*
X15636000Y-7198600D02*
X15606000Y-7228600D01*
X15337082Y-5060183D02*
G75*
G02*
X15287082Y-5060183I-25000J0D01*
G01*
X15287082Y-5060183D02*
G75*
G02*
X15337082Y-5060183I25000J0D01*
G01*
X15337082Y-7676382D02*
G75*
G02*
X15287082Y-7676382I-25000J0D01*
G01*
X15287082Y-7676382D02*
G75*
G02*
X15337082Y-7676382I25000J0D01*
G01*
X15392000Y-4927600D02*
G75*
G02*
X15342000Y-4927600I-25000J0D01*
G01*
X15342000Y-4927600D02*
G75*
G02*
X15392000Y-4927600I25000J0D01*
G01*
X15392000Y-5192765D02*
G75*
G02*
X15342000Y-5192765I-25000J0D01*
G01*
X15342000Y-5192765D02*
G75*
G02*
X15392000Y-5192765I25000J0D01*
G01*
X15392000Y-7543800D02*
G75*
G02*
X15342000Y-7543800I-25000J0D01*
G01*
X15342000Y-7543800D02*
G75*
G02*
X15392000Y-7543800I25000J0D01*
G01*
X15392000Y-7808965D02*
G75*
G02*
X15342000Y-7808965I-25000J0D01*
G01*
X15342000Y-7808965D02*
G75*
G02*
X15392000Y-7808965I25000J0D01*
G01*
X15524582Y-4872683D02*
G75*
G02*
X15474582Y-4872683I-25000J0D01*
G01*
X15474582Y-4872683D02*
G75*
G02*
X15524582Y-4872683I25000J0D01*
G01*
X15524582Y-5247683D02*
G75*
G02*
X15474582Y-5247683I-25000J0D01*
G01*
X15474582Y-5247683D02*
G75*
G02*
X15524582Y-5247683I25000J0D01*
G01*
X15524582Y-7488882D02*
G75*
G02*
X15474582Y-7488882I-25000J0D01*
G01*
X15474582Y-7488882D02*
G75*
G02*
X15524582Y-7488882I25000J0D01*
G01*
X15524582Y-7863882D02*
G75*
G02*
X15474582Y-7863882I-25000J0D01*
G01*
X15474582Y-7863882D02*
G75*
G02*
X15524582Y-7863882I25000J0D01*
G01*
X15657165Y-4927600D02*
G75*
G02*
X15607165Y-4927600I-25000J0D01*
G01*
X15607165Y-4927600D02*
G75*
G02*
X15657165Y-4927600I25000J0D01*
G01*
X15657165Y-5192765D02*
G75*
G02*
X15607165Y-5192765I-25000J0D01*
G01*
X15607165Y-5192765D02*
G75*
G02*
X15657165Y-5192765I25000J0D01*
G01*
X15657165Y-7543800D02*
G75*
G02*
X15607165Y-7543800I-25000J0D01*
G01*
X15607165Y-7543800D02*
G75*
G02*
X15657165Y-7543800I25000J0D01*
G01*
X15657165Y-7808965D02*
G75*
G02*
X15607165Y-7808965I-25000J0D01*
G01*
X15607165Y-7808965D02*
G75*
G02*
X15657165Y-7808965I25000J0D01*
G01*
X15712082Y-5060183D02*
G75*
G02*
X15662082Y-5060183I-25000J0D01*
G01*
X15662082Y-5060183D02*
G75*
G02*
X15712082Y-5060183I25000J0D01*
G01*
X15712082Y-7676382D02*
G75*
G02*
X15662082Y-7676382I-25000J0D01*
G01*
X15662082Y-7676382D02*
G75*
G02*
X15712082Y-7676382I25000J0D01*
G01*
X15347950Y-6474460D02*
X15347950Y-6530340D01*
X15320010Y-6502400D02*
X15375890Y-6502400D01*
X11109756Y-5623356D02*
X11109756Y-5552644D01*
X11039044Y-5552644D01*
X11039044Y-5623356D01*
X11109756Y-5623356D01*
X11109756Y-5877356D02*
X11109756Y-5806644D01*
X11039044Y-5806644D01*
X11039044Y-5877356D01*
X11109756Y-5877356D01*
X11109756Y-6131356D02*
X11109756Y-6060644D01*
X11039044Y-6060644D01*
X11039044Y-6131356D01*
X11109756Y-6131356D01*
X11109756Y-6385356D02*
X11109756Y-6314644D01*
X11039044Y-6314644D01*
X11039044Y-6385356D01*
X11109756Y-6385356D01*
X11109756Y-6639356D02*
X11109756Y-6568644D01*
X11039044Y-6568644D01*
X11039044Y-6639356D01*
X11109756Y-6639356D01*
X11109756Y-6893356D02*
X11109756Y-6822644D01*
X11039044Y-6822644D01*
X11039044Y-6893356D01*
X11109756Y-6893356D01*
X11109756Y-7147356D02*
X11109756Y-7076644D01*
X11039044Y-7076644D01*
X11039044Y-7147356D01*
X11109756Y-7147356D01*
X11109756Y-7401356D02*
X11109756Y-7330644D01*
X11039044Y-7330644D01*
X11039044Y-7401356D01*
X11109756Y-7401356D01*
D13*
X15499582Y-5185183D02*
X15624582Y-5060183D01*
X15499582Y-4935183D01*
X15374582Y-5060183D01*
X15499582Y-5185183D01*
X15499582Y-7801382D02*
X15624582Y-7676382D01*
X15499582Y-7551382D01*
X15374582Y-7676382D01*
X15499582Y-7801382D01*
D11*
X11078677Y-8314984D02*
X11078677Y-8114984D01*
X11078677Y-8114984D02*
X11126296Y-8114984D01*
X11126296Y-8114984D02*
X11154867Y-8124508D01*
X11154867Y-8124508D02*
X11173915Y-8143555D01*
X11173915Y-8143555D02*
X11183439Y-8162603D01*
X11183439Y-8162603D02*
X11192962Y-8200698D01*
X11192962Y-8200698D02*
X11192962Y-8229269D01*
X11192962Y-8229269D02*
X11183439Y-8267365D01*
X11183439Y-8267365D02*
X11173915Y-8286412D01*
X11173915Y-8286412D02*
X11154867Y-8305460D01*
X11154867Y-8305460D02*
X11126296Y-8314984D01*
X11126296Y-8314984D02*
X11078677Y-8314984D01*
X11278677Y-8314984D02*
X11278677Y-8181650D01*
X11278677Y-8219746D02*
X11288201Y-8200698D01*
X11288201Y-8200698D02*
X11297724Y-8191174D01*
X11297724Y-8191174D02*
X11316772Y-8181650D01*
X11316772Y-8181650D02*
X11335820Y-8181650D01*
X11402486Y-8314984D02*
X11402486Y-8181650D01*
X11402486Y-8114984D02*
X11392962Y-8124508D01*
X11392962Y-8124508D02*
X11402486Y-8134031D01*
X11402486Y-8134031D02*
X11412010Y-8124508D01*
X11412010Y-8124508D02*
X11402486Y-8114984D01*
X11402486Y-8114984D02*
X11402486Y-8134031D01*
X11526296Y-8314984D02*
X11507248Y-8305460D01*
X11507248Y-8305460D02*
X11497724Y-8286412D01*
X11497724Y-8286412D02*
X11497724Y-8114984D01*
X11631058Y-8314984D02*
X11612010Y-8305460D01*
X11612010Y-8305460D02*
X11602486Y-8286412D01*
X11602486Y-8286412D02*
X11602486Y-8114984D01*
X11859629Y-8314984D02*
X11859629Y-8114984D01*
X11859629Y-8114984D02*
X11926296Y-8257841D01*
X11926296Y-8257841D02*
X11992962Y-8114984D01*
X11992962Y-8114984D02*
X11992962Y-8314984D01*
X12173915Y-8314984D02*
X12173915Y-8210222D01*
X12173915Y-8210222D02*
X12164391Y-8191174D01*
X12164391Y-8191174D02*
X12145343Y-8181650D01*
X12145343Y-8181650D02*
X12107248Y-8181650D01*
X12107248Y-8181650D02*
X12088201Y-8191174D01*
X12173915Y-8305460D02*
X12154867Y-8314984D01*
X12154867Y-8314984D02*
X12107248Y-8314984D01*
X12107248Y-8314984D02*
X12088201Y-8305460D01*
X12088201Y-8305460D02*
X12078677Y-8286412D01*
X12078677Y-8286412D02*
X12078677Y-8267365D01*
X12078677Y-8267365D02*
X12088201Y-8248317D01*
X12088201Y-8248317D02*
X12107248Y-8238793D01*
X12107248Y-8238793D02*
X12154867Y-8238793D01*
X12154867Y-8238793D02*
X12173915Y-8229269D01*
X12269153Y-8181650D02*
X12269153Y-8381650D01*
X12269153Y-8191174D02*
X12288201Y-8181650D01*
X12288201Y-8181650D02*
X12326296Y-8181650D01*
X12326296Y-8181650D02*
X12345343Y-8191174D01*
X12345343Y-8191174D02*
X12354867Y-8200698D01*
X12354867Y-8200698D02*
X12364391Y-8219746D01*
X12364391Y-8219746D02*
X12364391Y-8276888D01*
X12364391Y-8276888D02*
X12354867Y-8295936D01*
X12354867Y-8295936D02*
X12345343Y-8305460D01*
X12345343Y-8305460D02*
X12326296Y-8314984D01*
X12326296Y-8314984D02*
X12288201Y-8314984D01*
X12288201Y-8314984D02*
X12269153Y-8305460D01*
X12450105Y-8295936D02*
X12459629Y-8305460D01*
X12459629Y-8305460D02*
X12450105Y-8314984D01*
X12450105Y-8314984D02*
X12440582Y-8305460D01*
X12440582Y-8305460D02*
X12450105Y-8295936D01*
X12450105Y-8295936D02*
X12450105Y-8314984D01*
X12450105Y-8191174D02*
X12459629Y-8200698D01*
X12459629Y-8200698D02*
X12450105Y-8210222D01*
X12450105Y-8210222D02*
X12440582Y-8200698D01*
X12440582Y-8200698D02*
X12450105Y-8191174D01*
X12450105Y-8191174D02*
X12450105Y-8210222D01*
D12*
X10787900Y-8628500D02*
X10817900Y-8658500D01*
X10817900Y-8628500D02*
X10787900Y-8658500D01*
D11*
X11116772Y-8534984D02*
X11135820Y-8534984D01*
X11135820Y-8534984D02*
X11154867Y-8544508D01*
X11154867Y-8544508D02*
X11164391Y-8554031D01*
X11164391Y-8554031D02*
X11173915Y-8573079D01*
X11173915Y-8573079D02*
X11183439Y-8611174D01*
X11183439Y-8611174D02*
X11183439Y-8658793D01*
X11183439Y-8658793D02*
X11173915Y-8696889D01*
X11173915Y-8696889D02*
X11164391Y-8715936D01*
X11164391Y-8715936D02*
X11154867Y-8725460D01*
X11154867Y-8725460D02*
X11135820Y-8734984D01*
X11135820Y-8734984D02*
X11116772Y-8734984D01*
X11116772Y-8734984D02*
X11097724Y-8725460D01*
X11097724Y-8725460D02*
X11088201Y-8715936D01*
X11088201Y-8715936D02*
X11078677Y-8696889D01*
X11078677Y-8696889D02*
X11069153Y-8658793D01*
X11069153Y-8658793D02*
X11069153Y-8611174D01*
X11069153Y-8611174D02*
X11078677Y-8573079D01*
X11078677Y-8573079D02*
X11088201Y-8554031D01*
X11088201Y-8554031D02*
X11097724Y-8544508D01*
X11097724Y-8544508D02*
X11116772Y-8534984D01*
X11269153Y-8715936D02*
X11278677Y-8725460D01*
X11278677Y-8725460D02*
X11269153Y-8734984D01*
X11269153Y-8734984D02*
X11259629Y-8725460D01*
X11259629Y-8725460D02*
X11269153Y-8715936D01*
X11269153Y-8715936D02*
X11269153Y-8734984D01*
X11345343Y-8534984D02*
X11469153Y-8534984D01*
X11469153Y-8534984D02*
X11402486Y-8611174D01*
X11402486Y-8611174D02*
X11431058Y-8611174D01*
X11431058Y-8611174D02*
X11450105Y-8620698D01*
X11450105Y-8620698D02*
X11459629Y-8630222D01*
X11459629Y-8630222D02*
X11469153Y-8649270D01*
X11469153Y-8649270D02*
X11469153Y-8696889D01*
X11469153Y-8696889D02*
X11459629Y-8715936D01*
X11459629Y-8715936D02*
X11450105Y-8725460D01*
X11450105Y-8725460D02*
X11431058Y-8734984D01*
X11431058Y-8734984D02*
X11373915Y-8734984D01*
X11373915Y-8734984D02*
X11354867Y-8725460D01*
X11354867Y-8725460D02*
X11345343Y-8715936D01*
X11592962Y-8534984D02*
X11612010Y-8534984D01*
X11612010Y-8534984D02*
X11631058Y-8544508D01*
X11631058Y-8544508D02*
X11640582Y-8554031D01*
X11640582Y-8554031D02*
X11650105Y-8573079D01*
X11650105Y-8573079D02*
X11659629Y-8611174D01*
X11659629Y-8611174D02*
X11659629Y-8658793D01*
X11659629Y-8658793D02*
X11650105Y-8696889D01*
X11650105Y-8696889D02*
X11640582Y-8715936D01*
X11640582Y-8715936D02*
X11631058Y-8725460D01*
X11631058Y-8725460D02*
X11612010Y-8734984D01*
X11612010Y-8734984D02*
X11592962Y-8734984D01*
X11592962Y-8734984D02*
X11573915Y-8725460D01*
X11573915Y-8725460D02*
X11564391Y-8715936D01*
X11564391Y-8715936D02*
X11554867Y-8696889D01*
X11554867Y-8696889D02*
X11545343Y-8658793D01*
X11545343Y-8658793D02*
X11545343Y-8611174D01*
X11545343Y-8611174D02*
X11554867Y-8573079D01*
X11554867Y-8573079D02*
X11564391Y-8554031D01*
X11564391Y-8554031D02*
X11573915Y-8544508D01*
X11573915Y-8544508D02*
X11592962Y-8534984D01*
X11783439Y-8534984D02*
X11802486Y-8534984D01*
X11802486Y-8534984D02*
X11821534Y-8544508D01*
X11821534Y-8544508D02*
X11831058Y-8554031D01*
X11831058Y-8554031D02*
X11840582Y-8573079D01*
X11840582Y-8573079D02*
X11850105Y-8611174D01*
X11850105Y-8611174D02*
X11850105Y-8658793D01*
X11850105Y-8658793D02*
X11840582Y-8696889D01*
X11840582Y-8696889D02*
X11831058Y-8715936D01*
X11831058Y-8715936D02*
X11821534Y-8725460D01*
X11821534Y-8725460D02*
X11802486Y-8734984D01*
X11802486Y-8734984D02*
X11783439Y-8734984D01*
X11783439Y-8734984D02*
X11764391Y-8725460D01*
X11764391Y-8725460D02*
X11754867Y-8715936D01*
X11754867Y-8715936D02*
X11745343Y-8696889D01*
X11745343Y-8696889D02*
X11735820Y-8658793D01*
X11735820Y-8658793D02*
X11735820Y-8611174D01*
X11735820Y-8611174D02*
X11745343Y-8573079D01*
X11745343Y-8573079D02*
X11754867Y-8554031D01*
X11754867Y-8554031D02*
X11764391Y-8544508D01*
X11764391Y-8544508D02*
X11783439Y-8534984D01*
X11935820Y-8734984D02*
X11935820Y-8601650D01*
X11935820Y-8620698D02*
X11945343Y-8611174D01*
X11945343Y-8611174D02*
X11964391Y-8601650D01*
X11964391Y-8601650D02*
X11992963Y-8601650D01*
X11992963Y-8601650D02*
X12012010Y-8611174D01*
X12012010Y-8611174D02*
X12021534Y-8630222D01*
X12021534Y-8630222D02*
X12021534Y-8734984D01*
X12021534Y-8630222D02*
X12031058Y-8611174D01*
X12031058Y-8611174D02*
X12050105Y-8601650D01*
X12050105Y-8601650D02*
X12078677Y-8601650D01*
X12078677Y-8601650D02*
X12097724Y-8611174D01*
X12097724Y-8611174D02*
X12107248Y-8630222D01*
X12107248Y-8630222D02*
X12107248Y-8734984D01*
X12202486Y-8734984D02*
X12202486Y-8601650D01*
X12202486Y-8620698D02*
X12212010Y-8611174D01*
X12212010Y-8611174D02*
X12231058Y-8601650D01*
X12231058Y-8601650D02*
X12259629Y-8601650D01*
X12259629Y-8601650D02*
X12278677Y-8611174D01*
X12278677Y-8611174D02*
X12288201Y-8630222D01*
X12288201Y-8630222D02*
X12288201Y-8734984D01*
X12288201Y-8630222D02*
X12297724Y-8611174D01*
X12297724Y-8611174D02*
X12316772Y-8601650D01*
X12316772Y-8601650D02*
X12345343Y-8601650D01*
X12345343Y-8601650D02*
X12364391Y-8611174D01*
X12364391Y-8611174D02*
X12373915Y-8630222D01*
X12373915Y-8630222D02*
X12373915Y-8734984D01*
X12764391Y-8525460D02*
X12592963Y-8782603D01*
X13021534Y-8534984D02*
X13040582Y-8534984D01*
X13040582Y-8534984D02*
X13059629Y-8544508D01*
X13059629Y-8544508D02*
X13069153Y-8554031D01*
X13069153Y-8554031D02*
X13078677Y-8573079D01*
X13078677Y-8573079D02*
X13088201Y-8611174D01*
X13088201Y-8611174D02*
X13088201Y-8658793D01*
X13088201Y-8658793D02*
X13078677Y-8696889D01*
X13078677Y-8696889D02*
X13069153Y-8715936D01*
X13069153Y-8715936D02*
X13059629Y-8725460D01*
X13059629Y-8725460D02*
X13040582Y-8734984D01*
X13040582Y-8734984D02*
X13021534Y-8734984D01*
X13021534Y-8734984D02*
X13002486Y-8725460D01*
X13002486Y-8725460D02*
X12992963Y-8715936D01*
X12992963Y-8715936D02*
X12983439Y-8696889D01*
X12983439Y-8696889D02*
X12973915Y-8658793D01*
X12973915Y-8658793D02*
X12973915Y-8611174D01*
X12973915Y-8611174D02*
X12983439Y-8573079D01*
X12983439Y-8573079D02*
X12992963Y-8554031D01*
X12992963Y-8554031D02*
X13002486Y-8544508D01*
X13002486Y-8544508D02*
X13021534Y-8534984D01*
X13173915Y-8715936D02*
X13183439Y-8725460D01*
X13183439Y-8725460D02*
X13173915Y-8734984D01*
X13173915Y-8734984D02*
X13164391Y-8725460D01*
X13164391Y-8725460D02*
X13173915Y-8715936D01*
X13173915Y-8715936D02*
X13173915Y-8734984D01*
X13307248Y-8534984D02*
X13326296Y-8534984D01*
X13326296Y-8534984D02*
X13345344Y-8544508D01*
X13345344Y-8544508D02*
X13354867Y-8554031D01*
X13354867Y-8554031D02*
X13364391Y-8573079D01*
X13364391Y-8573079D02*
X13373915Y-8611174D01*
X13373915Y-8611174D02*
X13373915Y-8658793D01*
X13373915Y-8658793D02*
X13364391Y-8696889D01*
X13364391Y-8696889D02*
X13354867Y-8715936D01*
X13354867Y-8715936D02*
X13345344Y-8725460D01*
X13345344Y-8725460D02*
X13326296Y-8734984D01*
X13326296Y-8734984D02*
X13307248Y-8734984D01*
X13307248Y-8734984D02*
X13288201Y-8725460D01*
X13288201Y-8725460D02*
X13278677Y-8715936D01*
X13278677Y-8715936D02*
X13269153Y-8696889D01*
X13269153Y-8696889D02*
X13259629Y-8658793D01*
X13259629Y-8658793D02*
X13259629Y-8611174D01*
X13259629Y-8611174D02*
X13269153Y-8573079D01*
X13269153Y-8573079D02*
X13278677Y-8554031D01*
X13278677Y-8554031D02*
X13288201Y-8544508D01*
X13288201Y-8544508D02*
X13307248Y-8534984D01*
X13564391Y-8734984D02*
X13450106Y-8734984D01*
X13507248Y-8734984D02*
X13507248Y-8534984D01*
X13507248Y-8534984D02*
X13488201Y-8563555D01*
X13488201Y-8563555D02*
X13469153Y-8582603D01*
X13469153Y-8582603D02*
X13450106Y-8592127D01*
X13754867Y-8734984D02*
X13640582Y-8734984D01*
X13697725Y-8734984D02*
X13697725Y-8534984D01*
X13697725Y-8534984D02*
X13678677Y-8563555D01*
X13678677Y-8563555D02*
X13659629Y-8582603D01*
X13659629Y-8582603D02*
X13640582Y-8592127D01*
X13869153Y-8620698D02*
X13850106Y-8611174D01*
X13850106Y-8611174D02*
X13840582Y-8601650D01*
X13840582Y-8601650D02*
X13831058Y-8582603D01*
X13831058Y-8582603D02*
X13831058Y-8573079D01*
X13831058Y-8573079D02*
X13840582Y-8554031D01*
X13840582Y-8554031D02*
X13850106Y-8544508D01*
X13850106Y-8544508D02*
X13869153Y-8534984D01*
X13869153Y-8534984D02*
X13907248Y-8534984D01*
X13907248Y-8534984D02*
X13926296Y-8544508D01*
X13926296Y-8544508D02*
X13935820Y-8554031D01*
X13935820Y-8554031D02*
X13945344Y-8573079D01*
X13945344Y-8573079D02*
X13945344Y-8582603D01*
X13945344Y-8582603D02*
X13935820Y-8601650D01*
X13935820Y-8601650D02*
X13926296Y-8611174D01*
X13926296Y-8611174D02*
X13907248Y-8620698D01*
X13907248Y-8620698D02*
X13869153Y-8620698D01*
X13869153Y-8620698D02*
X13850106Y-8630222D01*
X13850106Y-8630222D02*
X13840582Y-8639746D01*
X13840582Y-8639746D02*
X13831058Y-8658793D01*
X13831058Y-8658793D02*
X13831058Y-8696889D01*
X13831058Y-8696889D02*
X13840582Y-8715936D01*
X13840582Y-8715936D02*
X13850106Y-8725460D01*
X13850106Y-8725460D02*
X13869153Y-8734984D01*
X13869153Y-8734984D02*
X13907248Y-8734984D01*
X13907248Y-8734984D02*
X13926296Y-8725460D01*
X13926296Y-8725460D02*
X13935820Y-8715936D01*
X13935820Y-8715936D02*
X13945344Y-8696889D01*
X13945344Y-8696889D02*
X13945344Y-8658793D01*
X13945344Y-8658793D02*
X13935820Y-8639746D01*
X13935820Y-8639746D02*
X13926296Y-8630222D01*
X13926296Y-8630222D02*
X13907248Y-8620698D01*
X14021534Y-8534984D02*
X14021534Y-8573079D01*
X14097725Y-8534984D02*
X14097725Y-8573079D01*
X14392963Y-8811174D02*
X14383439Y-8801650D01*
X14383439Y-8801650D02*
X14364391Y-8773079D01*
X14364391Y-8773079D02*
X14354868Y-8754031D01*
X14354868Y-8754031D02*
X14345344Y-8725460D01*
X14345344Y-8725460D02*
X14335820Y-8677841D01*
X14335820Y-8677841D02*
X14335820Y-8639746D01*
X14335820Y-8639746D02*
X14345344Y-8592127D01*
X14345344Y-8592127D02*
X14354868Y-8563555D01*
X14354868Y-8563555D02*
X14364391Y-8544508D01*
X14364391Y-8544508D02*
X14383439Y-8515936D01*
X14383439Y-8515936D02*
X14392963Y-8506412D01*
X14450106Y-8534984D02*
X14573915Y-8534984D01*
X14573915Y-8534984D02*
X14507248Y-8611174D01*
X14507248Y-8611174D02*
X14535820Y-8611174D01*
X14535820Y-8611174D02*
X14554868Y-8620698D01*
X14554868Y-8620698D02*
X14564391Y-8630222D01*
X14564391Y-8630222D02*
X14573915Y-8649270D01*
X14573915Y-8649270D02*
X14573915Y-8696889D01*
X14573915Y-8696889D02*
X14564391Y-8715936D01*
X14564391Y-8715936D02*
X14554868Y-8725460D01*
X14554868Y-8725460D02*
X14535820Y-8734984D01*
X14535820Y-8734984D02*
X14478677Y-8734984D01*
X14478677Y-8734984D02*
X14459629Y-8725460D01*
X14459629Y-8725460D02*
X14450106Y-8715936D01*
X14669153Y-8734984D02*
X14707248Y-8734984D01*
X14707248Y-8734984D02*
X14726296Y-8725460D01*
X14726296Y-8725460D02*
X14735820Y-8715936D01*
X14735820Y-8715936D02*
X14754868Y-8687365D01*
X14754868Y-8687365D02*
X14764391Y-8649270D01*
X14764391Y-8649270D02*
X14764391Y-8573079D01*
X14764391Y-8573079D02*
X14754868Y-8554031D01*
X14754868Y-8554031D02*
X14745344Y-8544508D01*
X14745344Y-8544508D02*
X14726296Y-8534984D01*
X14726296Y-8534984D02*
X14688201Y-8534984D01*
X14688201Y-8534984D02*
X14669153Y-8544508D01*
X14669153Y-8544508D02*
X14659629Y-8554031D01*
X14659629Y-8554031D02*
X14650106Y-8573079D01*
X14650106Y-8573079D02*
X14650106Y-8620698D01*
X14650106Y-8620698D02*
X14659629Y-8639746D01*
X14659629Y-8639746D02*
X14669153Y-8649270D01*
X14669153Y-8649270D02*
X14688201Y-8658793D01*
X14688201Y-8658793D02*
X14726296Y-8658793D01*
X14726296Y-8658793D02*
X14745344Y-8649270D01*
X14745344Y-8649270D02*
X14754868Y-8639746D01*
X14754868Y-8639746D02*
X14764391Y-8620698D01*
X15002487Y-8734984D02*
X15002487Y-8534984D01*
X15088201Y-8734984D02*
X15088201Y-8630222D01*
X15088201Y-8630222D02*
X15078677Y-8611174D01*
X15078677Y-8611174D02*
X15059630Y-8601650D01*
X15059630Y-8601650D02*
X15031058Y-8601650D01*
X15031058Y-8601650D02*
X15012010Y-8611174D01*
X15012010Y-8611174D02*
X15002487Y-8620698D01*
X15212010Y-8734984D02*
X15192963Y-8725460D01*
X15192963Y-8725460D02*
X15183439Y-8715936D01*
X15183439Y-8715936D02*
X15173915Y-8696889D01*
X15173915Y-8696889D02*
X15173915Y-8639746D01*
X15173915Y-8639746D02*
X15183439Y-8620698D01*
X15183439Y-8620698D02*
X15192963Y-8611174D01*
X15192963Y-8611174D02*
X15212010Y-8601650D01*
X15212010Y-8601650D02*
X15240582Y-8601650D01*
X15240582Y-8601650D02*
X15259630Y-8611174D01*
X15259630Y-8611174D02*
X15269153Y-8620698D01*
X15269153Y-8620698D02*
X15278677Y-8639746D01*
X15278677Y-8639746D02*
X15278677Y-8696889D01*
X15278677Y-8696889D02*
X15269153Y-8715936D01*
X15269153Y-8715936D02*
X15259630Y-8725460D01*
X15259630Y-8725460D02*
X15240582Y-8734984D01*
X15240582Y-8734984D02*
X15212010Y-8734984D01*
X15392963Y-8734984D02*
X15373915Y-8725460D01*
X15373915Y-8725460D02*
X15364391Y-8706412D01*
X15364391Y-8706412D02*
X15364391Y-8534984D01*
X15545344Y-8725460D02*
X15526296Y-8734984D01*
X15526296Y-8734984D02*
X15488201Y-8734984D01*
X15488201Y-8734984D02*
X15469153Y-8725460D01*
X15469153Y-8725460D02*
X15459630Y-8706412D01*
X15459630Y-8706412D02*
X15459630Y-8630222D01*
X15459630Y-8630222D02*
X15469153Y-8611174D01*
X15469153Y-8611174D02*
X15488201Y-8601650D01*
X15488201Y-8601650D02*
X15526296Y-8601650D01*
X15526296Y-8601650D02*
X15545344Y-8611174D01*
X15545344Y-8611174D02*
X15554868Y-8630222D01*
X15554868Y-8630222D02*
X15554868Y-8649270D01*
X15554868Y-8649270D02*
X15459630Y-8668317D01*
X15631058Y-8725460D02*
X15650106Y-8734984D01*
X15650106Y-8734984D02*
X15688201Y-8734984D01*
X15688201Y-8734984D02*
X15707249Y-8725460D01*
X15707249Y-8725460D02*
X15716772Y-8706412D01*
X15716772Y-8706412D02*
X15716772Y-8696889D01*
X15716772Y-8696889D02*
X15707249Y-8677841D01*
X15707249Y-8677841D02*
X15688201Y-8668317D01*
X15688201Y-8668317D02*
X15659630Y-8668317D01*
X15659630Y-8668317D02*
X15640582Y-8658793D01*
X15640582Y-8658793D02*
X15631058Y-8639746D01*
X15631058Y-8639746D02*
X15631058Y-8630222D01*
X15631058Y-8630222D02*
X15640582Y-8611174D01*
X15640582Y-8611174D02*
X15659630Y-8601650D01*
X15659630Y-8601650D02*
X15688201Y-8601650D01*
X15688201Y-8601650D02*
X15707249Y-8611174D01*
X15783439Y-8811174D02*
X15792963Y-8801650D01*
X15792963Y-8801650D02*
X15812011Y-8773079D01*
X15812011Y-8773079D02*
X15821534Y-8754031D01*
X15821534Y-8754031D02*
X15831058Y-8725460D01*
X15831058Y-8725460D02*
X15840582Y-8677841D01*
X15840582Y-8677841D02*
X15840582Y-8639746D01*
X15840582Y-8639746D02*
X15831058Y-8592127D01*
X15831058Y-8592127D02*
X15821534Y-8563555D01*
X15821534Y-8563555D02*
X15812011Y-8544508D01*
X15812011Y-8544508D02*
X15792963Y-8515936D01*
X15792963Y-8515936D02*
X15783439Y-8506412D01*
D12*
X10817900Y-8907500D02*
G75*
G02*
X10767900Y-8907500I-25000J0D01*
G01*
X10767900Y-8907500D02*
G75*
G02*
X10817900Y-8907500I25000J0D01*
G01*
D11*
X11116772Y-8798984D02*
X11135820Y-8798984D01*
X11135820Y-8798984D02*
X11154867Y-8808508D01*
X11154867Y-8808508D02*
X11164391Y-8818031D01*
X11164391Y-8818031D02*
X11173915Y-8837079D01*
X11173915Y-8837079D02*
X11183439Y-8875174D01*
X11183439Y-8875174D02*
X11183439Y-8922793D01*
X11183439Y-8922793D02*
X11173915Y-8960889D01*
X11173915Y-8960889D02*
X11164391Y-8979936D01*
X11164391Y-8979936D02*
X11154867Y-8989460D01*
X11154867Y-8989460D02*
X11135820Y-8998984D01*
X11135820Y-8998984D02*
X11116772Y-8998984D01*
X11116772Y-8998984D02*
X11097724Y-8989460D01*
X11097724Y-8989460D02*
X11088201Y-8979936D01*
X11088201Y-8979936D02*
X11078677Y-8960889D01*
X11078677Y-8960889D02*
X11069153Y-8922793D01*
X11069153Y-8922793D02*
X11069153Y-8875174D01*
X11069153Y-8875174D02*
X11078677Y-8837079D01*
X11078677Y-8837079D02*
X11088201Y-8818031D01*
X11088201Y-8818031D02*
X11097724Y-8808508D01*
X11097724Y-8808508D02*
X11116772Y-8798984D01*
X11269153Y-8979936D02*
X11278677Y-8989460D01*
X11278677Y-8989460D02*
X11269153Y-8998984D01*
X11269153Y-8998984D02*
X11259629Y-8989460D01*
X11259629Y-8989460D02*
X11269153Y-8979936D01*
X11269153Y-8979936D02*
X11269153Y-8998984D01*
X11459629Y-8798984D02*
X11364391Y-8798984D01*
X11364391Y-8798984D02*
X11354867Y-8894222D01*
X11354867Y-8894222D02*
X11364391Y-8884698D01*
X11364391Y-8884698D02*
X11383439Y-8875174D01*
X11383439Y-8875174D02*
X11431058Y-8875174D01*
X11431058Y-8875174D02*
X11450105Y-8884698D01*
X11450105Y-8884698D02*
X11459629Y-8894222D01*
X11459629Y-8894222D02*
X11469153Y-8913270D01*
X11469153Y-8913270D02*
X11469153Y-8960889D01*
X11469153Y-8960889D02*
X11459629Y-8979936D01*
X11459629Y-8979936D02*
X11450105Y-8989460D01*
X11450105Y-8989460D02*
X11431058Y-8998984D01*
X11431058Y-8998984D02*
X11383439Y-8998984D01*
X11383439Y-8998984D02*
X11364391Y-8989460D01*
X11364391Y-8989460D02*
X11354867Y-8979936D01*
X11592962Y-8798984D02*
X11612010Y-8798984D01*
X11612010Y-8798984D02*
X11631058Y-8808508D01*
X11631058Y-8808508D02*
X11640582Y-8818031D01*
X11640582Y-8818031D02*
X11650105Y-8837079D01*
X11650105Y-8837079D02*
X11659629Y-8875174D01*
X11659629Y-8875174D02*
X11659629Y-8922793D01*
X11659629Y-8922793D02*
X11650105Y-8960889D01*
X11650105Y-8960889D02*
X11640582Y-8979936D01*
X11640582Y-8979936D02*
X11631058Y-8989460D01*
X11631058Y-8989460D02*
X11612010Y-8998984D01*
X11612010Y-8998984D02*
X11592962Y-8998984D01*
X11592962Y-8998984D02*
X11573915Y-8989460D01*
X11573915Y-8989460D02*
X11564391Y-8979936D01*
X11564391Y-8979936D02*
X11554867Y-8960889D01*
X11554867Y-8960889D02*
X11545343Y-8922793D01*
X11545343Y-8922793D02*
X11545343Y-8875174D01*
X11545343Y-8875174D02*
X11554867Y-8837079D01*
X11554867Y-8837079D02*
X11564391Y-8818031D01*
X11564391Y-8818031D02*
X11573915Y-8808508D01*
X11573915Y-8808508D02*
X11592962Y-8798984D01*
X11783439Y-8798984D02*
X11802486Y-8798984D01*
X11802486Y-8798984D02*
X11821534Y-8808508D01*
X11821534Y-8808508D02*
X11831058Y-8818031D01*
X11831058Y-8818031D02*
X11840582Y-8837079D01*
X11840582Y-8837079D02*
X11850105Y-8875174D01*
X11850105Y-8875174D02*
X11850105Y-8922793D01*
X11850105Y-8922793D02*
X11840582Y-8960889D01*
X11840582Y-8960889D02*
X11831058Y-8979936D01*
X11831058Y-8979936D02*
X11821534Y-8989460D01*
X11821534Y-8989460D02*
X11802486Y-8998984D01*
X11802486Y-8998984D02*
X11783439Y-8998984D01*
X11783439Y-8998984D02*
X11764391Y-8989460D01*
X11764391Y-8989460D02*
X11754867Y-8979936D01*
X11754867Y-8979936D02*
X11745343Y-8960889D01*
X11745343Y-8960889D02*
X11735820Y-8922793D01*
X11735820Y-8922793D02*
X11735820Y-8875174D01*
X11735820Y-8875174D02*
X11745343Y-8837079D01*
X11745343Y-8837079D02*
X11754867Y-8818031D01*
X11754867Y-8818031D02*
X11764391Y-8808508D01*
X11764391Y-8808508D02*
X11783439Y-8798984D01*
X11935820Y-8998984D02*
X11935820Y-8865650D01*
X11935820Y-8884698D02*
X11945343Y-8875174D01*
X11945343Y-8875174D02*
X11964391Y-8865650D01*
X11964391Y-8865650D02*
X11992963Y-8865650D01*
X11992963Y-8865650D02*
X12012010Y-8875174D01*
X12012010Y-8875174D02*
X12021534Y-8894222D01*
X12021534Y-8894222D02*
X12021534Y-8998984D01*
X12021534Y-8894222D02*
X12031058Y-8875174D01*
X12031058Y-8875174D02*
X12050105Y-8865650D01*
X12050105Y-8865650D02*
X12078677Y-8865650D01*
X12078677Y-8865650D02*
X12097724Y-8875174D01*
X12097724Y-8875174D02*
X12107248Y-8894222D01*
X12107248Y-8894222D02*
X12107248Y-8998984D01*
X12202486Y-8998984D02*
X12202486Y-8865650D01*
X12202486Y-8884698D02*
X12212010Y-8875174D01*
X12212010Y-8875174D02*
X12231058Y-8865650D01*
X12231058Y-8865650D02*
X12259629Y-8865650D01*
X12259629Y-8865650D02*
X12278677Y-8875174D01*
X12278677Y-8875174D02*
X12288201Y-8894222D01*
X12288201Y-8894222D02*
X12288201Y-8998984D01*
X12288201Y-8894222D02*
X12297724Y-8875174D01*
X12297724Y-8875174D02*
X12316772Y-8865650D01*
X12316772Y-8865650D02*
X12345343Y-8865650D01*
X12345343Y-8865650D02*
X12364391Y-8875174D01*
X12364391Y-8875174D02*
X12373915Y-8894222D01*
X12373915Y-8894222D02*
X12373915Y-8998984D01*
X12764391Y-8789460D02*
X12592963Y-9046603D01*
X13021534Y-8798984D02*
X13040582Y-8798984D01*
X13040582Y-8798984D02*
X13059629Y-8808508D01*
X13059629Y-8808508D02*
X13069153Y-8818031D01*
X13069153Y-8818031D02*
X13078677Y-8837079D01*
X13078677Y-8837079D02*
X13088201Y-8875174D01*
X13088201Y-8875174D02*
X13088201Y-8922793D01*
X13088201Y-8922793D02*
X13078677Y-8960889D01*
X13078677Y-8960889D02*
X13069153Y-8979936D01*
X13069153Y-8979936D02*
X13059629Y-8989460D01*
X13059629Y-8989460D02*
X13040582Y-8998984D01*
X13040582Y-8998984D02*
X13021534Y-8998984D01*
X13021534Y-8998984D02*
X13002486Y-8989460D01*
X13002486Y-8989460D02*
X12992963Y-8979936D01*
X12992963Y-8979936D02*
X12983439Y-8960889D01*
X12983439Y-8960889D02*
X12973915Y-8922793D01*
X12973915Y-8922793D02*
X12973915Y-8875174D01*
X12973915Y-8875174D02*
X12983439Y-8837079D01*
X12983439Y-8837079D02*
X12992963Y-8818031D01*
X12992963Y-8818031D02*
X13002486Y-8808508D01*
X13002486Y-8808508D02*
X13021534Y-8798984D01*
X13173915Y-8979936D02*
X13183439Y-8989460D01*
X13183439Y-8989460D02*
X13173915Y-8998984D01*
X13173915Y-8998984D02*
X13164391Y-8989460D01*
X13164391Y-8989460D02*
X13173915Y-8979936D01*
X13173915Y-8979936D02*
X13173915Y-8998984D01*
X13307248Y-8798984D02*
X13326296Y-8798984D01*
X13326296Y-8798984D02*
X13345344Y-8808508D01*
X13345344Y-8808508D02*
X13354867Y-8818031D01*
X13354867Y-8818031D02*
X13364391Y-8837079D01*
X13364391Y-8837079D02*
X13373915Y-8875174D01*
X13373915Y-8875174D02*
X13373915Y-8922793D01*
X13373915Y-8922793D02*
X13364391Y-8960889D01*
X13364391Y-8960889D02*
X13354867Y-8979936D01*
X13354867Y-8979936D02*
X13345344Y-8989460D01*
X13345344Y-8989460D02*
X13326296Y-8998984D01*
X13326296Y-8998984D02*
X13307248Y-8998984D01*
X13307248Y-8998984D02*
X13288201Y-8989460D01*
X13288201Y-8989460D02*
X13278677Y-8979936D01*
X13278677Y-8979936D02*
X13269153Y-8960889D01*
X13269153Y-8960889D02*
X13259629Y-8922793D01*
X13259629Y-8922793D02*
X13259629Y-8875174D01*
X13259629Y-8875174D02*
X13269153Y-8837079D01*
X13269153Y-8837079D02*
X13278677Y-8818031D01*
X13278677Y-8818031D02*
X13288201Y-8808508D01*
X13288201Y-8808508D02*
X13307248Y-8798984D01*
X13564391Y-8998984D02*
X13450106Y-8998984D01*
X13507248Y-8998984D02*
X13507248Y-8798984D01*
X13507248Y-8798984D02*
X13488201Y-8827555D01*
X13488201Y-8827555D02*
X13469153Y-8846603D01*
X13469153Y-8846603D02*
X13450106Y-8856127D01*
X13659629Y-8998984D02*
X13697725Y-8998984D01*
X13697725Y-8998984D02*
X13716772Y-8989460D01*
X13716772Y-8989460D02*
X13726296Y-8979936D01*
X13726296Y-8979936D02*
X13745344Y-8951365D01*
X13745344Y-8951365D02*
X13754867Y-8913270D01*
X13754867Y-8913270D02*
X13754867Y-8837079D01*
X13754867Y-8837079D02*
X13745344Y-8818031D01*
X13745344Y-8818031D02*
X13735820Y-8808508D01*
X13735820Y-8808508D02*
X13716772Y-8798984D01*
X13716772Y-8798984D02*
X13678677Y-8798984D01*
X13678677Y-8798984D02*
X13659629Y-8808508D01*
X13659629Y-8808508D02*
X13650106Y-8818031D01*
X13650106Y-8818031D02*
X13640582Y-8837079D01*
X13640582Y-8837079D02*
X13640582Y-8884698D01*
X13640582Y-8884698D02*
X13650106Y-8903746D01*
X13650106Y-8903746D02*
X13659629Y-8913270D01*
X13659629Y-8913270D02*
X13678677Y-8922793D01*
X13678677Y-8922793D02*
X13716772Y-8922793D01*
X13716772Y-8922793D02*
X13735820Y-8913270D01*
X13735820Y-8913270D02*
X13745344Y-8903746D01*
X13745344Y-8903746D02*
X13754867Y-8884698D01*
X13821534Y-8798984D02*
X13954867Y-8798984D01*
X13954867Y-8798984D02*
X13869153Y-8998984D01*
X14021534Y-8798984D02*
X14021534Y-8837079D01*
X14097725Y-8798984D02*
X14097725Y-8837079D01*
X14392963Y-9075174D02*
X14383439Y-9065650D01*
X14383439Y-9065650D02*
X14364391Y-9037079D01*
X14364391Y-9037079D02*
X14354868Y-9018031D01*
X14354868Y-9018031D02*
X14345344Y-8989460D01*
X14345344Y-8989460D02*
X14335820Y-8941841D01*
X14335820Y-8941841D02*
X14335820Y-8903746D01*
X14335820Y-8903746D02*
X14345344Y-8856127D01*
X14345344Y-8856127D02*
X14354868Y-8827555D01*
X14354868Y-8827555D02*
X14364391Y-8808508D01*
X14364391Y-8808508D02*
X14383439Y-8779936D01*
X14383439Y-8779936D02*
X14392963Y-8770412D01*
X14573915Y-8998984D02*
X14459629Y-8998984D01*
X14516772Y-8998984D02*
X14516772Y-8798984D01*
X14516772Y-8798984D02*
X14497725Y-8827555D01*
X14497725Y-8827555D02*
X14478677Y-8846603D01*
X14478677Y-8846603D02*
X14459629Y-8856127D01*
X14745344Y-8798984D02*
X14707248Y-8798984D01*
X14707248Y-8798984D02*
X14688201Y-8808508D01*
X14688201Y-8808508D02*
X14678677Y-8818031D01*
X14678677Y-8818031D02*
X14659629Y-8846603D01*
X14659629Y-8846603D02*
X14650106Y-8884698D01*
X14650106Y-8884698D02*
X14650106Y-8960889D01*
X14650106Y-8960889D02*
X14659629Y-8979936D01*
X14659629Y-8979936D02*
X14669153Y-8989460D01*
X14669153Y-8989460D02*
X14688201Y-8998984D01*
X14688201Y-8998984D02*
X14726296Y-8998984D01*
X14726296Y-8998984D02*
X14745344Y-8989460D01*
X14745344Y-8989460D02*
X14754868Y-8979936D01*
X14754868Y-8979936D02*
X14764391Y-8960889D01*
X14764391Y-8960889D02*
X14764391Y-8913270D01*
X14764391Y-8913270D02*
X14754868Y-8894222D01*
X14754868Y-8894222D02*
X14745344Y-8884698D01*
X14745344Y-8884698D02*
X14726296Y-8875174D01*
X14726296Y-8875174D02*
X14688201Y-8875174D01*
X14688201Y-8875174D02*
X14669153Y-8884698D01*
X14669153Y-8884698D02*
X14659629Y-8894222D01*
X14659629Y-8894222D02*
X14650106Y-8913270D01*
X15002487Y-8998984D02*
X15002487Y-8798984D01*
X15088201Y-8998984D02*
X15088201Y-8894222D01*
X15088201Y-8894222D02*
X15078677Y-8875174D01*
X15078677Y-8875174D02*
X15059630Y-8865650D01*
X15059630Y-8865650D02*
X15031058Y-8865650D01*
X15031058Y-8865650D02*
X15012010Y-8875174D01*
X15012010Y-8875174D02*
X15002487Y-8884698D01*
X15212010Y-8998984D02*
X15192963Y-8989460D01*
X15192963Y-8989460D02*
X15183439Y-8979936D01*
X15183439Y-8979936D02*
X15173915Y-8960889D01*
X15173915Y-8960889D02*
X15173915Y-8903746D01*
X15173915Y-8903746D02*
X15183439Y-8884698D01*
X15183439Y-8884698D02*
X15192963Y-8875174D01*
X15192963Y-8875174D02*
X15212010Y-8865650D01*
X15212010Y-8865650D02*
X15240582Y-8865650D01*
X15240582Y-8865650D02*
X15259630Y-8875174D01*
X15259630Y-8875174D02*
X15269153Y-8884698D01*
X15269153Y-8884698D02*
X15278677Y-8903746D01*
X15278677Y-8903746D02*
X15278677Y-8960889D01*
X15278677Y-8960889D02*
X15269153Y-8979936D01*
X15269153Y-8979936D02*
X15259630Y-8989460D01*
X15259630Y-8989460D02*
X15240582Y-8998984D01*
X15240582Y-8998984D02*
X15212010Y-8998984D01*
X15392963Y-8998984D02*
X15373915Y-8989460D01*
X15373915Y-8989460D02*
X15364391Y-8970412D01*
X15364391Y-8970412D02*
X15364391Y-8798984D01*
X15545344Y-8989460D02*
X15526296Y-8998984D01*
X15526296Y-8998984D02*
X15488201Y-8998984D01*
X15488201Y-8998984D02*
X15469153Y-8989460D01*
X15469153Y-8989460D02*
X15459630Y-8970412D01*
X15459630Y-8970412D02*
X15459630Y-8894222D01*
X15459630Y-8894222D02*
X15469153Y-8875174D01*
X15469153Y-8875174D02*
X15488201Y-8865650D01*
X15488201Y-8865650D02*
X15526296Y-8865650D01*
X15526296Y-8865650D02*
X15545344Y-8875174D01*
X15545344Y-8875174D02*
X15554868Y-8894222D01*
X15554868Y-8894222D02*
X15554868Y-8913270D01*
X15554868Y-8913270D02*
X15459630Y-8932317D01*
X15631058Y-8989460D02*
X15650106Y-8998984D01*
X15650106Y-8998984D02*
X15688201Y-8998984D01*
X15688201Y-8998984D02*
X15707249Y-8989460D01*
X15707249Y-8989460D02*
X15716772Y-8970412D01*
X15716772Y-8970412D02*
X15716772Y-8960889D01*
X15716772Y-8960889D02*
X15707249Y-8941841D01*
X15707249Y-8941841D02*
X15688201Y-8932317D01*
X15688201Y-8932317D02*
X15659630Y-8932317D01*
X15659630Y-8932317D02*
X15640582Y-8922793D01*
X15640582Y-8922793D02*
X15631058Y-8903746D01*
X15631058Y-8903746D02*
X15631058Y-8894222D01*
X15631058Y-8894222D02*
X15640582Y-8875174D01*
X15640582Y-8875174D02*
X15659630Y-8865650D01*
X15659630Y-8865650D02*
X15688201Y-8865650D01*
X15688201Y-8865650D02*
X15707249Y-8875174D01*
X15783439Y-9075174D02*
X15792963Y-9065650D01*
X15792963Y-9065650D02*
X15812011Y-9037079D01*
X15812011Y-9037079D02*
X15821534Y-9018031D01*
X15821534Y-9018031D02*
X15831058Y-8989460D01*
X15831058Y-8989460D02*
X15840582Y-8941841D01*
X15840582Y-8941841D02*
X15840582Y-8903746D01*
X15840582Y-8903746D02*
X15831058Y-8856127D01*
X15831058Y-8856127D02*
X15821534Y-8827555D01*
X15821534Y-8827555D02*
X15812011Y-8808508D01*
X15812011Y-8808508D02*
X15792963Y-8779936D01*
X15792963Y-8779936D02*
X15783439Y-8770412D01*
D12*
X10789960Y-9143560D02*
X10789960Y-9199440D01*
X10762020Y-9171500D02*
X10817900Y-9171500D01*
D11*
X11116772Y-9062984D02*
X11135820Y-9062984D01*
X11135820Y-9062984D02*
X11154867Y-9072508D01*
X11154867Y-9072508D02*
X11164391Y-9082031D01*
X11164391Y-9082031D02*
X11173915Y-9101079D01*
X11173915Y-9101079D02*
X11183439Y-9139174D01*
X11183439Y-9139174D02*
X11183439Y-9186793D01*
X11183439Y-9186793D02*
X11173915Y-9224889D01*
X11173915Y-9224889D02*
X11164391Y-9243936D01*
X11164391Y-9243936D02*
X11154867Y-9253460D01*
X11154867Y-9253460D02*
X11135820Y-9262984D01*
X11135820Y-9262984D02*
X11116772Y-9262984D01*
X11116772Y-9262984D02*
X11097724Y-9253460D01*
X11097724Y-9253460D02*
X11088201Y-9243936D01*
X11088201Y-9243936D02*
X11078677Y-9224889D01*
X11078677Y-9224889D02*
X11069153Y-9186793D01*
X11069153Y-9186793D02*
X11069153Y-9139174D01*
X11069153Y-9139174D02*
X11078677Y-9101079D01*
X11078677Y-9101079D02*
X11088201Y-9082031D01*
X11088201Y-9082031D02*
X11097724Y-9072508D01*
X11097724Y-9072508D02*
X11116772Y-9062984D01*
X11269153Y-9243936D02*
X11278677Y-9253460D01*
X11278677Y-9253460D02*
X11269153Y-9262984D01*
X11269153Y-9262984D02*
X11259629Y-9253460D01*
X11259629Y-9253460D02*
X11269153Y-9243936D01*
X11269153Y-9243936D02*
X11269153Y-9262984D01*
X11459629Y-9062984D02*
X11364391Y-9062984D01*
X11364391Y-9062984D02*
X11354867Y-9158222D01*
X11354867Y-9158222D02*
X11364391Y-9148698D01*
X11364391Y-9148698D02*
X11383439Y-9139174D01*
X11383439Y-9139174D02*
X11431058Y-9139174D01*
X11431058Y-9139174D02*
X11450105Y-9148698D01*
X11450105Y-9148698D02*
X11459629Y-9158222D01*
X11459629Y-9158222D02*
X11469153Y-9177270D01*
X11469153Y-9177270D02*
X11469153Y-9224889D01*
X11469153Y-9224889D02*
X11459629Y-9243936D01*
X11459629Y-9243936D02*
X11450105Y-9253460D01*
X11450105Y-9253460D02*
X11431058Y-9262984D01*
X11431058Y-9262984D02*
X11383439Y-9262984D01*
X11383439Y-9262984D02*
X11364391Y-9253460D01*
X11364391Y-9253460D02*
X11354867Y-9243936D01*
X11650105Y-9062984D02*
X11554867Y-9062984D01*
X11554867Y-9062984D02*
X11545343Y-9158222D01*
X11545343Y-9158222D02*
X11554867Y-9148698D01*
X11554867Y-9148698D02*
X11573915Y-9139174D01*
X11573915Y-9139174D02*
X11621534Y-9139174D01*
X11621534Y-9139174D02*
X11640582Y-9148698D01*
X11640582Y-9148698D02*
X11650105Y-9158222D01*
X11650105Y-9158222D02*
X11659629Y-9177270D01*
X11659629Y-9177270D02*
X11659629Y-9224889D01*
X11659629Y-9224889D02*
X11650105Y-9243936D01*
X11650105Y-9243936D02*
X11640582Y-9253460D01*
X11640582Y-9253460D02*
X11621534Y-9262984D01*
X11621534Y-9262984D02*
X11573915Y-9262984D01*
X11573915Y-9262984D02*
X11554867Y-9253460D01*
X11554867Y-9253460D02*
X11545343Y-9243936D01*
X11754867Y-9262984D02*
X11792962Y-9262984D01*
X11792962Y-9262984D02*
X11812010Y-9253460D01*
X11812010Y-9253460D02*
X11821534Y-9243936D01*
X11821534Y-9243936D02*
X11840582Y-9215365D01*
X11840582Y-9215365D02*
X11850105Y-9177270D01*
X11850105Y-9177270D02*
X11850105Y-9101079D01*
X11850105Y-9101079D02*
X11840582Y-9082031D01*
X11840582Y-9082031D02*
X11831058Y-9072508D01*
X11831058Y-9072508D02*
X11812010Y-9062984D01*
X11812010Y-9062984D02*
X11773915Y-9062984D01*
X11773915Y-9062984D02*
X11754867Y-9072508D01*
X11754867Y-9072508D02*
X11745343Y-9082031D01*
X11745343Y-9082031D02*
X11735820Y-9101079D01*
X11735820Y-9101079D02*
X11735820Y-9148698D01*
X11735820Y-9148698D02*
X11745343Y-9167746D01*
X11745343Y-9167746D02*
X11754867Y-9177270D01*
X11754867Y-9177270D02*
X11773915Y-9186793D01*
X11773915Y-9186793D02*
X11812010Y-9186793D01*
X11812010Y-9186793D02*
X11831058Y-9177270D01*
X11831058Y-9177270D02*
X11840582Y-9167746D01*
X11840582Y-9167746D02*
X11850105Y-9148698D01*
X11935820Y-9262984D02*
X11935820Y-9129650D01*
X11935820Y-9148698D02*
X11945343Y-9139174D01*
X11945343Y-9139174D02*
X11964391Y-9129650D01*
X11964391Y-9129650D02*
X11992963Y-9129650D01*
X11992963Y-9129650D02*
X12012010Y-9139174D01*
X12012010Y-9139174D02*
X12021534Y-9158222D01*
X12021534Y-9158222D02*
X12021534Y-9262984D01*
X12021534Y-9158222D02*
X12031058Y-9139174D01*
X12031058Y-9139174D02*
X12050105Y-9129650D01*
X12050105Y-9129650D02*
X12078677Y-9129650D01*
X12078677Y-9129650D02*
X12097724Y-9139174D01*
X12097724Y-9139174D02*
X12107248Y-9158222D01*
X12107248Y-9158222D02*
X12107248Y-9262984D01*
X12202486Y-9262984D02*
X12202486Y-9129650D01*
X12202486Y-9148698D02*
X12212010Y-9139174D01*
X12212010Y-9139174D02*
X12231058Y-9129650D01*
X12231058Y-9129650D02*
X12259629Y-9129650D01*
X12259629Y-9129650D02*
X12278677Y-9139174D01*
X12278677Y-9139174D02*
X12288201Y-9158222D01*
X12288201Y-9158222D02*
X12288201Y-9262984D01*
X12288201Y-9158222D02*
X12297724Y-9139174D01*
X12297724Y-9139174D02*
X12316772Y-9129650D01*
X12316772Y-9129650D02*
X12345343Y-9129650D01*
X12345343Y-9129650D02*
X12364391Y-9139174D01*
X12364391Y-9139174D02*
X12373915Y-9158222D01*
X12373915Y-9158222D02*
X12373915Y-9262984D01*
X12764391Y-9053460D02*
X12592963Y-9310603D01*
X13021534Y-9062984D02*
X13040582Y-9062984D01*
X13040582Y-9062984D02*
X13059629Y-9072508D01*
X13059629Y-9072508D02*
X13069153Y-9082031D01*
X13069153Y-9082031D02*
X13078677Y-9101079D01*
X13078677Y-9101079D02*
X13088201Y-9139174D01*
X13088201Y-9139174D02*
X13088201Y-9186793D01*
X13088201Y-9186793D02*
X13078677Y-9224889D01*
X13078677Y-9224889D02*
X13069153Y-9243936D01*
X13069153Y-9243936D02*
X13059629Y-9253460D01*
X13059629Y-9253460D02*
X13040582Y-9262984D01*
X13040582Y-9262984D02*
X13021534Y-9262984D01*
X13021534Y-9262984D02*
X13002486Y-9253460D01*
X13002486Y-9253460D02*
X12992963Y-9243936D01*
X12992963Y-9243936D02*
X12983439Y-9224889D01*
X12983439Y-9224889D02*
X12973915Y-9186793D01*
X12973915Y-9186793D02*
X12973915Y-9139174D01*
X12973915Y-9139174D02*
X12983439Y-9101079D01*
X12983439Y-9101079D02*
X12992963Y-9082031D01*
X12992963Y-9082031D02*
X13002486Y-9072508D01*
X13002486Y-9072508D02*
X13021534Y-9062984D01*
X13173915Y-9243936D02*
X13183439Y-9253460D01*
X13183439Y-9253460D02*
X13173915Y-9262984D01*
X13173915Y-9262984D02*
X13164391Y-9253460D01*
X13164391Y-9253460D02*
X13173915Y-9243936D01*
X13173915Y-9243936D02*
X13173915Y-9262984D01*
X13307248Y-9062984D02*
X13326296Y-9062984D01*
X13326296Y-9062984D02*
X13345344Y-9072508D01*
X13345344Y-9072508D02*
X13354867Y-9082031D01*
X13354867Y-9082031D02*
X13364391Y-9101079D01*
X13364391Y-9101079D02*
X13373915Y-9139174D01*
X13373915Y-9139174D02*
X13373915Y-9186793D01*
X13373915Y-9186793D02*
X13364391Y-9224889D01*
X13364391Y-9224889D02*
X13354867Y-9243936D01*
X13354867Y-9243936D02*
X13345344Y-9253460D01*
X13345344Y-9253460D02*
X13326296Y-9262984D01*
X13326296Y-9262984D02*
X13307248Y-9262984D01*
X13307248Y-9262984D02*
X13288201Y-9253460D01*
X13288201Y-9253460D02*
X13278677Y-9243936D01*
X13278677Y-9243936D02*
X13269153Y-9224889D01*
X13269153Y-9224889D02*
X13259629Y-9186793D01*
X13259629Y-9186793D02*
X13259629Y-9139174D01*
X13259629Y-9139174D02*
X13269153Y-9101079D01*
X13269153Y-9101079D02*
X13278677Y-9082031D01*
X13278677Y-9082031D02*
X13288201Y-9072508D01*
X13288201Y-9072508D02*
X13307248Y-9062984D01*
X13450106Y-9082031D02*
X13459629Y-9072508D01*
X13459629Y-9072508D02*
X13478677Y-9062984D01*
X13478677Y-9062984D02*
X13526296Y-9062984D01*
X13526296Y-9062984D02*
X13545344Y-9072508D01*
X13545344Y-9072508D02*
X13554867Y-9082031D01*
X13554867Y-9082031D02*
X13564391Y-9101079D01*
X13564391Y-9101079D02*
X13564391Y-9120127D01*
X13564391Y-9120127D02*
X13554867Y-9148698D01*
X13554867Y-9148698D02*
X13440582Y-9262984D01*
X13440582Y-9262984D02*
X13564391Y-9262984D01*
X13640582Y-9082031D02*
X13650106Y-9072508D01*
X13650106Y-9072508D02*
X13669153Y-9062984D01*
X13669153Y-9062984D02*
X13716772Y-9062984D01*
X13716772Y-9062984D02*
X13735820Y-9072508D01*
X13735820Y-9072508D02*
X13745344Y-9082031D01*
X13745344Y-9082031D02*
X13754867Y-9101079D01*
X13754867Y-9101079D02*
X13754867Y-9120127D01*
X13754867Y-9120127D02*
X13745344Y-9148698D01*
X13745344Y-9148698D02*
X13631058Y-9262984D01*
X13631058Y-9262984D02*
X13754867Y-9262984D01*
X13878677Y-9062984D02*
X13897725Y-9062984D01*
X13897725Y-9062984D02*
X13916772Y-9072508D01*
X13916772Y-9072508D02*
X13926296Y-9082031D01*
X13926296Y-9082031D02*
X13935820Y-9101079D01*
X13935820Y-9101079D02*
X13945344Y-9139174D01*
X13945344Y-9139174D02*
X13945344Y-9186793D01*
X13945344Y-9186793D02*
X13935820Y-9224889D01*
X13935820Y-9224889D02*
X13926296Y-9243936D01*
X13926296Y-9243936D02*
X13916772Y-9253460D01*
X13916772Y-9253460D02*
X13897725Y-9262984D01*
X13897725Y-9262984D02*
X13878677Y-9262984D01*
X13878677Y-9262984D02*
X13859629Y-9253460D01*
X13859629Y-9253460D02*
X13850106Y-9243936D01*
X13850106Y-9243936D02*
X13840582Y-9224889D01*
X13840582Y-9224889D02*
X13831058Y-9186793D01*
X13831058Y-9186793D02*
X13831058Y-9139174D01*
X13831058Y-9139174D02*
X13840582Y-9101079D01*
X13840582Y-9101079D02*
X13850106Y-9082031D01*
X13850106Y-9082031D02*
X13859629Y-9072508D01*
X13859629Y-9072508D02*
X13878677Y-9062984D01*
X14021534Y-9062984D02*
X14021534Y-9101079D01*
X14097725Y-9062984D02*
X14097725Y-9101079D01*
X14392963Y-9339174D02*
X14383439Y-9329650D01*
X14383439Y-9329650D02*
X14364391Y-9301079D01*
X14364391Y-9301079D02*
X14354868Y-9282031D01*
X14354868Y-9282031D02*
X14345344Y-9253460D01*
X14345344Y-9253460D02*
X14335820Y-9205841D01*
X14335820Y-9205841D02*
X14335820Y-9167746D01*
X14335820Y-9167746D02*
X14345344Y-9120127D01*
X14345344Y-9120127D02*
X14354868Y-9091555D01*
X14354868Y-9091555D02*
X14364391Y-9072508D01*
X14364391Y-9072508D02*
X14383439Y-9043936D01*
X14383439Y-9043936D02*
X14392963Y-9034412D01*
X14573915Y-9262984D02*
X14459629Y-9262984D01*
X14516772Y-9262984D02*
X14516772Y-9062984D01*
X14516772Y-9062984D02*
X14497725Y-9091555D01*
X14497725Y-9091555D02*
X14478677Y-9110603D01*
X14478677Y-9110603D02*
X14459629Y-9120127D01*
X14812010Y-9262984D02*
X14812010Y-9062984D01*
X14897725Y-9262984D02*
X14897725Y-9158222D01*
X14897725Y-9158222D02*
X14888201Y-9139174D01*
X14888201Y-9139174D02*
X14869153Y-9129650D01*
X14869153Y-9129650D02*
X14840582Y-9129650D01*
X14840582Y-9129650D02*
X14821534Y-9139174D01*
X14821534Y-9139174D02*
X14812010Y-9148698D01*
X15021534Y-9262984D02*
X15002487Y-9253460D01*
X15002487Y-9253460D02*
X14992963Y-9243936D01*
X14992963Y-9243936D02*
X14983439Y-9224889D01*
X14983439Y-9224889D02*
X14983439Y-9167746D01*
X14983439Y-9167746D02*
X14992963Y-9148698D01*
X14992963Y-9148698D02*
X15002487Y-9139174D01*
X15002487Y-9139174D02*
X15021534Y-9129650D01*
X15021534Y-9129650D02*
X15050106Y-9129650D01*
X15050106Y-9129650D02*
X15069153Y-9139174D01*
X15069153Y-9139174D02*
X15078677Y-9148698D01*
X15078677Y-9148698D02*
X15088201Y-9167746D01*
X15088201Y-9167746D02*
X15088201Y-9224889D01*
X15088201Y-9224889D02*
X15078677Y-9243936D01*
X15078677Y-9243936D02*
X15069153Y-9253460D01*
X15069153Y-9253460D02*
X15050106Y-9262984D01*
X15050106Y-9262984D02*
X15021534Y-9262984D01*
X15202487Y-9262984D02*
X15183439Y-9253460D01*
X15183439Y-9253460D02*
X15173915Y-9234412D01*
X15173915Y-9234412D02*
X15173915Y-9062984D01*
X15354868Y-9253460D02*
X15335820Y-9262984D01*
X15335820Y-9262984D02*
X15297725Y-9262984D01*
X15297725Y-9262984D02*
X15278677Y-9253460D01*
X15278677Y-9253460D02*
X15269153Y-9234412D01*
X15269153Y-9234412D02*
X15269153Y-9158222D01*
X15269153Y-9158222D02*
X15278677Y-9139174D01*
X15278677Y-9139174D02*
X15297725Y-9129650D01*
X15297725Y-9129650D02*
X15335820Y-9129650D01*
X15335820Y-9129650D02*
X15354868Y-9139174D01*
X15354868Y-9139174D02*
X15364391Y-9158222D01*
X15364391Y-9158222D02*
X15364391Y-9177270D01*
X15364391Y-9177270D02*
X15269153Y-9196317D01*
X15431058Y-9339174D02*
X15440582Y-9329650D01*
X15440582Y-9329650D02*
X15459630Y-9301079D01*
X15459630Y-9301079D02*
X15469153Y-9282031D01*
X15469153Y-9282031D02*
X15478677Y-9253460D01*
X15478677Y-9253460D02*
X15488201Y-9205841D01*
X15488201Y-9205841D02*
X15488201Y-9167746D01*
X15488201Y-9167746D02*
X15478677Y-9120127D01*
X15478677Y-9120127D02*
X15469153Y-9091555D01*
X15469153Y-9091555D02*
X15459630Y-9072508D01*
X15459630Y-9072508D02*
X15440582Y-9043936D01*
X15440582Y-9043936D02*
X15431058Y-9034412D01*
D12*
X10803256Y-9470856D02*
X10803256Y-9400144D01*
X10732544Y-9400144D01*
X10732544Y-9470856D01*
X10803256Y-9470856D01*
D11*
X11183439Y-9526984D02*
X11069153Y-9526984D01*
X11126296Y-9526984D02*
X11126296Y-9326984D01*
X11126296Y-9326984D02*
X11107248Y-9355555D01*
X11107248Y-9355555D02*
X11088201Y-9374603D01*
X11088201Y-9374603D02*
X11069153Y-9384127D01*
X11269153Y-9507936D02*
X11278677Y-9517460D01*
X11278677Y-9517460D02*
X11269153Y-9526984D01*
X11269153Y-9526984D02*
X11259629Y-9517460D01*
X11259629Y-9517460D02*
X11269153Y-9507936D01*
X11269153Y-9507936D02*
X11269153Y-9526984D01*
X11402486Y-9326984D02*
X11421534Y-9326984D01*
X11421534Y-9326984D02*
X11440582Y-9336508D01*
X11440582Y-9336508D02*
X11450105Y-9346031D01*
X11450105Y-9346031D02*
X11459629Y-9365079D01*
X11459629Y-9365079D02*
X11469153Y-9403174D01*
X11469153Y-9403174D02*
X11469153Y-9450793D01*
X11469153Y-9450793D02*
X11459629Y-9488889D01*
X11459629Y-9488889D02*
X11450105Y-9507936D01*
X11450105Y-9507936D02*
X11440582Y-9517460D01*
X11440582Y-9517460D02*
X11421534Y-9526984D01*
X11421534Y-9526984D02*
X11402486Y-9526984D01*
X11402486Y-9526984D02*
X11383439Y-9517460D01*
X11383439Y-9517460D02*
X11373915Y-9507936D01*
X11373915Y-9507936D02*
X11364391Y-9488889D01*
X11364391Y-9488889D02*
X11354867Y-9450793D01*
X11354867Y-9450793D02*
X11354867Y-9403174D01*
X11354867Y-9403174D02*
X11364391Y-9365079D01*
X11364391Y-9365079D02*
X11373915Y-9346031D01*
X11373915Y-9346031D02*
X11383439Y-9336508D01*
X11383439Y-9336508D02*
X11402486Y-9326984D01*
X11592962Y-9326984D02*
X11612010Y-9326984D01*
X11612010Y-9326984D02*
X11631058Y-9336508D01*
X11631058Y-9336508D02*
X11640582Y-9346031D01*
X11640582Y-9346031D02*
X11650105Y-9365079D01*
X11650105Y-9365079D02*
X11659629Y-9403174D01*
X11659629Y-9403174D02*
X11659629Y-9450793D01*
X11659629Y-9450793D02*
X11650105Y-9488889D01*
X11650105Y-9488889D02*
X11640582Y-9507936D01*
X11640582Y-9507936D02*
X11631058Y-9517460D01*
X11631058Y-9517460D02*
X11612010Y-9526984D01*
X11612010Y-9526984D02*
X11592962Y-9526984D01*
X11592962Y-9526984D02*
X11573915Y-9517460D01*
X11573915Y-9517460D02*
X11564391Y-9507936D01*
X11564391Y-9507936D02*
X11554867Y-9488889D01*
X11554867Y-9488889D02*
X11545343Y-9450793D01*
X11545343Y-9450793D02*
X11545343Y-9403174D01*
X11545343Y-9403174D02*
X11554867Y-9365079D01*
X11554867Y-9365079D02*
X11564391Y-9346031D01*
X11564391Y-9346031D02*
X11573915Y-9336508D01*
X11573915Y-9336508D02*
X11592962Y-9326984D01*
X11783439Y-9326984D02*
X11802486Y-9326984D01*
X11802486Y-9326984D02*
X11821534Y-9336508D01*
X11821534Y-9336508D02*
X11831058Y-9346031D01*
X11831058Y-9346031D02*
X11840582Y-9365079D01*
X11840582Y-9365079D02*
X11850105Y-9403174D01*
X11850105Y-9403174D02*
X11850105Y-9450793D01*
X11850105Y-9450793D02*
X11840582Y-9488889D01*
X11840582Y-9488889D02*
X11831058Y-9507936D01*
X11831058Y-9507936D02*
X11821534Y-9517460D01*
X11821534Y-9517460D02*
X11802486Y-9526984D01*
X11802486Y-9526984D02*
X11783439Y-9526984D01*
X11783439Y-9526984D02*
X11764391Y-9517460D01*
X11764391Y-9517460D02*
X11754867Y-9507936D01*
X11754867Y-9507936D02*
X11745343Y-9488889D01*
X11745343Y-9488889D02*
X11735820Y-9450793D01*
X11735820Y-9450793D02*
X11735820Y-9403174D01*
X11735820Y-9403174D02*
X11745343Y-9365079D01*
X11745343Y-9365079D02*
X11754867Y-9346031D01*
X11754867Y-9346031D02*
X11764391Y-9336508D01*
X11764391Y-9336508D02*
X11783439Y-9326984D01*
X11935820Y-9526984D02*
X11935820Y-9393650D01*
X11935820Y-9412698D02*
X11945343Y-9403174D01*
X11945343Y-9403174D02*
X11964391Y-9393650D01*
X11964391Y-9393650D02*
X11992963Y-9393650D01*
X11992963Y-9393650D02*
X12012010Y-9403174D01*
X12012010Y-9403174D02*
X12021534Y-9422222D01*
X12021534Y-9422222D02*
X12021534Y-9526984D01*
X12021534Y-9422222D02*
X12031058Y-9403174D01*
X12031058Y-9403174D02*
X12050105Y-9393650D01*
X12050105Y-9393650D02*
X12078677Y-9393650D01*
X12078677Y-9393650D02*
X12097724Y-9403174D01*
X12097724Y-9403174D02*
X12107248Y-9422222D01*
X12107248Y-9422222D02*
X12107248Y-9526984D01*
X12202486Y-9526984D02*
X12202486Y-9393650D01*
X12202486Y-9412698D02*
X12212010Y-9403174D01*
X12212010Y-9403174D02*
X12231058Y-9393650D01*
X12231058Y-9393650D02*
X12259629Y-9393650D01*
X12259629Y-9393650D02*
X12278677Y-9403174D01*
X12278677Y-9403174D02*
X12288201Y-9422222D01*
X12288201Y-9422222D02*
X12288201Y-9526984D01*
X12288201Y-9422222D02*
X12297724Y-9403174D01*
X12297724Y-9403174D02*
X12316772Y-9393650D01*
X12316772Y-9393650D02*
X12345343Y-9393650D01*
X12345343Y-9393650D02*
X12364391Y-9403174D01*
X12364391Y-9403174D02*
X12373915Y-9422222D01*
X12373915Y-9422222D02*
X12373915Y-9526984D01*
X12764391Y-9317460D02*
X12592963Y-9574603D01*
X13021534Y-9326984D02*
X13040582Y-9326984D01*
X13040582Y-9326984D02*
X13059629Y-9336508D01*
X13059629Y-9336508D02*
X13069153Y-9346031D01*
X13069153Y-9346031D02*
X13078677Y-9365079D01*
X13078677Y-9365079D02*
X13088201Y-9403174D01*
X13088201Y-9403174D02*
X13088201Y-9450793D01*
X13088201Y-9450793D02*
X13078677Y-9488889D01*
X13078677Y-9488889D02*
X13069153Y-9507936D01*
X13069153Y-9507936D02*
X13059629Y-9517460D01*
X13059629Y-9517460D02*
X13040582Y-9526984D01*
X13040582Y-9526984D02*
X13021534Y-9526984D01*
X13021534Y-9526984D02*
X13002486Y-9517460D01*
X13002486Y-9517460D02*
X12992963Y-9507936D01*
X12992963Y-9507936D02*
X12983439Y-9488889D01*
X12983439Y-9488889D02*
X12973915Y-9450793D01*
X12973915Y-9450793D02*
X12973915Y-9403174D01*
X12973915Y-9403174D02*
X12983439Y-9365079D01*
X12983439Y-9365079D02*
X12992963Y-9346031D01*
X12992963Y-9346031D02*
X13002486Y-9336508D01*
X13002486Y-9336508D02*
X13021534Y-9326984D01*
X13173915Y-9507936D02*
X13183439Y-9517460D01*
X13183439Y-9517460D02*
X13173915Y-9526984D01*
X13173915Y-9526984D02*
X13164391Y-9517460D01*
X13164391Y-9517460D02*
X13173915Y-9507936D01*
X13173915Y-9507936D02*
X13173915Y-9526984D01*
X13307248Y-9326984D02*
X13326296Y-9326984D01*
X13326296Y-9326984D02*
X13345344Y-9336508D01*
X13345344Y-9336508D02*
X13354867Y-9346031D01*
X13354867Y-9346031D02*
X13364391Y-9365079D01*
X13364391Y-9365079D02*
X13373915Y-9403174D01*
X13373915Y-9403174D02*
X13373915Y-9450793D01*
X13373915Y-9450793D02*
X13364391Y-9488889D01*
X13364391Y-9488889D02*
X13354867Y-9507936D01*
X13354867Y-9507936D02*
X13345344Y-9517460D01*
X13345344Y-9517460D02*
X13326296Y-9526984D01*
X13326296Y-9526984D02*
X13307248Y-9526984D01*
X13307248Y-9526984D02*
X13288201Y-9517460D01*
X13288201Y-9517460D02*
X13278677Y-9507936D01*
X13278677Y-9507936D02*
X13269153Y-9488889D01*
X13269153Y-9488889D02*
X13259629Y-9450793D01*
X13259629Y-9450793D02*
X13259629Y-9403174D01*
X13259629Y-9403174D02*
X13269153Y-9365079D01*
X13269153Y-9365079D02*
X13278677Y-9346031D01*
X13278677Y-9346031D02*
X13288201Y-9336508D01*
X13288201Y-9336508D02*
X13307248Y-9326984D01*
X13440582Y-9326984D02*
X13564391Y-9326984D01*
X13564391Y-9326984D02*
X13497725Y-9403174D01*
X13497725Y-9403174D02*
X13526296Y-9403174D01*
X13526296Y-9403174D02*
X13545344Y-9412698D01*
X13545344Y-9412698D02*
X13554867Y-9422222D01*
X13554867Y-9422222D02*
X13564391Y-9441270D01*
X13564391Y-9441270D02*
X13564391Y-9488889D01*
X13564391Y-9488889D02*
X13554867Y-9507936D01*
X13554867Y-9507936D02*
X13545344Y-9517460D01*
X13545344Y-9517460D02*
X13526296Y-9526984D01*
X13526296Y-9526984D02*
X13469153Y-9526984D01*
X13469153Y-9526984D02*
X13450106Y-9517460D01*
X13450106Y-9517460D02*
X13440582Y-9507936D01*
X13659629Y-9526984D02*
X13697725Y-9526984D01*
X13697725Y-9526984D02*
X13716772Y-9517460D01*
X13716772Y-9517460D02*
X13726296Y-9507936D01*
X13726296Y-9507936D02*
X13745344Y-9479365D01*
X13745344Y-9479365D02*
X13754867Y-9441270D01*
X13754867Y-9441270D02*
X13754867Y-9365079D01*
X13754867Y-9365079D02*
X13745344Y-9346031D01*
X13745344Y-9346031D02*
X13735820Y-9336508D01*
X13735820Y-9336508D02*
X13716772Y-9326984D01*
X13716772Y-9326984D02*
X13678677Y-9326984D01*
X13678677Y-9326984D02*
X13659629Y-9336508D01*
X13659629Y-9336508D02*
X13650106Y-9346031D01*
X13650106Y-9346031D02*
X13640582Y-9365079D01*
X13640582Y-9365079D02*
X13640582Y-9412698D01*
X13640582Y-9412698D02*
X13650106Y-9431746D01*
X13650106Y-9431746D02*
X13659629Y-9441270D01*
X13659629Y-9441270D02*
X13678677Y-9450793D01*
X13678677Y-9450793D02*
X13716772Y-9450793D01*
X13716772Y-9450793D02*
X13735820Y-9441270D01*
X13735820Y-9441270D02*
X13745344Y-9431746D01*
X13745344Y-9431746D02*
X13754867Y-9412698D01*
X13926296Y-9393650D02*
X13926296Y-9526984D01*
X13878677Y-9317460D02*
X13831058Y-9460317D01*
X13831058Y-9460317D02*
X13954867Y-9460317D01*
X14021534Y-9326984D02*
X14021534Y-9365079D01*
X14097725Y-9326984D02*
X14097725Y-9365079D01*
X14392963Y-9603174D02*
X14383439Y-9593650D01*
X14383439Y-9593650D02*
X14364391Y-9565079D01*
X14364391Y-9565079D02*
X14354868Y-9546031D01*
X14354868Y-9546031D02*
X14345344Y-9517460D01*
X14345344Y-9517460D02*
X14335820Y-9469841D01*
X14335820Y-9469841D02*
X14335820Y-9431746D01*
X14335820Y-9431746D02*
X14345344Y-9384127D01*
X14345344Y-9384127D02*
X14354868Y-9355555D01*
X14354868Y-9355555D02*
X14364391Y-9336508D01*
X14364391Y-9336508D02*
X14383439Y-9307936D01*
X14383439Y-9307936D02*
X14392963Y-9298412D01*
X14497725Y-9412698D02*
X14478677Y-9403174D01*
X14478677Y-9403174D02*
X14469153Y-9393650D01*
X14469153Y-9393650D02*
X14459629Y-9374603D01*
X14459629Y-9374603D02*
X14459629Y-9365079D01*
X14459629Y-9365079D02*
X14469153Y-9346031D01*
X14469153Y-9346031D02*
X14478677Y-9336508D01*
X14478677Y-9336508D02*
X14497725Y-9326984D01*
X14497725Y-9326984D02*
X14535820Y-9326984D01*
X14535820Y-9326984D02*
X14554868Y-9336508D01*
X14554868Y-9336508D02*
X14564391Y-9346031D01*
X14564391Y-9346031D02*
X14573915Y-9365079D01*
X14573915Y-9365079D02*
X14573915Y-9374603D01*
X14573915Y-9374603D02*
X14564391Y-9393650D01*
X14564391Y-9393650D02*
X14554868Y-9403174D01*
X14554868Y-9403174D02*
X14535820Y-9412698D01*
X14535820Y-9412698D02*
X14497725Y-9412698D01*
X14497725Y-9412698D02*
X14478677Y-9422222D01*
X14478677Y-9422222D02*
X14469153Y-9431746D01*
X14469153Y-9431746D02*
X14459629Y-9450793D01*
X14459629Y-9450793D02*
X14459629Y-9488889D01*
X14459629Y-9488889D02*
X14469153Y-9507936D01*
X14469153Y-9507936D02*
X14478677Y-9517460D01*
X14478677Y-9517460D02*
X14497725Y-9526984D01*
X14497725Y-9526984D02*
X14535820Y-9526984D01*
X14535820Y-9526984D02*
X14554868Y-9517460D01*
X14554868Y-9517460D02*
X14564391Y-9507936D01*
X14564391Y-9507936D02*
X14573915Y-9488889D01*
X14573915Y-9488889D02*
X14573915Y-9450793D01*
X14573915Y-9450793D02*
X14564391Y-9431746D01*
X14564391Y-9431746D02*
X14554868Y-9422222D01*
X14554868Y-9422222D02*
X14535820Y-9412698D01*
X14812010Y-9526984D02*
X14812010Y-9326984D01*
X14897725Y-9526984D02*
X14897725Y-9422222D01*
X14897725Y-9422222D02*
X14888201Y-9403174D01*
X14888201Y-9403174D02*
X14869153Y-9393650D01*
X14869153Y-9393650D02*
X14840582Y-9393650D01*
X14840582Y-9393650D02*
X14821534Y-9403174D01*
X14821534Y-9403174D02*
X14812010Y-9412698D01*
X15021534Y-9526984D02*
X15002487Y-9517460D01*
X15002487Y-9517460D02*
X14992963Y-9507936D01*
X14992963Y-9507936D02*
X14983439Y-9488889D01*
X14983439Y-9488889D02*
X14983439Y-9431746D01*
X14983439Y-9431746D02*
X14992963Y-9412698D01*
X14992963Y-9412698D02*
X15002487Y-9403174D01*
X15002487Y-9403174D02*
X15021534Y-9393650D01*
X15021534Y-9393650D02*
X15050106Y-9393650D01*
X15050106Y-9393650D02*
X15069153Y-9403174D01*
X15069153Y-9403174D02*
X15078677Y-9412698D01*
X15078677Y-9412698D02*
X15088201Y-9431746D01*
X15088201Y-9431746D02*
X15088201Y-9488889D01*
X15088201Y-9488889D02*
X15078677Y-9507936D01*
X15078677Y-9507936D02*
X15069153Y-9517460D01*
X15069153Y-9517460D02*
X15050106Y-9526984D01*
X15050106Y-9526984D02*
X15021534Y-9526984D01*
X15202487Y-9526984D02*
X15183439Y-9517460D01*
X15183439Y-9517460D02*
X15173915Y-9498412D01*
X15173915Y-9498412D02*
X15173915Y-9326984D01*
X15354868Y-9517460D02*
X15335820Y-9526984D01*
X15335820Y-9526984D02*
X15297725Y-9526984D01*
X15297725Y-9526984D02*
X15278677Y-9517460D01*
X15278677Y-9517460D02*
X15269153Y-9498412D01*
X15269153Y-9498412D02*
X15269153Y-9422222D01*
X15269153Y-9422222D02*
X15278677Y-9403174D01*
X15278677Y-9403174D02*
X15297725Y-9393650D01*
X15297725Y-9393650D02*
X15335820Y-9393650D01*
X15335820Y-9393650D02*
X15354868Y-9403174D01*
X15354868Y-9403174D02*
X15364391Y-9422222D01*
X15364391Y-9422222D02*
X15364391Y-9441270D01*
X15364391Y-9441270D02*
X15269153Y-9460317D01*
X15440582Y-9517460D02*
X15459630Y-9526984D01*
X15459630Y-9526984D02*
X15497725Y-9526984D01*
X15497725Y-9526984D02*
X15516772Y-9517460D01*
X15516772Y-9517460D02*
X15526296Y-9498412D01*
X15526296Y-9498412D02*
X15526296Y-9488889D01*
X15526296Y-9488889D02*
X15516772Y-9469841D01*
X15516772Y-9469841D02*
X15497725Y-9460317D01*
X15497725Y-9460317D02*
X15469153Y-9460317D01*
X15469153Y-9460317D02*
X15450106Y-9450793D01*
X15450106Y-9450793D02*
X15440582Y-9431746D01*
X15440582Y-9431746D02*
X15440582Y-9422222D01*
X15440582Y-9422222D02*
X15450106Y-9403174D01*
X15450106Y-9403174D02*
X15469153Y-9393650D01*
X15469153Y-9393650D02*
X15497725Y-9393650D01*
X15497725Y-9393650D02*
X15516772Y-9403174D01*
X15592963Y-9603174D02*
X15602487Y-9593650D01*
X15602487Y-9593650D02*
X15621534Y-9565079D01*
X15621534Y-9565079D02*
X15631058Y-9546031D01*
X15631058Y-9546031D02*
X15640582Y-9517460D01*
X15640582Y-9517460D02*
X15650106Y-9469841D01*
X15650106Y-9469841D02*
X15650106Y-9431746D01*
X15650106Y-9431746D02*
X15640582Y-9384127D01*
X15640582Y-9384127D02*
X15631058Y-9355555D01*
X15631058Y-9355555D02*
X15621534Y-9336508D01*
X15621534Y-9336508D02*
X15602487Y-9307936D01*
X15602487Y-9307936D02*
X15592963Y-9298412D01*
X10717900Y-9799500D02*
X10817900Y-9699500D01*
X10717900Y-9599500D01*
X10617900Y-9699500D01*
X10717900Y-9799500D01*
X11069153Y-9610031D02*
X11078677Y-9600508D01*
X11078677Y-9600508D02*
X11097724Y-9590984D01*
X11097724Y-9590984D02*
X11145344Y-9590984D01*
X11145344Y-9590984D02*
X11164391Y-9600508D01*
X11164391Y-9600508D02*
X11173915Y-9610031D01*
X11173915Y-9610031D02*
X11183439Y-9629079D01*
X11183439Y-9629079D02*
X11183439Y-9648127D01*
X11183439Y-9648127D02*
X11173915Y-9676698D01*
X11173915Y-9676698D02*
X11059629Y-9790984D01*
X11059629Y-9790984D02*
X11183439Y-9790984D01*
X11269153Y-9771936D02*
X11278677Y-9781460D01*
X11278677Y-9781460D02*
X11269153Y-9790984D01*
X11269153Y-9790984D02*
X11259629Y-9781460D01*
X11259629Y-9781460D02*
X11269153Y-9771936D01*
X11269153Y-9771936D02*
X11269153Y-9790984D01*
X11459629Y-9590984D02*
X11364391Y-9590984D01*
X11364391Y-9590984D02*
X11354867Y-9686222D01*
X11354867Y-9686222D02*
X11364391Y-9676698D01*
X11364391Y-9676698D02*
X11383439Y-9667174D01*
X11383439Y-9667174D02*
X11431058Y-9667174D01*
X11431058Y-9667174D02*
X11450105Y-9676698D01*
X11450105Y-9676698D02*
X11459629Y-9686222D01*
X11459629Y-9686222D02*
X11469153Y-9705270D01*
X11469153Y-9705270D02*
X11469153Y-9752889D01*
X11469153Y-9752889D02*
X11459629Y-9771936D01*
X11459629Y-9771936D02*
X11450105Y-9781460D01*
X11450105Y-9781460D02*
X11431058Y-9790984D01*
X11431058Y-9790984D02*
X11383439Y-9790984D01*
X11383439Y-9790984D02*
X11364391Y-9781460D01*
X11364391Y-9781460D02*
X11354867Y-9771936D01*
X11592962Y-9590984D02*
X11612010Y-9590984D01*
X11612010Y-9590984D02*
X11631058Y-9600508D01*
X11631058Y-9600508D02*
X11640582Y-9610031D01*
X11640582Y-9610031D02*
X11650105Y-9629079D01*
X11650105Y-9629079D02*
X11659629Y-9667174D01*
X11659629Y-9667174D02*
X11659629Y-9714793D01*
X11659629Y-9714793D02*
X11650105Y-9752889D01*
X11650105Y-9752889D02*
X11640582Y-9771936D01*
X11640582Y-9771936D02*
X11631058Y-9781460D01*
X11631058Y-9781460D02*
X11612010Y-9790984D01*
X11612010Y-9790984D02*
X11592962Y-9790984D01*
X11592962Y-9790984D02*
X11573915Y-9781460D01*
X11573915Y-9781460D02*
X11564391Y-9771936D01*
X11564391Y-9771936D02*
X11554867Y-9752889D01*
X11554867Y-9752889D02*
X11545343Y-9714793D01*
X11545343Y-9714793D02*
X11545343Y-9667174D01*
X11545343Y-9667174D02*
X11554867Y-9629079D01*
X11554867Y-9629079D02*
X11564391Y-9610031D01*
X11564391Y-9610031D02*
X11573915Y-9600508D01*
X11573915Y-9600508D02*
X11592962Y-9590984D01*
X11783439Y-9590984D02*
X11802486Y-9590984D01*
X11802486Y-9590984D02*
X11821534Y-9600508D01*
X11821534Y-9600508D02*
X11831058Y-9610031D01*
X11831058Y-9610031D02*
X11840582Y-9629079D01*
X11840582Y-9629079D02*
X11850105Y-9667174D01*
X11850105Y-9667174D02*
X11850105Y-9714793D01*
X11850105Y-9714793D02*
X11840582Y-9752889D01*
X11840582Y-9752889D02*
X11831058Y-9771936D01*
X11831058Y-9771936D02*
X11821534Y-9781460D01*
X11821534Y-9781460D02*
X11802486Y-9790984D01*
X11802486Y-9790984D02*
X11783439Y-9790984D01*
X11783439Y-9790984D02*
X11764391Y-9781460D01*
X11764391Y-9781460D02*
X11754867Y-9771936D01*
X11754867Y-9771936D02*
X11745343Y-9752889D01*
X11745343Y-9752889D02*
X11735820Y-9714793D01*
X11735820Y-9714793D02*
X11735820Y-9667174D01*
X11735820Y-9667174D02*
X11745343Y-9629079D01*
X11745343Y-9629079D02*
X11754867Y-9610031D01*
X11754867Y-9610031D02*
X11764391Y-9600508D01*
X11764391Y-9600508D02*
X11783439Y-9590984D01*
X11935820Y-9790984D02*
X11935820Y-9657650D01*
X11935820Y-9676698D02*
X11945343Y-9667174D01*
X11945343Y-9667174D02*
X11964391Y-9657650D01*
X11964391Y-9657650D02*
X11992963Y-9657650D01*
X11992963Y-9657650D02*
X12012010Y-9667174D01*
X12012010Y-9667174D02*
X12021534Y-9686222D01*
X12021534Y-9686222D02*
X12021534Y-9790984D01*
X12021534Y-9686222D02*
X12031058Y-9667174D01*
X12031058Y-9667174D02*
X12050105Y-9657650D01*
X12050105Y-9657650D02*
X12078677Y-9657650D01*
X12078677Y-9657650D02*
X12097724Y-9667174D01*
X12097724Y-9667174D02*
X12107248Y-9686222D01*
X12107248Y-9686222D02*
X12107248Y-9790984D01*
X12202486Y-9790984D02*
X12202486Y-9657650D01*
X12202486Y-9676698D02*
X12212010Y-9667174D01*
X12212010Y-9667174D02*
X12231058Y-9657650D01*
X12231058Y-9657650D02*
X12259629Y-9657650D01*
X12259629Y-9657650D02*
X12278677Y-9667174D01*
X12278677Y-9667174D02*
X12288201Y-9686222D01*
X12288201Y-9686222D02*
X12288201Y-9790984D01*
X12288201Y-9686222D02*
X12297724Y-9667174D01*
X12297724Y-9667174D02*
X12316772Y-9657650D01*
X12316772Y-9657650D02*
X12345343Y-9657650D01*
X12345343Y-9657650D02*
X12364391Y-9667174D01*
X12364391Y-9667174D02*
X12373915Y-9686222D01*
X12373915Y-9686222D02*
X12373915Y-9790984D01*
X12764391Y-9581460D02*
X12592963Y-9838603D01*
X13021534Y-9590984D02*
X13040582Y-9590984D01*
X13040582Y-9590984D02*
X13059629Y-9600508D01*
X13059629Y-9600508D02*
X13069153Y-9610031D01*
X13069153Y-9610031D02*
X13078677Y-9629079D01*
X13078677Y-9629079D02*
X13088201Y-9667174D01*
X13088201Y-9667174D02*
X13088201Y-9714793D01*
X13088201Y-9714793D02*
X13078677Y-9752889D01*
X13078677Y-9752889D02*
X13069153Y-9771936D01*
X13069153Y-9771936D02*
X13059629Y-9781460D01*
X13059629Y-9781460D02*
X13040582Y-9790984D01*
X13040582Y-9790984D02*
X13021534Y-9790984D01*
X13021534Y-9790984D02*
X13002486Y-9781460D01*
X13002486Y-9781460D02*
X12992963Y-9771936D01*
X12992963Y-9771936D02*
X12983439Y-9752889D01*
X12983439Y-9752889D02*
X12973915Y-9714793D01*
X12973915Y-9714793D02*
X12973915Y-9667174D01*
X12973915Y-9667174D02*
X12983439Y-9629079D01*
X12983439Y-9629079D02*
X12992963Y-9610031D01*
X12992963Y-9610031D02*
X13002486Y-9600508D01*
X13002486Y-9600508D02*
X13021534Y-9590984D01*
X13173915Y-9771936D02*
X13183439Y-9781460D01*
X13183439Y-9781460D02*
X13173915Y-9790984D01*
X13173915Y-9790984D02*
X13164391Y-9781460D01*
X13164391Y-9781460D02*
X13173915Y-9771936D01*
X13173915Y-9771936D02*
X13173915Y-9790984D01*
X13307248Y-9590984D02*
X13326296Y-9590984D01*
X13326296Y-9590984D02*
X13345344Y-9600508D01*
X13345344Y-9600508D02*
X13354867Y-9610031D01*
X13354867Y-9610031D02*
X13364391Y-9629079D01*
X13364391Y-9629079D02*
X13373915Y-9667174D01*
X13373915Y-9667174D02*
X13373915Y-9714793D01*
X13373915Y-9714793D02*
X13364391Y-9752889D01*
X13364391Y-9752889D02*
X13354867Y-9771936D01*
X13354867Y-9771936D02*
X13345344Y-9781460D01*
X13345344Y-9781460D02*
X13326296Y-9790984D01*
X13326296Y-9790984D02*
X13307248Y-9790984D01*
X13307248Y-9790984D02*
X13288201Y-9781460D01*
X13288201Y-9781460D02*
X13278677Y-9771936D01*
X13278677Y-9771936D02*
X13269153Y-9752889D01*
X13269153Y-9752889D02*
X13259629Y-9714793D01*
X13259629Y-9714793D02*
X13259629Y-9667174D01*
X13259629Y-9667174D02*
X13269153Y-9629079D01*
X13269153Y-9629079D02*
X13278677Y-9610031D01*
X13278677Y-9610031D02*
X13288201Y-9600508D01*
X13288201Y-9600508D02*
X13307248Y-9590984D01*
X13469153Y-9790984D02*
X13507248Y-9790984D01*
X13507248Y-9790984D02*
X13526296Y-9781460D01*
X13526296Y-9781460D02*
X13535820Y-9771936D01*
X13535820Y-9771936D02*
X13554867Y-9743365D01*
X13554867Y-9743365D02*
X13564391Y-9705270D01*
X13564391Y-9705270D02*
X13564391Y-9629079D01*
X13564391Y-9629079D02*
X13554867Y-9610031D01*
X13554867Y-9610031D02*
X13545344Y-9600508D01*
X13545344Y-9600508D02*
X13526296Y-9590984D01*
X13526296Y-9590984D02*
X13488201Y-9590984D01*
X13488201Y-9590984D02*
X13469153Y-9600508D01*
X13469153Y-9600508D02*
X13459629Y-9610031D01*
X13459629Y-9610031D02*
X13450106Y-9629079D01*
X13450106Y-9629079D02*
X13450106Y-9676698D01*
X13450106Y-9676698D02*
X13459629Y-9695746D01*
X13459629Y-9695746D02*
X13469153Y-9705270D01*
X13469153Y-9705270D02*
X13488201Y-9714793D01*
X13488201Y-9714793D02*
X13526296Y-9714793D01*
X13526296Y-9714793D02*
X13545344Y-9705270D01*
X13545344Y-9705270D02*
X13554867Y-9695746D01*
X13554867Y-9695746D02*
X13564391Y-9676698D01*
X13678677Y-9676698D02*
X13659629Y-9667174D01*
X13659629Y-9667174D02*
X13650106Y-9657650D01*
X13650106Y-9657650D02*
X13640582Y-9638603D01*
X13640582Y-9638603D02*
X13640582Y-9629079D01*
X13640582Y-9629079D02*
X13650106Y-9610031D01*
X13650106Y-9610031D02*
X13659629Y-9600508D01*
X13659629Y-9600508D02*
X13678677Y-9590984D01*
X13678677Y-9590984D02*
X13716772Y-9590984D01*
X13716772Y-9590984D02*
X13735820Y-9600508D01*
X13735820Y-9600508D02*
X13745344Y-9610031D01*
X13745344Y-9610031D02*
X13754867Y-9629079D01*
X13754867Y-9629079D02*
X13754867Y-9638603D01*
X13754867Y-9638603D02*
X13745344Y-9657650D01*
X13745344Y-9657650D02*
X13735820Y-9667174D01*
X13735820Y-9667174D02*
X13716772Y-9676698D01*
X13716772Y-9676698D02*
X13678677Y-9676698D01*
X13678677Y-9676698D02*
X13659629Y-9686222D01*
X13659629Y-9686222D02*
X13650106Y-9695746D01*
X13650106Y-9695746D02*
X13640582Y-9714793D01*
X13640582Y-9714793D02*
X13640582Y-9752889D01*
X13640582Y-9752889D02*
X13650106Y-9771936D01*
X13650106Y-9771936D02*
X13659629Y-9781460D01*
X13659629Y-9781460D02*
X13678677Y-9790984D01*
X13678677Y-9790984D02*
X13716772Y-9790984D01*
X13716772Y-9790984D02*
X13735820Y-9781460D01*
X13735820Y-9781460D02*
X13745344Y-9771936D01*
X13745344Y-9771936D02*
X13754867Y-9752889D01*
X13754867Y-9752889D02*
X13754867Y-9714793D01*
X13754867Y-9714793D02*
X13745344Y-9695746D01*
X13745344Y-9695746D02*
X13735820Y-9686222D01*
X13735820Y-9686222D02*
X13716772Y-9676698D01*
X13926296Y-9657650D02*
X13926296Y-9790984D01*
X13878677Y-9581460D02*
X13831058Y-9724317D01*
X13831058Y-9724317D02*
X13954867Y-9724317D01*
X14021534Y-9590984D02*
X14021534Y-9629079D01*
X14097725Y-9590984D02*
X14097725Y-9629079D01*
X14392963Y-9867174D02*
X14383439Y-9857650D01*
X14383439Y-9857650D02*
X14364391Y-9829079D01*
X14364391Y-9829079D02*
X14354868Y-9810031D01*
X14354868Y-9810031D02*
X14345344Y-9781460D01*
X14345344Y-9781460D02*
X14335820Y-9733841D01*
X14335820Y-9733841D02*
X14335820Y-9695746D01*
X14335820Y-9695746D02*
X14345344Y-9648127D01*
X14345344Y-9648127D02*
X14354868Y-9619555D01*
X14354868Y-9619555D02*
X14364391Y-9600508D01*
X14364391Y-9600508D02*
X14383439Y-9571936D01*
X14383439Y-9571936D02*
X14392963Y-9562412D01*
X14459629Y-9610031D02*
X14469153Y-9600508D01*
X14469153Y-9600508D02*
X14488201Y-9590984D01*
X14488201Y-9590984D02*
X14535820Y-9590984D01*
X14535820Y-9590984D02*
X14554868Y-9600508D01*
X14554868Y-9600508D02*
X14564391Y-9610031D01*
X14564391Y-9610031D02*
X14573915Y-9629079D01*
X14573915Y-9629079D02*
X14573915Y-9648127D01*
X14573915Y-9648127D02*
X14564391Y-9676698D01*
X14564391Y-9676698D02*
X14450106Y-9790984D01*
X14450106Y-9790984D02*
X14573915Y-9790984D01*
X14812010Y-9790984D02*
X14812010Y-9590984D01*
X14897725Y-9790984D02*
X14897725Y-9686222D01*
X14897725Y-9686222D02*
X14888201Y-9667174D01*
X14888201Y-9667174D02*
X14869153Y-9657650D01*
X14869153Y-9657650D02*
X14840582Y-9657650D01*
X14840582Y-9657650D02*
X14821534Y-9667174D01*
X14821534Y-9667174D02*
X14812010Y-9676698D01*
X15021534Y-9790984D02*
X15002487Y-9781460D01*
X15002487Y-9781460D02*
X14992963Y-9771936D01*
X14992963Y-9771936D02*
X14983439Y-9752889D01*
X14983439Y-9752889D02*
X14983439Y-9695746D01*
X14983439Y-9695746D02*
X14992963Y-9676698D01*
X14992963Y-9676698D02*
X15002487Y-9667174D01*
X15002487Y-9667174D02*
X15021534Y-9657650D01*
X15021534Y-9657650D02*
X15050106Y-9657650D01*
X15050106Y-9657650D02*
X15069153Y-9667174D01*
X15069153Y-9667174D02*
X15078677Y-9676698D01*
X15078677Y-9676698D02*
X15088201Y-9695746D01*
X15088201Y-9695746D02*
X15088201Y-9752889D01*
X15088201Y-9752889D02*
X15078677Y-9771936D01*
X15078677Y-9771936D02*
X15069153Y-9781460D01*
X15069153Y-9781460D02*
X15050106Y-9790984D01*
X15050106Y-9790984D02*
X15021534Y-9790984D01*
X15202487Y-9790984D02*
X15183439Y-9781460D01*
X15183439Y-9781460D02*
X15173915Y-9762412D01*
X15173915Y-9762412D02*
X15173915Y-9590984D01*
X15354868Y-9781460D02*
X15335820Y-9790984D01*
X15335820Y-9790984D02*
X15297725Y-9790984D01*
X15297725Y-9790984D02*
X15278677Y-9781460D01*
X15278677Y-9781460D02*
X15269153Y-9762412D01*
X15269153Y-9762412D02*
X15269153Y-9686222D01*
X15269153Y-9686222D02*
X15278677Y-9667174D01*
X15278677Y-9667174D02*
X15297725Y-9657650D01*
X15297725Y-9657650D02*
X15335820Y-9657650D01*
X15335820Y-9657650D02*
X15354868Y-9667174D01*
X15354868Y-9667174D02*
X15364391Y-9686222D01*
X15364391Y-9686222D02*
X15364391Y-9705270D01*
X15364391Y-9705270D02*
X15269153Y-9724317D01*
X15440582Y-9781460D02*
X15459630Y-9790984D01*
X15459630Y-9790984D02*
X15497725Y-9790984D01*
X15497725Y-9790984D02*
X15516772Y-9781460D01*
X15516772Y-9781460D02*
X15526296Y-9762412D01*
X15526296Y-9762412D02*
X15526296Y-9752889D01*
X15526296Y-9752889D02*
X15516772Y-9733841D01*
X15516772Y-9733841D02*
X15497725Y-9724317D01*
X15497725Y-9724317D02*
X15469153Y-9724317D01*
X15469153Y-9724317D02*
X15450106Y-9714793D01*
X15450106Y-9714793D02*
X15440582Y-9695746D01*
X15440582Y-9695746D02*
X15440582Y-9686222D01*
X15440582Y-9686222D02*
X15450106Y-9667174D01*
X15450106Y-9667174D02*
X15469153Y-9657650D01*
X15469153Y-9657650D02*
X15497725Y-9657650D01*
X15497725Y-9657650D02*
X15516772Y-9667174D01*
X15592963Y-9867174D02*
X15602487Y-9857650D01*
X15602487Y-9857650D02*
X15621534Y-9829079D01*
X15621534Y-9829079D02*
X15631058Y-9810031D01*
X15631058Y-9810031D02*
X15640582Y-9781460D01*
X15640582Y-9781460D02*
X15650106Y-9733841D01*
X15650106Y-9733841D02*
X15650106Y-9695746D01*
X15650106Y-9695746D02*
X15640582Y-9648127D01*
X15640582Y-9648127D02*
X15631058Y-9619555D01*
X15631058Y-9619555D02*
X15621534Y-9600508D01*
X15621534Y-9600508D02*
X15602487Y-9571936D01*
X15602487Y-9571936D02*
X15592963Y-9562412D01*
M02*
