%TF.GenerationSoftware,KiCad,Pcbnew,8.0.2*%
%TF.CreationDate,2024-06-12T11:30:58+02:00*%
%TF.ProjectId,e07-900m10s-breakout,6530372d-3930-4306-9d31-30732d627265,rev?*%
%TF.SameCoordinates,Original*%
%TF.FileFunction,Legend,Top*%
%TF.FilePolarity,Positive*%
%FSLAX46Y46*%
G04 Gerber Fmt 4.6, Leading zero omitted, Abs format (unit mm)*
G04 Created by KiCad (PCBNEW 8.0.2) date 2024-06-12 11:30:58*
%MOMM*%
%LPD*%
G01*
G04 APERTURE LIST*
%ADD10C,0.150000*%
%ADD11C,0.100000*%
%ADD12C,0.120000*%
%ADD13C,0.254000*%
G04 APERTURE END LIST*
D10*
X117176779Y-69084819D02*
X117176779Y-68084819D01*
X117176779Y-68084819D02*
X117510112Y-68799104D01*
X117510112Y-68799104D02*
X117843445Y-68084819D01*
X117843445Y-68084819D02*
X117843445Y-69084819D01*
X118510112Y-68084819D02*
X118700588Y-68084819D01*
X118700588Y-68084819D02*
X118795826Y-68132438D01*
X118795826Y-68132438D02*
X118891064Y-68227676D01*
X118891064Y-68227676D02*
X118938683Y-68418152D01*
X118938683Y-68418152D02*
X118938683Y-68751485D01*
X118938683Y-68751485D02*
X118891064Y-68941961D01*
X118891064Y-68941961D02*
X118795826Y-69037200D01*
X118795826Y-69037200D02*
X118700588Y-69084819D01*
X118700588Y-69084819D02*
X118510112Y-69084819D01*
X118510112Y-69084819D02*
X118414874Y-69037200D01*
X118414874Y-69037200D02*
X118319636Y-68941961D01*
X118319636Y-68941961D02*
X118272017Y-68751485D01*
X118272017Y-68751485D02*
X118272017Y-68418152D01*
X118272017Y-68418152D02*
X118319636Y-68227676D01*
X118319636Y-68227676D02*
X118414874Y-68132438D01*
X118414874Y-68132438D02*
X118510112Y-68084819D01*
X119319636Y-69037200D02*
X119462493Y-69084819D01*
X119462493Y-69084819D02*
X119700588Y-69084819D01*
X119700588Y-69084819D02*
X119795826Y-69037200D01*
X119795826Y-69037200D02*
X119843445Y-68989580D01*
X119843445Y-68989580D02*
X119891064Y-68894342D01*
X119891064Y-68894342D02*
X119891064Y-68799104D01*
X119891064Y-68799104D02*
X119843445Y-68703866D01*
X119843445Y-68703866D02*
X119795826Y-68656247D01*
X119795826Y-68656247D02*
X119700588Y-68608628D01*
X119700588Y-68608628D02*
X119510112Y-68561009D01*
X119510112Y-68561009D02*
X119414874Y-68513390D01*
X119414874Y-68513390D02*
X119367255Y-68465771D01*
X119367255Y-68465771D02*
X119319636Y-68370533D01*
X119319636Y-68370533D02*
X119319636Y-68275295D01*
X119319636Y-68275295D02*
X119367255Y-68180057D01*
X119367255Y-68180057D02*
X119414874Y-68132438D01*
X119414874Y-68132438D02*
X119510112Y-68084819D01*
X119510112Y-68084819D02*
X119748207Y-68084819D01*
X119748207Y-68084819D02*
X119891064Y-68132438D01*
X120319636Y-69084819D02*
X120319636Y-68084819D01*
X117700588Y-55432438D02*
X117605350Y-55384819D01*
X117605350Y-55384819D02*
X117462493Y-55384819D01*
X117462493Y-55384819D02*
X117319636Y-55432438D01*
X117319636Y-55432438D02*
X117224398Y-55527676D01*
X117224398Y-55527676D02*
X117176779Y-55622914D01*
X117176779Y-55622914D02*
X117129160Y-55813390D01*
X117129160Y-55813390D02*
X117129160Y-55956247D01*
X117129160Y-55956247D02*
X117176779Y-56146723D01*
X117176779Y-56146723D02*
X117224398Y-56241961D01*
X117224398Y-56241961D02*
X117319636Y-56337200D01*
X117319636Y-56337200D02*
X117462493Y-56384819D01*
X117462493Y-56384819D02*
X117557731Y-56384819D01*
X117557731Y-56384819D02*
X117700588Y-56337200D01*
X117700588Y-56337200D02*
X117748207Y-56289580D01*
X117748207Y-56289580D02*
X117748207Y-55956247D01*
X117748207Y-55956247D02*
X117557731Y-55956247D01*
X118176779Y-56384819D02*
X118176779Y-55384819D01*
X118176779Y-55384819D02*
X118414874Y-55384819D01*
X118414874Y-55384819D02*
X118557731Y-55432438D01*
X118557731Y-55432438D02*
X118652969Y-55527676D01*
X118652969Y-55527676D02*
X118700588Y-55622914D01*
X118700588Y-55622914D02*
X118748207Y-55813390D01*
X118748207Y-55813390D02*
X118748207Y-55956247D01*
X118748207Y-55956247D02*
X118700588Y-56146723D01*
X118700588Y-56146723D02*
X118652969Y-56241961D01*
X118652969Y-56241961D02*
X118557731Y-56337200D01*
X118557731Y-56337200D02*
X118414874Y-56384819D01*
X118414874Y-56384819D02*
X118176779Y-56384819D01*
X119367255Y-55384819D02*
X119557731Y-55384819D01*
X119557731Y-55384819D02*
X119652969Y-55432438D01*
X119652969Y-55432438D02*
X119748207Y-55527676D01*
X119748207Y-55527676D02*
X119795826Y-55718152D01*
X119795826Y-55718152D02*
X119795826Y-56051485D01*
X119795826Y-56051485D02*
X119748207Y-56241961D01*
X119748207Y-56241961D02*
X119652969Y-56337200D01*
X119652969Y-56337200D02*
X119557731Y-56384819D01*
X119557731Y-56384819D02*
X119367255Y-56384819D01*
X119367255Y-56384819D02*
X119272017Y-56337200D01*
X119272017Y-56337200D02*
X119176779Y-56241961D01*
X119176779Y-56241961D02*
X119129160Y-56051485D01*
X119129160Y-56051485D02*
X119129160Y-55718152D01*
X119129160Y-55718152D02*
X119176779Y-55527676D01*
X119176779Y-55527676D02*
X119272017Y-55432438D01*
X119272017Y-55432438D02*
X119367255Y-55384819D01*
X120176779Y-55480057D02*
X120224398Y-55432438D01*
X120224398Y-55432438D02*
X120319636Y-55384819D01*
X120319636Y-55384819D02*
X120557731Y-55384819D01*
X120557731Y-55384819D02*
X120652969Y-55432438D01*
X120652969Y-55432438D02*
X120700588Y-55480057D01*
X120700588Y-55480057D02*
X120748207Y-55575295D01*
X120748207Y-55575295D02*
X120748207Y-55670533D01*
X120748207Y-55670533D02*
X120700588Y-55813390D01*
X120700588Y-55813390D02*
X120129160Y-56384819D01*
X120129160Y-56384819D02*
X120748207Y-56384819D01*
X117748207Y-61369580D02*
X117700588Y-61417200D01*
X117700588Y-61417200D02*
X117557731Y-61464819D01*
X117557731Y-61464819D02*
X117462493Y-61464819D01*
X117462493Y-61464819D02*
X117319636Y-61417200D01*
X117319636Y-61417200D02*
X117224398Y-61321961D01*
X117224398Y-61321961D02*
X117176779Y-61226723D01*
X117176779Y-61226723D02*
X117129160Y-61036247D01*
X117129160Y-61036247D02*
X117129160Y-60893390D01*
X117129160Y-60893390D02*
X117176779Y-60702914D01*
X117176779Y-60702914D02*
X117224398Y-60607676D01*
X117224398Y-60607676D02*
X117319636Y-60512438D01*
X117319636Y-60512438D02*
X117462493Y-60464819D01*
X117462493Y-60464819D02*
X117557731Y-60464819D01*
X117557731Y-60464819D02*
X117700588Y-60512438D01*
X117700588Y-60512438D02*
X117748207Y-60560057D01*
X118129160Y-61417200D02*
X118272017Y-61464819D01*
X118272017Y-61464819D02*
X118510112Y-61464819D01*
X118510112Y-61464819D02*
X118605350Y-61417200D01*
X118605350Y-61417200D02*
X118652969Y-61369580D01*
X118652969Y-61369580D02*
X118700588Y-61274342D01*
X118700588Y-61274342D02*
X118700588Y-61179104D01*
X118700588Y-61179104D02*
X118652969Y-61083866D01*
X118652969Y-61083866D02*
X118605350Y-61036247D01*
X118605350Y-61036247D02*
X118510112Y-60988628D01*
X118510112Y-60988628D02*
X118319636Y-60941009D01*
X118319636Y-60941009D02*
X118224398Y-60893390D01*
X118224398Y-60893390D02*
X118176779Y-60845771D01*
X118176779Y-60845771D02*
X118129160Y-60750533D01*
X118129160Y-60750533D02*
X118129160Y-60655295D01*
X118129160Y-60655295D02*
X118176779Y-60560057D01*
X118176779Y-60560057D02*
X118224398Y-60512438D01*
X118224398Y-60512438D02*
X118319636Y-60464819D01*
X118319636Y-60464819D02*
X118557731Y-60464819D01*
X118557731Y-60464819D02*
X118700588Y-60512438D01*
X119129160Y-61464819D02*
X119129160Y-60464819D01*
X119129160Y-60464819D02*
X119700588Y-61464819D01*
X119700588Y-61464819D02*
X119700588Y-60464819D01*
X117700588Y-73212438D02*
X117605350Y-73164819D01*
X117605350Y-73164819D02*
X117462493Y-73164819D01*
X117462493Y-73164819D02*
X117319636Y-73212438D01*
X117319636Y-73212438D02*
X117224398Y-73307676D01*
X117224398Y-73307676D02*
X117176779Y-73402914D01*
X117176779Y-73402914D02*
X117129160Y-73593390D01*
X117129160Y-73593390D02*
X117129160Y-73736247D01*
X117129160Y-73736247D02*
X117176779Y-73926723D01*
X117176779Y-73926723D02*
X117224398Y-74021961D01*
X117224398Y-74021961D02*
X117319636Y-74117200D01*
X117319636Y-74117200D02*
X117462493Y-74164819D01*
X117462493Y-74164819D02*
X117557731Y-74164819D01*
X117557731Y-74164819D02*
X117700588Y-74117200D01*
X117700588Y-74117200D02*
X117748207Y-74069580D01*
X117748207Y-74069580D02*
X117748207Y-73736247D01*
X117748207Y-73736247D02*
X117557731Y-73736247D01*
X118176779Y-74164819D02*
X118176779Y-73164819D01*
X118176779Y-73164819D02*
X118748207Y-74164819D01*
X118748207Y-74164819D02*
X118748207Y-73164819D01*
X119224398Y-74164819D02*
X119224398Y-73164819D01*
X119224398Y-73164819D02*
X119462493Y-73164819D01*
X119462493Y-73164819D02*
X119605350Y-73212438D01*
X119605350Y-73212438D02*
X119700588Y-73307676D01*
X119700588Y-73307676D02*
X119748207Y-73402914D01*
X119748207Y-73402914D02*
X119795826Y-73593390D01*
X119795826Y-73593390D02*
X119795826Y-73736247D01*
X119795826Y-73736247D02*
X119748207Y-73926723D01*
X119748207Y-73926723D02*
X119700588Y-74021961D01*
X119700588Y-74021961D02*
X119605350Y-74117200D01*
X119605350Y-74117200D02*
X119462493Y-74164819D01*
X119462493Y-74164819D02*
X119224398Y-74164819D01*
X117129160Y-66497200D02*
X117272017Y-66544819D01*
X117272017Y-66544819D02*
X117510112Y-66544819D01*
X117510112Y-66544819D02*
X117605350Y-66497200D01*
X117605350Y-66497200D02*
X117652969Y-66449580D01*
X117652969Y-66449580D02*
X117700588Y-66354342D01*
X117700588Y-66354342D02*
X117700588Y-66259104D01*
X117700588Y-66259104D02*
X117652969Y-66163866D01*
X117652969Y-66163866D02*
X117605350Y-66116247D01*
X117605350Y-66116247D02*
X117510112Y-66068628D01*
X117510112Y-66068628D02*
X117319636Y-66021009D01*
X117319636Y-66021009D02*
X117224398Y-65973390D01*
X117224398Y-65973390D02*
X117176779Y-65925771D01*
X117176779Y-65925771D02*
X117129160Y-65830533D01*
X117129160Y-65830533D02*
X117129160Y-65735295D01*
X117129160Y-65735295D02*
X117176779Y-65640057D01*
X117176779Y-65640057D02*
X117224398Y-65592438D01*
X117224398Y-65592438D02*
X117319636Y-65544819D01*
X117319636Y-65544819D02*
X117557731Y-65544819D01*
X117557731Y-65544819D02*
X117700588Y-65592438D01*
X118700588Y-66449580D02*
X118652969Y-66497200D01*
X118652969Y-66497200D02*
X118510112Y-66544819D01*
X118510112Y-66544819D02*
X118414874Y-66544819D01*
X118414874Y-66544819D02*
X118272017Y-66497200D01*
X118272017Y-66497200D02*
X118176779Y-66401961D01*
X118176779Y-66401961D02*
X118129160Y-66306723D01*
X118129160Y-66306723D02*
X118081541Y-66116247D01*
X118081541Y-66116247D02*
X118081541Y-65973390D01*
X118081541Y-65973390D02*
X118129160Y-65782914D01*
X118129160Y-65782914D02*
X118176779Y-65687676D01*
X118176779Y-65687676D02*
X118272017Y-65592438D01*
X118272017Y-65592438D02*
X118414874Y-65544819D01*
X118414874Y-65544819D02*
X118510112Y-65544819D01*
X118510112Y-65544819D02*
X118652969Y-65592438D01*
X118652969Y-65592438D02*
X118700588Y-65640057D01*
X119605350Y-66544819D02*
X119129160Y-66544819D01*
X119129160Y-66544819D02*
X119129160Y-65544819D01*
X119938684Y-66544819D02*
X119938684Y-65544819D01*
X120510112Y-66544819D02*
X120081541Y-65973390D01*
X120510112Y-65544819D02*
X119938684Y-66116247D01*
X117176779Y-64004819D02*
X117176779Y-63004819D01*
X117176779Y-63004819D02*
X117510112Y-63719104D01*
X117510112Y-63719104D02*
X117843445Y-63004819D01*
X117843445Y-63004819D02*
X117843445Y-64004819D01*
X118319636Y-64004819D02*
X118319636Y-63004819D01*
X118748207Y-63957200D02*
X118891064Y-64004819D01*
X118891064Y-64004819D02*
X119129159Y-64004819D01*
X119129159Y-64004819D02*
X119224397Y-63957200D01*
X119224397Y-63957200D02*
X119272016Y-63909580D01*
X119272016Y-63909580D02*
X119319635Y-63814342D01*
X119319635Y-63814342D02*
X119319635Y-63719104D01*
X119319635Y-63719104D02*
X119272016Y-63623866D01*
X119272016Y-63623866D02*
X119224397Y-63576247D01*
X119224397Y-63576247D02*
X119129159Y-63528628D01*
X119129159Y-63528628D02*
X118938683Y-63481009D01*
X118938683Y-63481009D02*
X118843445Y-63433390D01*
X118843445Y-63433390D02*
X118795826Y-63385771D01*
X118795826Y-63385771D02*
X118748207Y-63290533D01*
X118748207Y-63290533D02*
X118748207Y-63195295D01*
X118748207Y-63195295D02*
X118795826Y-63100057D01*
X118795826Y-63100057D02*
X118843445Y-63052438D01*
X118843445Y-63052438D02*
X118938683Y-63004819D01*
X118938683Y-63004819D02*
X119176778Y-63004819D01*
X119176778Y-63004819D02*
X119319635Y-63052438D01*
X119938683Y-63004819D02*
X120129159Y-63004819D01*
X120129159Y-63004819D02*
X120224397Y-63052438D01*
X120224397Y-63052438D02*
X120319635Y-63147676D01*
X120319635Y-63147676D02*
X120367254Y-63338152D01*
X120367254Y-63338152D02*
X120367254Y-63671485D01*
X120367254Y-63671485D02*
X120319635Y-63861961D01*
X120319635Y-63861961D02*
X120224397Y-63957200D01*
X120224397Y-63957200D02*
X120129159Y-64004819D01*
X120129159Y-64004819D02*
X119938683Y-64004819D01*
X119938683Y-64004819D02*
X119843445Y-63957200D01*
X119843445Y-63957200D02*
X119748207Y-63861961D01*
X119748207Y-63861961D02*
X119700588Y-63671485D01*
X119700588Y-63671485D02*
X119700588Y-63338152D01*
X119700588Y-63338152D02*
X119748207Y-63147676D01*
X119748207Y-63147676D02*
X119843445Y-63052438D01*
X119843445Y-63052438D02*
X119938683Y-63004819D01*
X117081541Y-70624819D02*
X117700588Y-70624819D01*
X117700588Y-70624819D02*
X117367255Y-71005771D01*
X117367255Y-71005771D02*
X117510112Y-71005771D01*
X117510112Y-71005771D02*
X117605350Y-71053390D01*
X117605350Y-71053390D02*
X117652969Y-71101009D01*
X117652969Y-71101009D02*
X117700588Y-71196247D01*
X117700588Y-71196247D02*
X117700588Y-71434342D01*
X117700588Y-71434342D02*
X117652969Y-71529580D01*
X117652969Y-71529580D02*
X117605350Y-71577200D01*
X117605350Y-71577200D02*
X117510112Y-71624819D01*
X117510112Y-71624819D02*
X117224398Y-71624819D01*
X117224398Y-71624819D02*
X117129160Y-71577200D01*
X117129160Y-71577200D02*
X117081541Y-71529580D01*
X117986303Y-70624819D02*
X118319636Y-71624819D01*
X118319636Y-71624819D02*
X118652969Y-70624819D01*
X118891065Y-70624819D02*
X119510112Y-70624819D01*
X119510112Y-70624819D02*
X119176779Y-71005771D01*
X119176779Y-71005771D02*
X119319636Y-71005771D01*
X119319636Y-71005771D02*
X119414874Y-71053390D01*
X119414874Y-71053390D02*
X119462493Y-71101009D01*
X119462493Y-71101009D02*
X119510112Y-71196247D01*
X119510112Y-71196247D02*
X119510112Y-71434342D01*
X119510112Y-71434342D02*
X119462493Y-71529580D01*
X119462493Y-71529580D02*
X119414874Y-71577200D01*
X119414874Y-71577200D02*
X119319636Y-71624819D01*
X119319636Y-71624819D02*
X119033922Y-71624819D01*
X119033922Y-71624819D02*
X118938684Y-71577200D01*
X118938684Y-71577200D02*
X118891065Y-71529580D01*
X117700588Y-57972438D02*
X117605350Y-57924819D01*
X117605350Y-57924819D02*
X117462493Y-57924819D01*
X117462493Y-57924819D02*
X117319636Y-57972438D01*
X117319636Y-57972438D02*
X117224398Y-58067676D01*
X117224398Y-58067676D02*
X117176779Y-58162914D01*
X117176779Y-58162914D02*
X117129160Y-58353390D01*
X117129160Y-58353390D02*
X117129160Y-58496247D01*
X117129160Y-58496247D02*
X117176779Y-58686723D01*
X117176779Y-58686723D02*
X117224398Y-58781961D01*
X117224398Y-58781961D02*
X117319636Y-58877200D01*
X117319636Y-58877200D02*
X117462493Y-58924819D01*
X117462493Y-58924819D02*
X117557731Y-58924819D01*
X117557731Y-58924819D02*
X117700588Y-58877200D01*
X117700588Y-58877200D02*
X117748207Y-58829580D01*
X117748207Y-58829580D02*
X117748207Y-58496247D01*
X117748207Y-58496247D02*
X117557731Y-58496247D01*
X118176779Y-58924819D02*
X118176779Y-57924819D01*
X118176779Y-57924819D02*
X118414874Y-57924819D01*
X118414874Y-57924819D02*
X118557731Y-57972438D01*
X118557731Y-57972438D02*
X118652969Y-58067676D01*
X118652969Y-58067676D02*
X118700588Y-58162914D01*
X118700588Y-58162914D02*
X118748207Y-58353390D01*
X118748207Y-58353390D02*
X118748207Y-58496247D01*
X118748207Y-58496247D02*
X118700588Y-58686723D01*
X118700588Y-58686723D02*
X118652969Y-58781961D01*
X118652969Y-58781961D02*
X118557731Y-58877200D01*
X118557731Y-58877200D02*
X118414874Y-58924819D01*
X118414874Y-58924819D02*
X118176779Y-58924819D01*
X119367255Y-57924819D02*
X119557731Y-57924819D01*
X119557731Y-57924819D02*
X119652969Y-57972438D01*
X119652969Y-57972438D02*
X119748207Y-58067676D01*
X119748207Y-58067676D02*
X119795826Y-58258152D01*
X119795826Y-58258152D02*
X119795826Y-58591485D01*
X119795826Y-58591485D02*
X119748207Y-58781961D01*
X119748207Y-58781961D02*
X119652969Y-58877200D01*
X119652969Y-58877200D02*
X119557731Y-58924819D01*
X119557731Y-58924819D02*
X119367255Y-58924819D01*
X119367255Y-58924819D02*
X119272017Y-58877200D01*
X119272017Y-58877200D02*
X119176779Y-58781961D01*
X119176779Y-58781961D02*
X119129160Y-58591485D01*
X119129160Y-58591485D02*
X119129160Y-58258152D01*
X119129160Y-58258152D02*
X119176779Y-58067676D01*
X119176779Y-58067676D02*
X119272017Y-57972438D01*
X119272017Y-57972438D02*
X119367255Y-57924819D01*
X120414874Y-57924819D02*
X120510112Y-57924819D01*
X120510112Y-57924819D02*
X120605350Y-57972438D01*
X120605350Y-57972438D02*
X120652969Y-58020057D01*
X120652969Y-58020057D02*
X120700588Y-58115295D01*
X120700588Y-58115295D02*
X120748207Y-58305771D01*
X120748207Y-58305771D02*
X120748207Y-58543866D01*
X120748207Y-58543866D02*
X120700588Y-58734342D01*
X120700588Y-58734342D02*
X120652969Y-58829580D01*
X120652969Y-58829580D02*
X120605350Y-58877200D01*
X120605350Y-58877200D02*
X120510112Y-58924819D01*
X120510112Y-58924819D02*
X120414874Y-58924819D01*
X120414874Y-58924819D02*
X120319636Y-58877200D01*
X120319636Y-58877200D02*
X120272017Y-58829580D01*
X120272017Y-58829580D02*
X120224398Y-58734342D01*
X120224398Y-58734342D02*
X120176779Y-58543866D01*
X120176779Y-58543866D02*
X120176779Y-58305771D01*
X120176779Y-58305771D02*
X120224398Y-58115295D01*
X120224398Y-58115295D02*
X120272017Y-58020057D01*
X120272017Y-58020057D02*
X120319636Y-57972438D01*
X120319636Y-57972438D02*
X120414874Y-57924819D01*
X154233920Y-73718644D02*
X154233920Y-72718644D01*
X154233920Y-73194834D02*
X154805348Y-73194834D01*
X154805348Y-73718644D02*
X154805348Y-72718644D01*
X155186301Y-72718644D02*
X155805348Y-72718644D01*
X155805348Y-72718644D02*
X155472015Y-73099596D01*
X155472015Y-73099596D02*
X155614872Y-73099596D01*
X155614872Y-73099596D02*
X155710110Y-73147215D01*
X155710110Y-73147215D02*
X155757729Y-73194834D01*
X155757729Y-73194834D02*
X155805348Y-73290072D01*
X155805348Y-73290072D02*
X155805348Y-73528167D01*
X155805348Y-73528167D02*
X155757729Y-73623405D01*
X155757729Y-73623405D02*
X155710110Y-73671025D01*
X155710110Y-73671025D02*
X155614872Y-73718644D01*
X155614872Y-73718644D02*
X155329158Y-73718644D01*
X155329158Y-73718644D02*
X155233920Y-73671025D01*
X155233920Y-73671025D02*
X155186301Y-73623405D01*
D11*
X147941125Y-60416027D02*
X147972077Y-60354122D01*
X147972077Y-60354122D02*
X147972077Y-60261265D01*
X147972077Y-60261265D02*
X147941125Y-60168408D01*
X147941125Y-60168408D02*
X147879220Y-60106503D01*
X147879220Y-60106503D02*
X147817315Y-60075550D01*
X147817315Y-60075550D02*
X147693506Y-60044598D01*
X147693506Y-60044598D02*
X147600649Y-60044598D01*
X147600649Y-60044598D02*
X147476839Y-60075550D01*
X147476839Y-60075550D02*
X147414934Y-60106503D01*
X147414934Y-60106503D02*
X147353030Y-60168408D01*
X147353030Y-60168408D02*
X147322077Y-60261265D01*
X147322077Y-60261265D02*
X147322077Y-60323169D01*
X147322077Y-60323169D02*
X147353030Y-60416027D01*
X147353030Y-60416027D02*
X147383982Y-60446979D01*
X147383982Y-60446979D02*
X147600649Y-60446979D01*
X147600649Y-60446979D02*
X147600649Y-60323169D01*
X147322077Y-60725550D02*
X147972077Y-60725550D01*
X147972077Y-60725550D02*
X147322077Y-61096979D01*
X147322077Y-61096979D02*
X147972077Y-61096979D01*
X147322077Y-61406502D02*
X147972077Y-61406502D01*
X147972077Y-61406502D02*
X147972077Y-61561264D01*
X147972077Y-61561264D02*
X147941125Y-61654121D01*
X147941125Y-61654121D02*
X147879220Y-61716026D01*
X147879220Y-61716026D02*
X147817315Y-61746979D01*
X147817315Y-61746979D02*
X147693506Y-61777931D01*
X147693506Y-61777931D02*
X147600649Y-61777931D01*
X147600649Y-61777931D02*
X147476839Y-61746979D01*
X147476839Y-61746979D02*
X147414934Y-61716026D01*
X147414934Y-61716026D02*
X147353030Y-61654121D01*
X147353030Y-61654121D02*
X147322077Y-61561264D01*
X147322077Y-61561264D02*
X147322077Y-61406502D01*
X139340700Y-69165598D02*
X139309747Y-69258455D01*
X139309747Y-69258455D02*
X139309747Y-69413217D01*
X139309747Y-69413217D02*
X139340700Y-69475122D01*
X139340700Y-69475122D02*
X139371652Y-69506074D01*
X139371652Y-69506074D02*
X139433557Y-69537027D01*
X139433557Y-69537027D02*
X139495461Y-69537027D01*
X139495461Y-69537027D02*
X139557366Y-69506074D01*
X139557366Y-69506074D02*
X139588319Y-69475122D01*
X139588319Y-69475122D02*
X139619271Y-69413217D01*
X139619271Y-69413217D02*
X139650223Y-69289408D01*
X139650223Y-69289408D02*
X139681176Y-69227503D01*
X139681176Y-69227503D02*
X139712128Y-69196550D01*
X139712128Y-69196550D02*
X139774033Y-69165598D01*
X139774033Y-69165598D02*
X139835938Y-69165598D01*
X139835938Y-69165598D02*
X139897842Y-69196550D01*
X139897842Y-69196550D02*
X139928795Y-69227503D01*
X139928795Y-69227503D02*
X139959747Y-69289408D01*
X139959747Y-69289408D02*
X139959747Y-69444169D01*
X139959747Y-69444169D02*
X139928795Y-69537027D01*
X139371652Y-70187027D02*
X139340700Y-70156075D01*
X139340700Y-70156075D02*
X139309747Y-70063217D01*
X139309747Y-70063217D02*
X139309747Y-70001313D01*
X139309747Y-70001313D02*
X139340700Y-69908456D01*
X139340700Y-69908456D02*
X139402604Y-69846551D01*
X139402604Y-69846551D02*
X139464509Y-69815598D01*
X139464509Y-69815598D02*
X139588319Y-69784646D01*
X139588319Y-69784646D02*
X139681176Y-69784646D01*
X139681176Y-69784646D02*
X139804985Y-69815598D01*
X139804985Y-69815598D02*
X139866890Y-69846551D01*
X139866890Y-69846551D02*
X139928795Y-69908456D01*
X139928795Y-69908456D02*
X139959747Y-70001313D01*
X139959747Y-70001313D02*
X139959747Y-70063217D01*
X139959747Y-70063217D02*
X139928795Y-70156075D01*
X139928795Y-70156075D02*
X139897842Y-70187027D01*
X139309747Y-70465598D02*
X139959747Y-70465598D01*
X139309747Y-70837027D02*
X139681176Y-70558456D01*
X139959747Y-70837027D02*
X139588319Y-70465598D01*
X136674297Y-60105550D02*
X137324297Y-60105550D01*
X137324297Y-60105550D02*
X136674297Y-60476979D01*
X136674297Y-60476979D02*
X137324297Y-60476979D01*
X136736202Y-61157931D02*
X136705250Y-61126979D01*
X136705250Y-61126979D02*
X136674297Y-61034121D01*
X136674297Y-61034121D02*
X136674297Y-60972217D01*
X136674297Y-60972217D02*
X136705250Y-60879360D01*
X136705250Y-60879360D02*
X136767154Y-60817455D01*
X136767154Y-60817455D02*
X136829059Y-60786502D01*
X136829059Y-60786502D02*
X136952869Y-60755550D01*
X136952869Y-60755550D02*
X137045726Y-60755550D01*
X137045726Y-60755550D02*
X137169535Y-60786502D01*
X137169535Y-60786502D02*
X137231440Y-60817455D01*
X137231440Y-60817455D02*
X137293345Y-60879360D01*
X137293345Y-60879360D02*
X137324297Y-60972217D01*
X137324297Y-60972217D02*
X137324297Y-61034121D01*
X137324297Y-61034121D02*
X137293345Y-61126979D01*
X137293345Y-61126979D02*
X137262392Y-61157931D01*
X146662235Y-60416027D02*
X146693187Y-60354122D01*
X146693187Y-60354122D02*
X146693187Y-60261265D01*
X146693187Y-60261265D02*
X146662235Y-60168408D01*
X146662235Y-60168408D02*
X146600330Y-60106503D01*
X146600330Y-60106503D02*
X146538425Y-60075550D01*
X146538425Y-60075550D02*
X146414616Y-60044598D01*
X146414616Y-60044598D02*
X146321759Y-60044598D01*
X146321759Y-60044598D02*
X146197949Y-60075550D01*
X146197949Y-60075550D02*
X146136044Y-60106503D01*
X146136044Y-60106503D02*
X146074140Y-60168408D01*
X146074140Y-60168408D02*
X146043187Y-60261265D01*
X146043187Y-60261265D02*
X146043187Y-60323169D01*
X146043187Y-60323169D02*
X146074140Y-60416027D01*
X146074140Y-60416027D02*
X146105092Y-60446979D01*
X146105092Y-60446979D02*
X146321759Y-60446979D01*
X146321759Y-60446979D02*
X146321759Y-60323169D01*
X146043187Y-60725550D02*
X146693187Y-60725550D01*
X146693187Y-60725550D02*
X146043187Y-61096979D01*
X146043187Y-61096979D02*
X146693187Y-61096979D01*
X146043187Y-61406502D02*
X146693187Y-61406502D01*
X146693187Y-61406502D02*
X146693187Y-61561264D01*
X146693187Y-61561264D02*
X146662235Y-61654121D01*
X146662235Y-61654121D02*
X146600330Y-61716026D01*
X146600330Y-61716026D02*
X146538425Y-61746979D01*
X146538425Y-61746979D02*
X146414616Y-61777931D01*
X146414616Y-61777931D02*
X146321759Y-61777931D01*
X146321759Y-61777931D02*
X146197949Y-61746979D01*
X146197949Y-61746979D02*
X146136044Y-61716026D01*
X146136044Y-61716026D02*
X146074140Y-61654121D01*
X146074140Y-61654121D02*
X146043187Y-61561264D01*
X146043187Y-61561264D02*
X146043187Y-61406502D01*
X149220015Y-69521027D02*
X149250967Y-69459122D01*
X149250967Y-69459122D02*
X149250967Y-69366265D01*
X149250967Y-69366265D02*
X149220015Y-69273408D01*
X149220015Y-69273408D02*
X149158110Y-69211503D01*
X149158110Y-69211503D02*
X149096205Y-69180550D01*
X149096205Y-69180550D02*
X148972396Y-69149598D01*
X148972396Y-69149598D02*
X148879539Y-69149598D01*
X148879539Y-69149598D02*
X148755729Y-69180550D01*
X148755729Y-69180550D02*
X148693824Y-69211503D01*
X148693824Y-69211503D02*
X148631920Y-69273408D01*
X148631920Y-69273408D02*
X148600967Y-69366265D01*
X148600967Y-69366265D02*
X148600967Y-69428169D01*
X148600967Y-69428169D02*
X148631920Y-69521027D01*
X148631920Y-69521027D02*
X148662872Y-69551979D01*
X148662872Y-69551979D02*
X148879539Y-69551979D01*
X148879539Y-69551979D02*
X148879539Y-69428169D01*
X148600967Y-69830550D02*
X149250967Y-69830550D01*
X149250967Y-69830550D02*
X148600967Y-70201979D01*
X148600967Y-70201979D02*
X149250967Y-70201979D01*
X148600967Y-70511502D02*
X149250967Y-70511502D01*
X149250967Y-70511502D02*
X149250967Y-70666264D01*
X149250967Y-70666264D02*
X149220015Y-70759121D01*
X149220015Y-70759121D02*
X149158110Y-70821026D01*
X149158110Y-70821026D02*
X149096205Y-70851979D01*
X149096205Y-70851979D02*
X148972396Y-70882931D01*
X148972396Y-70882931D02*
X148879539Y-70882931D01*
X148879539Y-70882931D02*
X148755729Y-70851979D01*
X148755729Y-70851979D02*
X148693824Y-70821026D01*
X148693824Y-70821026D02*
X148631920Y-70759121D01*
X148631920Y-70759121D02*
X148600967Y-70666264D01*
X148600967Y-70666264D02*
X148600967Y-70511502D01*
X137953187Y-60105550D02*
X138603187Y-60105550D01*
X138603187Y-60105550D02*
X137953187Y-60476979D01*
X137953187Y-60476979D02*
X138603187Y-60476979D01*
X138015092Y-61157931D02*
X137984140Y-61126979D01*
X137984140Y-61126979D02*
X137953187Y-61034121D01*
X137953187Y-61034121D02*
X137953187Y-60972217D01*
X137953187Y-60972217D02*
X137984140Y-60879360D01*
X137984140Y-60879360D02*
X138046044Y-60817455D01*
X138046044Y-60817455D02*
X138107949Y-60786502D01*
X138107949Y-60786502D02*
X138231759Y-60755550D01*
X138231759Y-60755550D02*
X138324616Y-60755550D01*
X138324616Y-60755550D02*
X138448425Y-60786502D01*
X138448425Y-60786502D02*
X138510330Y-60817455D01*
X138510330Y-60817455D02*
X138572235Y-60879360D01*
X138572235Y-60879360D02*
X138603187Y-60972217D01*
X138603187Y-60972217D02*
X138603187Y-61034121D01*
X138603187Y-61034121D02*
X138572235Y-61126979D01*
X138572235Y-61126979D02*
X138541282Y-61157931D01*
X132385795Y-69507027D02*
X132416747Y-69445122D01*
X132416747Y-69445122D02*
X132416747Y-69352265D01*
X132416747Y-69352265D02*
X132385795Y-69259408D01*
X132385795Y-69259408D02*
X132323890Y-69197503D01*
X132323890Y-69197503D02*
X132261985Y-69166550D01*
X132261985Y-69166550D02*
X132138176Y-69135598D01*
X132138176Y-69135598D02*
X132045319Y-69135598D01*
X132045319Y-69135598D02*
X131921509Y-69166550D01*
X131921509Y-69166550D02*
X131859604Y-69197503D01*
X131859604Y-69197503D02*
X131797700Y-69259408D01*
X131797700Y-69259408D02*
X131766747Y-69352265D01*
X131766747Y-69352265D02*
X131766747Y-69414169D01*
X131766747Y-69414169D02*
X131797700Y-69507027D01*
X131797700Y-69507027D02*
X131828652Y-69537979D01*
X131828652Y-69537979D02*
X132045319Y-69537979D01*
X132045319Y-69537979D02*
X132045319Y-69414169D01*
X131766747Y-69816550D02*
X132416747Y-69816550D01*
X132416747Y-69816550D02*
X131766747Y-70187979D01*
X131766747Y-70187979D02*
X132416747Y-70187979D01*
X131766747Y-70497502D02*
X132416747Y-70497502D01*
X132416747Y-70497502D02*
X132416747Y-70652264D01*
X132416747Y-70652264D02*
X132385795Y-70745121D01*
X132385795Y-70745121D02*
X132323890Y-70807026D01*
X132323890Y-70807026D02*
X132261985Y-70837979D01*
X132261985Y-70837979D02*
X132138176Y-70868931D01*
X132138176Y-70868931D02*
X132045319Y-70868931D01*
X132045319Y-70868931D02*
X131921509Y-70837979D01*
X131921509Y-70837979D02*
X131859604Y-70807026D01*
X131859604Y-70807026D02*
X131797700Y-70745121D01*
X131797700Y-70745121D02*
X131766747Y-70652264D01*
X131766747Y-70652264D02*
X131766747Y-70497502D01*
X132207795Y-60446027D02*
X132238747Y-60384122D01*
X132238747Y-60384122D02*
X132238747Y-60291265D01*
X132238747Y-60291265D02*
X132207795Y-60198408D01*
X132207795Y-60198408D02*
X132145890Y-60136503D01*
X132145890Y-60136503D02*
X132083985Y-60105550D01*
X132083985Y-60105550D02*
X131960176Y-60074598D01*
X131960176Y-60074598D02*
X131867319Y-60074598D01*
X131867319Y-60074598D02*
X131743509Y-60105550D01*
X131743509Y-60105550D02*
X131681604Y-60136503D01*
X131681604Y-60136503D02*
X131619700Y-60198408D01*
X131619700Y-60198408D02*
X131588747Y-60291265D01*
X131588747Y-60291265D02*
X131588747Y-60353169D01*
X131588747Y-60353169D02*
X131619700Y-60446027D01*
X131619700Y-60446027D02*
X131650652Y-60476979D01*
X131650652Y-60476979D02*
X131867319Y-60476979D01*
X131867319Y-60476979D02*
X131867319Y-60353169D01*
X131588747Y-60755550D02*
X132238747Y-60755550D01*
X132238747Y-60755550D02*
X131588747Y-61126979D01*
X131588747Y-61126979D02*
X132238747Y-61126979D01*
X131588747Y-61436502D02*
X132238747Y-61436502D01*
X132238747Y-61436502D02*
X132238747Y-61591264D01*
X132238747Y-61591264D02*
X132207795Y-61684121D01*
X132207795Y-61684121D02*
X132145890Y-61746026D01*
X132145890Y-61746026D02*
X132083985Y-61776979D01*
X132083985Y-61776979D02*
X131960176Y-61807931D01*
X131960176Y-61807931D02*
X131867319Y-61807931D01*
X131867319Y-61807931D02*
X131743509Y-61776979D01*
X131743509Y-61776979D02*
X131681604Y-61746026D01*
X131681604Y-61746026D02*
X131619700Y-61684121D01*
X131619700Y-61684121D02*
X131588747Y-61591264D01*
X131588747Y-61591264D02*
X131588747Y-61436502D01*
X135395407Y-60105550D02*
X136045407Y-60105550D01*
X136045407Y-60105550D02*
X135395407Y-60476979D01*
X135395407Y-60476979D02*
X136045407Y-60476979D01*
X135457312Y-61157931D02*
X135426360Y-61126979D01*
X135426360Y-61126979D02*
X135395407Y-61034121D01*
X135395407Y-61034121D02*
X135395407Y-60972217D01*
X135395407Y-60972217D02*
X135426360Y-60879360D01*
X135426360Y-60879360D02*
X135488264Y-60817455D01*
X135488264Y-60817455D02*
X135550169Y-60786502D01*
X135550169Y-60786502D02*
X135673979Y-60755550D01*
X135673979Y-60755550D02*
X135766836Y-60755550D01*
X135766836Y-60755550D02*
X135890645Y-60786502D01*
X135890645Y-60786502D02*
X135952550Y-60817455D01*
X135952550Y-60817455D02*
X136014455Y-60879360D01*
X136014455Y-60879360D02*
X136045407Y-60972217D01*
X136045407Y-60972217D02*
X136045407Y-61034121D01*
X136045407Y-61034121D02*
X136014455Y-61126979D01*
X136014455Y-61126979D02*
X135983502Y-61157931D01*
X139851125Y-60446027D02*
X139882077Y-60384122D01*
X139882077Y-60384122D02*
X139882077Y-60291265D01*
X139882077Y-60291265D02*
X139851125Y-60198408D01*
X139851125Y-60198408D02*
X139789220Y-60136503D01*
X139789220Y-60136503D02*
X139727315Y-60105550D01*
X139727315Y-60105550D02*
X139603506Y-60074598D01*
X139603506Y-60074598D02*
X139510649Y-60074598D01*
X139510649Y-60074598D02*
X139386839Y-60105550D01*
X139386839Y-60105550D02*
X139324934Y-60136503D01*
X139324934Y-60136503D02*
X139263030Y-60198408D01*
X139263030Y-60198408D02*
X139232077Y-60291265D01*
X139232077Y-60291265D02*
X139232077Y-60353169D01*
X139232077Y-60353169D02*
X139263030Y-60446027D01*
X139263030Y-60446027D02*
X139293982Y-60476979D01*
X139293982Y-60476979D02*
X139510649Y-60476979D01*
X139510649Y-60476979D02*
X139510649Y-60353169D01*
X139232077Y-60755550D02*
X139882077Y-60755550D01*
X139882077Y-60755550D02*
X139232077Y-61126979D01*
X139232077Y-61126979D02*
X139882077Y-61126979D01*
X139232077Y-61436502D02*
X139882077Y-61436502D01*
X139882077Y-61436502D02*
X139882077Y-61591264D01*
X139882077Y-61591264D02*
X139851125Y-61684121D01*
X139851125Y-61684121D02*
X139789220Y-61746026D01*
X139789220Y-61746026D02*
X139727315Y-61776979D01*
X139727315Y-61776979D02*
X139603506Y-61807931D01*
X139603506Y-61807931D02*
X139510649Y-61807931D01*
X139510649Y-61807931D02*
X139386839Y-61776979D01*
X139386839Y-61776979D02*
X139324934Y-61746026D01*
X139324934Y-61746026D02*
X139263030Y-61684121D01*
X139263030Y-61684121D02*
X139232077Y-61591264D01*
X139232077Y-61591264D02*
X139232077Y-61436502D01*
X132909747Y-69547550D02*
X133559747Y-69547550D01*
X133559747Y-69547550D02*
X132909747Y-69918979D01*
X132909747Y-69918979D02*
X133559747Y-69918979D01*
X132971652Y-70599931D02*
X132940700Y-70568979D01*
X132940700Y-70568979D02*
X132909747Y-70476121D01*
X132909747Y-70476121D02*
X132909747Y-70414217D01*
X132909747Y-70414217D02*
X132940700Y-70321360D01*
X132940700Y-70321360D02*
X133002604Y-70259455D01*
X133002604Y-70259455D02*
X133064509Y-70228502D01*
X133064509Y-70228502D02*
X133188319Y-70197550D01*
X133188319Y-70197550D02*
X133281176Y-70197550D01*
X133281176Y-70197550D02*
X133404985Y-70228502D01*
X133404985Y-70228502D02*
X133466890Y-70259455D01*
X133466890Y-70259455D02*
X133528795Y-70321360D01*
X133528795Y-70321360D02*
X133559747Y-70414217D01*
X133559747Y-70414217D02*
X133559747Y-70476121D01*
X133559747Y-70476121D02*
X133528795Y-70568979D01*
X133528795Y-70568979D02*
X133497842Y-70599931D01*
X134766527Y-60012693D02*
X134116527Y-60229360D01*
X134116527Y-60229360D02*
X134766527Y-60446027D01*
X134178432Y-61034122D02*
X134147480Y-61003170D01*
X134147480Y-61003170D02*
X134116527Y-60910312D01*
X134116527Y-60910312D02*
X134116527Y-60848408D01*
X134116527Y-60848408D02*
X134147480Y-60755551D01*
X134147480Y-60755551D02*
X134209384Y-60693646D01*
X134209384Y-60693646D02*
X134271289Y-60662693D01*
X134271289Y-60662693D02*
X134395099Y-60631741D01*
X134395099Y-60631741D02*
X134487956Y-60631741D01*
X134487956Y-60631741D02*
X134611765Y-60662693D01*
X134611765Y-60662693D02*
X134673670Y-60693646D01*
X134673670Y-60693646D02*
X134735575Y-60755551D01*
X134735575Y-60755551D02*
X134766527Y-60848408D01*
X134766527Y-60848408D02*
X134766527Y-60910312D01*
X134766527Y-60910312D02*
X134735575Y-61003170D01*
X134735575Y-61003170D02*
X134704622Y-61034122D01*
X134178432Y-61684122D02*
X134147480Y-61653170D01*
X134147480Y-61653170D02*
X134116527Y-61560312D01*
X134116527Y-61560312D02*
X134116527Y-61498408D01*
X134116527Y-61498408D02*
X134147480Y-61405551D01*
X134147480Y-61405551D02*
X134209384Y-61343646D01*
X134209384Y-61343646D02*
X134271289Y-61312693D01*
X134271289Y-61312693D02*
X134395099Y-61281741D01*
X134395099Y-61281741D02*
X134487956Y-61281741D01*
X134487956Y-61281741D02*
X134611765Y-61312693D01*
X134611765Y-61312693D02*
X134673670Y-61343646D01*
X134673670Y-61343646D02*
X134735575Y-61405551D01*
X134735575Y-61405551D02*
X134766527Y-61498408D01*
X134766527Y-61498408D02*
X134766527Y-61560312D01*
X134766527Y-61560312D02*
X134735575Y-61653170D01*
X134735575Y-61653170D02*
X134704622Y-61684122D01*
X146662235Y-69521027D02*
X146693187Y-69459122D01*
X146693187Y-69459122D02*
X146693187Y-69366265D01*
X146693187Y-69366265D02*
X146662235Y-69273408D01*
X146662235Y-69273408D02*
X146600330Y-69211503D01*
X146600330Y-69211503D02*
X146538425Y-69180550D01*
X146538425Y-69180550D02*
X146414616Y-69149598D01*
X146414616Y-69149598D02*
X146321759Y-69149598D01*
X146321759Y-69149598D02*
X146197949Y-69180550D01*
X146197949Y-69180550D02*
X146136044Y-69211503D01*
X146136044Y-69211503D02*
X146074140Y-69273408D01*
X146074140Y-69273408D02*
X146043187Y-69366265D01*
X146043187Y-69366265D02*
X146043187Y-69428169D01*
X146043187Y-69428169D02*
X146074140Y-69521027D01*
X146074140Y-69521027D02*
X146105092Y-69551979D01*
X146105092Y-69551979D02*
X146321759Y-69551979D01*
X146321759Y-69551979D02*
X146321759Y-69428169D01*
X146043187Y-69830550D02*
X146693187Y-69830550D01*
X146693187Y-69830550D02*
X146043187Y-70201979D01*
X146043187Y-70201979D02*
X146693187Y-70201979D01*
X146043187Y-70511502D02*
X146693187Y-70511502D01*
X146693187Y-70511502D02*
X146693187Y-70666264D01*
X146693187Y-70666264D02*
X146662235Y-70759121D01*
X146662235Y-70759121D02*
X146600330Y-70821026D01*
X146600330Y-70821026D02*
X146538425Y-70851979D01*
X146538425Y-70851979D02*
X146414616Y-70882931D01*
X146414616Y-70882931D02*
X146321759Y-70882931D01*
X146321759Y-70882931D02*
X146197949Y-70851979D01*
X146197949Y-70851979D02*
X146136044Y-70821026D01*
X146136044Y-70821026D02*
X146074140Y-70759121D01*
X146074140Y-70759121D02*
X146043187Y-70666264D01*
X146043187Y-70666264D02*
X146043187Y-70511502D01*
X140641652Y-69567979D02*
X140610700Y-69537027D01*
X140610700Y-69537027D02*
X140579747Y-69444169D01*
X140579747Y-69444169D02*
X140579747Y-69382265D01*
X140579747Y-69382265D02*
X140610700Y-69289408D01*
X140610700Y-69289408D02*
X140672604Y-69227503D01*
X140672604Y-69227503D02*
X140734509Y-69196550D01*
X140734509Y-69196550D02*
X140858319Y-69165598D01*
X140858319Y-69165598D02*
X140951176Y-69165598D01*
X140951176Y-69165598D02*
X141074985Y-69196550D01*
X141074985Y-69196550D02*
X141136890Y-69227503D01*
X141136890Y-69227503D02*
X141198795Y-69289408D01*
X141198795Y-69289408D02*
X141229747Y-69382265D01*
X141229747Y-69382265D02*
X141229747Y-69444169D01*
X141229747Y-69444169D02*
X141198795Y-69537027D01*
X141198795Y-69537027D02*
X141167842Y-69567979D01*
X140610700Y-69815598D02*
X140579747Y-69908455D01*
X140579747Y-69908455D02*
X140579747Y-70063217D01*
X140579747Y-70063217D02*
X140610700Y-70125122D01*
X140610700Y-70125122D02*
X140641652Y-70156074D01*
X140641652Y-70156074D02*
X140703557Y-70187027D01*
X140703557Y-70187027D02*
X140765461Y-70187027D01*
X140765461Y-70187027D02*
X140827366Y-70156074D01*
X140827366Y-70156074D02*
X140858319Y-70125122D01*
X140858319Y-70125122D02*
X140889271Y-70063217D01*
X140889271Y-70063217D02*
X140920223Y-69939408D01*
X140920223Y-69939408D02*
X140951176Y-69877503D01*
X140951176Y-69877503D02*
X140982128Y-69846550D01*
X140982128Y-69846550D02*
X141044033Y-69815598D01*
X141044033Y-69815598D02*
X141105938Y-69815598D01*
X141105938Y-69815598D02*
X141167842Y-69846550D01*
X141167842Y-69846550D02*
X141198795Y-69877503D01*
X141198795Y-69877503D02*
X141229747Y-69939408D01*
X141229747Y-69939408D02*
X141229747Y-70094169D01*
X141229747Y-70094169D02*
X141198795Y-70187027D01*
X140579747Y-70465598D02*
X141229747Y-70465598D01*
X141229747Y-70465598D02*
X140579747Y-70837027D01*
X140579747Y-70837027D02*
X141229747Y-70837027D01*
X134671795Y-68999027D02*
X134702747Y-68937122D01*
X134702747Y-68937122D02*
X134702747Y-68844265D01*
X134702747Y-68844265D02*
X134671795Y-68751408D01*
X134671795Y-68751408D02*
X134609890Y-68689503D01*
X134609890Y-68689503D02*
X134547985Y-68658550D01*
X134547985Y-68658550D02*
X134424176Y-68627598D01*
X134424176Y-68627598D02*
X134331319Y-68627598D01*
X134331319Y-68627598D02*
X134207509Y-68658550D01*
X134207509Y-68658550D02*
X134145604Y-68689503D01*
X134145604Y-68689503D02*
X134083700Y-68751408D01*
X134083700Y-68751408D02*
X134052747Y-68844265D01*
X134052747Y-68844265D02*
X134052747Y-68906169D01*
X134052747Y-68906169D02*
X134083700Y-68999027D01*
X134083700Y-68999027D02*
X134114652Y-69029979D01*
X134114652Y-69029979D02*
X134331319Y-69029979D01*
X134331319Y-69029979D02*
X134331319Y-68906169D01*
X134052747Y-69308550D02*
X134702747Y-69308550D01*
X134702747Y-69308550D02*
X134702747Y-69463312D01*
X134702747Y-69463312D02*
X134671795Y-69556169D01*
X134671795Y-69556169D02*
X134609890Y-69618074D01*
X134609890Y-69618074D02*
X134547985Y-69649027D01*
X134547985Y-69649027D02*
X134424176Y-69679979D01*
X134424176Y-69679979D02*
X134331319Y-69679979D01*
X134331319Y-69679979D02*
X134207509Y-69649027D01*
X134207509Y-69649027D02*
X134145604Y-69618074D01*
X134145604Y-69618074D02*
X134083700Y-69556169D01*
X134083700Y-69556169D02*
X134052747Y-69463312D01*
X134052747Y-69463312D02*
X134052747Y-69308550D01*
X134702747Y-70082360D02*
X134702747Y-70144265D01*
X134702747Y-70144265D02*
X134671795Y-70206169D01*
X134671795Y-70206169D02*
X134640842Y-70237122D01*
X134640842Y-70237122D02*
X134578938Y-70268074D01*
X134578938Y-70268074D02*
X134455128Y-70299027D01*
X134455128Y-70299027D02*
X134300366Y-70299027D01*
X134300366Y-70299027D02*
X134176557Y-70268074D01*
X134176557Y-70268074D02*
X134114652Y-70237122D01*
X134114652Y-70237122D02*
X134083700Y-70206169D01*
X134083700Y-70206169D02*
X134052747Y-70144265D01*
X134052747Y-70144265D02*
X134052747Y-70082360D01*
X134052747Y-70082360D02*
X134083700Y-70020455D01*
X134083700Y-70020455D02*
X134114652Y-69989503D01*
X134114652Y-69989503D02*
X134176557Y-69958550D01*
X134176557Y-69958550D02*
X134300366Y-69927598D01*
X134300366Y-69927598D02*
X134455128Y-69927598D01*
X134455128Y-69927598D02*
X134578938Y-69958550D01*
X134578938Y-69958550D02*
X134640842Y-69989503D01*
X134640842Y-69989503D02*
X134671795Y-70020455D01*
X134671795Y-70020455D02*
X134702747Y-70082360D01*
X134640842Y-70546646D02*
X134671795Y-70577598D01*
X134671795Y-70577598D02*
X134702747Y-70639503D01*
X134702747Y-70639503D02*
X134702747Y-70794265D01*
X134702747Y-70794265D02*
X134671795Y-70856170D01*
X134671795Y-70856170D02*
X134640842Y-70887122D01*
X134640842Y-70887122D02*
X134578938Y-70918075D01*
X134578938Y-70918075D02*
X134517033Y-70918075D01*
X134517033Y-70918075D02*
X134424176Y-70887122D01*
X134424176Y-70887122D02*
X134052747Y-70515694D01*
X134052747Y-70515694D02*
X134052747Y-70918075D01*
X149220015Y-60416027D02*
X149250967Y-60354122D01*
X149250967Y-60354122D02*
X149250967Y-60261265D01*
X149250967Y-60261265D02*
X149220015Y-60168408D01*
X149220015Y-60168408D02*
X149158110Y-60106503D01*
X149158110Y-60106503D02*
X149096205Y-60075550D01*
X149096205Y-60075550D02*
X148972396Y-60044598D01*
X148972396Y-60044598D02*
X148879539Y-60044598D01*
X148879539Y-60044598D02*
X148755729Y-60075550D01*
X148755729Y-60075550D02*
X148693824Y-60106503D01*
X148693824Y-60106503D02*
X148631920Y-60168408D01*
X148631920Y-60168408D02*
X148600967Y-60261265D01*
X148600967Y-60261265D02*
X148600967Y-60323169D01*
X148600967Y-60323169D02*
X148631920Y-60416027D01*
X148631920Y-60416027D02*
X148662872Y-60446979D01*
X148662872Y-60446979D02*
X148879539Y-60446979D01*
X148879539Y-60446979D02*
X148879539Y-60323169D01*
X148600967Y-60725550D02*
X149250967Y-60725550D01*
X149250967Y-60725550D02*
X148600967Y-61096979D01*
X148600967Y-61096979D02*
X149250967Y-61096979D01*
X148600967Y-61406502D02*
X149250967Y-61406502D01*
X149250967Y-61406502D02*
X149250967Y-61561264D01*
X149250967Y-61561264D02*
X149220015Y-61654121D01*
X149220015Y-61654121D02*
X149158110Y-61716026D01*
X149158110Y-61716026D02*
X149096205Y-61746979D01*
X149096205Y-61746979D02*
X148972396Y-61777931D01*
X148972396Y-61777931D02*
X148879539Y-61777931D01*
X148879539Y-61777931D02*
X148755729Y-61746979D01*
X148755729Y-61746979D02*
X148693824Y-61716026D01*
X148693824Y-61716026D02*
X148631920Y-61654121D01*
X148631920Y-61654121D02*
X148600967Y-61561264D01*
X148600967Y-61561264D02*
X148600967Y-61406502D01*
X138039747Y-68763360D02*
X138689747Y-68763360D01*
X138689747Y-68763360D02*
X138225461Y-68980027D01*
X138225461Y-68980027D02*
X138689747Y-69196694D01*
X138689747Y-69196694D02*
X138039747Y-69196694D01*
X138689747Y-69630027D02*
X138689747Y-69753836D01*
X138689747Y-69753836D02*
X138658795Y-69815741D01*
X138658795Y-69815741D02*
X138596890Y-69877646D01*
X138596890Y-69877646D02*
X138473080Y-69908598D01*
X138473080Y-69908598D02*
X138256414Y-69908598D01*
X138256414Y-69908598D02*
X138132604Y-69877646D01*
X138132604Y-69877646D02*
X138070700Y-69815741D01*
X138070700Y-69815741D02*
X138039747Y-69753836D01*
X138039747Y-69753836D02*
X138039747Y-69630027D01*
X138039747Y-69630027D02*
X138070700Y-69568122D01*
X138070700Y-69568122D02*
X138132604Y-69506217D01*
X138132604Y-69506217D02*
X138256414Y-69475265D01*
X138256414Y-69475265D02*
X138473080Y-69475265D01*
X138473080Y-69475265D02*
X138596890Y-69506217D01*
X138596890Y-69506217D02*
X138658795Y-69568122D01*
X138658795Y-69568122D02*
X138689747Y-69630027D01*
X138070700Y-70156217D02*
X138039747Y-70249074D01*
X138039747Y-70249074D02*
X138039747Y-70403836D01*
X138039747Y-70403836D02*
X138070700Y-70465741D01*
X138070700Y-70465741D02*
X138101652Y-70496693D01*
X138101652Y-70496693D02*
X138163557Y-70527646D01*
X138163557Y-70527646D02*
X138225461Y-70527646D01*
X138225461Y-70527646D02*
X138287366Y-70496693D01*
X138287366Y-70496693D02*
X138318319Y-70465741D01*
X138318319Y-70465741D02*
X138349271Y-70403836D01*
X138349271Y-70403836D02*
X138380223Y-70280027D01*
X138380223Y-70280027D02*
X138411176Y-70218122D01*
X138411176Y-70218122D02*
X138442128Y-70187169D01*
X138442128Y-70187169D02*
X138504033Y-70156217D01*
X138504033Y-70156217D02*
X138565938Y-70156217D01*
X138565938Y-70156217D02*
X138627842Y-70187169D01*
X138627842Y-70187169D02*
X138658795Y-70218122D01*
X138658795Y-70218122D02*
X138689747Y-70280027D01*
X138689747Y-70280027D02*
X138689747Y-70434788D01*
X138689747Y-70434788D02*
X138658795Y-70527646D01*
X138039747Y-70806217D02*
X138689747Y-70806217D01*
X136129265Y-63978847D02*
X136395931Y-63978847D01*
X136510217Y-64397895D02*
X136129265Y-64397895D01*
X136129265Y-64397895D02*
X136129265Y-63597895D01*
X136129265Y-63597895D02*
X136510217Y-63597895D01*
X137005456Y-63597895D02*
X137081646Y-63597895D01*
X137081646Y-63597895D02*
X137157837Y-63635990D01*
X137157837Y-63635990D02*
X137195932Y-63674085D01*
X137195932Y-63674085D02*
X137234027Y-63750276D01*
X137234027Y-63750276D02*
X137272122Y-63902657D01*
X137272122Y-63902657D02*
X137272122Y-64093133D01*
X137272122Y-64093133D02*
X137234027Y-64245514D01*
X137234027Y-64245514D02*
X137195932Y-64321704D01*
X137195932Y-64321704D02*
X137157837Y-64359800D01*
X137157837Y-64359800D02*
X137081646Y-64397895D01*
X137081646Y-64397895D02*
X137005456Y-64397895D01*
X137005456Y-64397895D02*
X136929265Y-64359800D01*
X136929265Y-64359800D02*
X136891170Y-64321704D01*
X136891170Y-64321704D02*
X136853075Y-64245514D01*
X136853075Y-64245514D02*
X136814979Y-64093133D01*
X136814979Y-64093133D02*
X136814979Y-63902657D01*
X136814979Y-63902657D02*
X136853075Y-63750276D01*
X136853075Y-63750276D02*
X136891170Y-63674085D01*
X136891170Y-63674085D02*
X136929265Y-63635990D01*
X136929265Y-63635990D02*
X137005456Y-63597895D01*
X137538789Y-63597895D02*
X138072123Y-63597895D01*
X138072123Y-63597895D02*
X137729265Y-64397895D01*
X138376885Y-64093133D02*
X138986409Y-64093133D01*
X139405456Y-64397895D02*
X139557837Y-64397895D01*
X139557837Y-64397895D02*
X139634027Y-64359800D01*
X139634027Y-64359800D02*
X139672123Y-64321704D01*
X139672123Y-64321704D02*
X139748313Y-64207419D01*
X139748313Y-64207419D02*
X139786408Y-64055038D01*
X139786408Y-64055038D02*
X139786408Y-63750276D01*
X139786408Y-63750276D02*
X139748313Y-63674085D01*
X139748313Y-63674085D02*
X139710218Y-63635990D01*
X139710218Y-63635990D02*
X139634027Y-63597895D01*
X139634027Y-63597895D02*
X139481646Y-63597895D01*
X139481646Y-63597895D02*
X139405456Y-63635990D01*
X139405456Y-63635990D02*
X139367361Y-63674085D01*
X139367361Y-63674085D02*
X139329265Y-63750276D01*
X139329265Y-63750276D02*
X139329265Y-63940752D01*
X139329265Y-63940752D02*
X139367361Y-64016942D01*
X139367361Y-64016942D02*
X139405456Y-64055038D01*
X139405456Y-64055038D02*
X139481646Y-64093133D01*
X139481646Y-64093133D02*
X139634027Y-64093133D01*
X139634027Y-64093133D02*
X139710218Y-64055038D01*
X139710218Y-64055038D02*
X139748313Y-64016942D01*
X139748313Y-64016942D02*
X139786408Y-63940752D01*
X140281647Y-63597895D02*
X140357837Y-63597895D01*
X140357837Y-63597895D02*
X140434028Y-63635990D01*
X140434028Y-63635990D02*
X140472123Y-63674085D01*
X140472123Y-63674085D02*
X140510218Y-63750276D01*
X140510218Y-63750276D02*
X140548313Y-63902657D01*
X140548313Y-63902657D02*
X140548313Y-64093133D01*
X140548313Y-64093133D02*
X140510218Y-64245514D01*
X140510218Y-64245514D02*
X140472123Y-64321704D01*
X140472123Y-64321704D02*
X140434028Y-64359800D01*
X140434028Y-64359800D02*
X140357837Y-64397895D01*
X140357837Y-64397895D02*
X140281647Y-64397895D01*
X140281647Y-64397895D02*
X140205456Y-64359800D01*
X140205456Y-64359800D02*
X140167361Y-64321704D01*
X140167361Y-64321704D02*
X140129266Y-64245514D01*
X140129266Y-64245514D02*
X140091170Y-64093133D01*
X140091170Y-64093133D02*
X140091170Y-63902657D01*
X140091170Y-63902657D02*
X140129266Y-63750276D01*
X140129266Y-63750276D02*
X140167361Y-63674085D01*
X140167361Y-63674085D02*
X140205456Y-63635990D01*
X140205456Y-63635990D02*
X140281647Y-63597895D01*
X141043552Y-63597895D02*
X141119742Y-63597895D01*
X141119742Y-63597895D02*
X141195933Y-63635990D01*
X141195933Y-63635990D02*
X141234028Y-63674085D01*
X141234028Y-63674085D02*
X141272123Y-63750276D01*
X141272123Y-63750276D02*
X141310218Y-63902657D01*
X141310218Y-63902657D02*
X141310218Y-64093133D01*
X141310218Y-64093133D02*
X141272123Y-64245514D01*
X141272123Y-64245514D02*
X141234028Y-64321704D01*
X141234028Y-64321704D02*
X141195933Y-64359800D01*
X141195933Y-64359800D02*
X141119742Y-64397895D01*
X141119742Y-64397895D02*
X141043552Y-64397895D01*
X141043552Y-64397895D02*
X140967361Y-64359800D01*
X140967361Y-64359800D02*
X140929266Y-64321704D01*
X140929266Y-64321704D02*
X140891171Y-64245514D01*
X140891171Y-64245514D02*
X140853075Y-64093133D01*
X140853075Y-64093133D02*
X140853075Y-63902657D01*
X140853075Y-63902657D02*
X140891171Y-63750276D01*
X140891171Y-63750276D02*
X140929266Y-63674085D01*
X140929266Y-63674085D02*
X140967361Y-63635990D01*
X140967361Y-63635990D02*
X141043552Y-63597895D01*
X141653076Y-64397895D02*
X141653076Y-63597895D01*
X141653076Y-63597895D02*
X141919742Y-64169323D01*
X141919742Y-64169323D02*
X142186409Y-63597895D01*
X142186409Y-63597895D02*
X142186409Y-64397895D01*
X142986409Y-64397895D02*
X142529266Y-64397895D01*
X142757838Y-64397895D02*
X142757838Y-63597895D01*
X142757838Y-63597895D02*
X142681647Y-63712180D01*
X142681647Y-63712180D02*
X142605457Y-63788371D01*
X142605457Y-63788371D02*
X142529266Y-63826466D01*
X143481648Y-63597895D02*
X143557838Y-63597895D01*
X143557838Y-63597895D02*
X143634029Y-63635990D01*
X143634029Y-63635990D02*
X143672124Y-63674085D01*
X143672124Y-63674085D02*
X143710219Y-63750276D01*
X143710219Y-63750276D02*
X143748314Y-63902657D01*
X143748314Y-63902657D02*
X143748314Y-64093133D01*
X143748314Y-64093133D02*
X143710219Y-64245514D01*
X143710219Y-64245514D02*
X143672124Y-64321704D01*
X143672124Y-64321704D02*
X143634029Y-64359800D01*
X143634029Y-64359800D02*
X143557838Y-64397895D01*
X143557838Y-64397895D02*
X143481648Y-64397895D01*
X143481648Y-64397895D02*
X143405457Y-64359800D01*
X143405457Y-64359800D02*
X143367362Y-64321704D01*
X143367362Y-64321704D02*
X143329267Y-64245514D01*
X143329267Y-64245514D02*
X143291171Y-64093133D01*
X143291171Y-64093133D02*
X143291171Y-63902657D01*
X143291171Y-63902657D02*
X143329267Y-63750276D01*
X143329267Y-63750276D02*
X143367362Y-63674085D01*
X143367362Y-63674085D02*
X143405457Y-63635990D01*
X143405457Y-63635990D02*
X143481648Y-63597895D01*
X144053076Y-64359800D02*
X144167362Y-64397895D01*
X144167362Y-64397895D02*
X144357838Y-64397895D01*
X144357838Y-64397895D02*
X144434029Y-64359800D01*
X144434029Y-64359800D02*
X144472124Y-64321704D01*
X144472124Y-64321704D02*
X144510219Y-64245514D01*
X144510219Y-64245514D02*
X144510219Y-64169323D01*
X144510219Y-64169323D02*
X144472124Y-64093133D01*
X144472124Y-64093133D02*
X144434029Y-64055038D01*
X144434029Y-64055038D02*
X144357838Y-64016942D01*
X144357838Y-64016942D02*
X144205457Y-63978847D01*
X144205457Y-63978847D02*
X144129267Y-63940752D01*
X144129267Y-63940752D02*
X144091172Y-63902657D01*
X144091172Y-63902657D02*
X144053076Y-63826466D01*
X144053076Y-63826466D02*
X144053076Y-63750276D01*
X144053076Y-63750276D02*
X144091172Y-63674085D01*
X144091172Y-63674085D02*
X144129267Y-63635990D01*
X144129267Y-63635990D02*
X144205457Y-63597895D01*
X144205457Y-63597895D02*
X144395934Y-63597895D01*
X144395934Y-63597895D02*
X144510219Y-63635990D01*
X141130015Y-60446027D02*
X141160967Y-60384122D01*
X141160967Y-60384122D02*
X141160967Y-60291265D01*
X141160967Y-60291265D02*
X141130015Y-60198408D01*
X141130015Y-60198408D02*
X141068110Y-60136503D01*
X141068110Y-60136503D02*
X141006205Y-60105550D01*
X141006205Y-60105550D02*
X140882396Y-60074598D01*
X140882396Y-60074598D02*
X140789539Y-60074598D01*
X140789539Y-60074598D02*
X140665729Y-60105550D01*
X140665729Y-60105550D02*
X140603824Y-60136503D01*
X140603824Y-60136503D02*
X140541920Y-60198408D01*
X140541920Y-60198408D02*
X140510967Y-60291265D01*
X140510967Y-60291265D02*
X140510967Y-60353169D01*
X140510967Y-60353169D02*
X140541920Y-60446027D01*
X140541920Y-60446027D02*
X140572872Y-60476979D01*
X140572872Y-60476979D02*
X140789539Y-60476979D01*
X140789539Y-60476979D02*
X140789539Y-60353169D01*
X140510967Y-60755550D02*
X141160967Y-60755550D01*
X141160967Y-60755550D02*
X140510967Y-61126979D01*
X140510967Y-61126979D02*
X141160967Y-61126979D01*
X140510967Y-61436502D02*
X141160967Y-61436502D01*
X141160967Y-61436502D02*
X141160967Y-61591264D01*
X141160967Y-61591264D02*
X141130015Y-61684121D01*
X141130015Y-61684121D02*
X141068110Y-61746026D01*
X141068110Y-61746026D02*
X141006205Y-61776979D01*
X141006205Y-61776979D02*
X140882396Y-61807931D01*
X140882396Y-61807931D02*
X140789539Y-61807931D01*
X140789539Y-61807931D02*
X140665729Y-61776979D01*
X140665729Y-61776979D02*
X140603824Y-61746026D01*
X140603824Y-61746026D02*
X140541920Y-61684121D01*
X140541920Y-61684121D02*
X140510967Y-61591264D01*
X140510967Y-61591264D02*
X140510967Y-61436502D01*
X147507791Y-69149598D02*
X147507791Y-69459122D01*
X147322077Y-69087693D02*
X147972077Y-69304360D01*
X147972077Y-69304360D02*
X147322077Y-69521027D01*
X147322077Y-69737693D02*
X147972077Y-69737693D01*
X147972077Y-69737693D02*
X147322077Y-70109122D01*
X147322077Y-70109122D02*
X147972077Y-70109122D01*
X147972077Y-70325788D02*
X147972077Y-70697217D01*
X147322077Y-70511503D02*
X147972077Y-70511503D01*
X136068795Y-68999027D02*
X136099747Y-68937122D01*
X136099747Y-68937122D02*
X136099747Y-68844265D01*
X136099747Y-68844265D02*
X136068795Y-68751408D01*
X136068795Y-68751408D02*
X136006890Y-68689503D01*
X136006890Y-68689503D02*
X135944985Y-68658550D01*
X135944985Y-68658550D02*
X135821176Y-68627598D01*
X135821176Y-68627598D02*
X135728319Y-68627598D01*
X135728319Y-68627598D02*
X135604509Y-68658550D01*
X135604509Y-68658550D02*
X135542604Y-68689503D01*
X135542604Y-68689503D02*
X135480700Y-68751408D01*
X135480700Y-68751408D02*
X135449747Y-68844265D01*
X135449747Y-68844265D02*
X135449747Y-68906169D01*
X135449747Y-68906169D02*
X135480700Y-68999027D01*
X135480700Y-68999027D02*
X135511652Y-69029979D01*
X135511652Y-69029979D02*
X135728319Y-69029979D01*
X135728319Y-69029979D02*
X135728319Y-68906169D01*
X135449747Y-69308550D02*
X136099747Y-69308550D01*
X136099747Y-69308550D02*
X136099747Y-69463312D01*
X136099747Y-69463312D02*
X136068795Y-69556169D01*
X136068795Y-69556169D02*
X136006890Y-69618074D01*
X136006890Y-69618074D02*
X135944985Y-69649027D01*
X135944985Y-69649027D02*
X135821176Y-69679979D01*
X135821176Y-69679979D02*
X135728319Y-69679979D01*
X135728319Y-69679979D02*
X135604509Y-69649027D01*
X135604509Y-69649027D02*
X135542604Y-69618074D01*
X135542604Y-69618074D02*
X135480700Y-69556169D01*
X135480700Y-69556169D02*
X135449747Y-69463312D01*
X135449747Y-69463312D02*
X135449747Y-69308550D01*
X136099747Y-70082360D02*
X136099747Y-70144265D01*
X136099747Y-70144265D02*
X136068795Y-70206169D01*
X136068795Y-70206169D02*
X136037842Y-70237122D01*
X136037842Y-70237122D02*
X135975938Y-70268074D01*
X135975938Y-70268074D02*
X135852128Y-70299027D01*
X135852128Y-70299027D02*
X135697366Y-70299027D01*
X135697366Y-70299027D02*
X135573557Y-70268074D01*
X135573557Y-70268074D02*
X135511652Y-70237122D01*
X135511652Y-70237122D02*
X135480700Y-70206169D01*
X135480700Y-70206169D02*
X135449747Y-70144265D01*
X135449747Y-70144265D02*
X135449747Y-70082360D01*
X135449747Y-70082360D02*
X135480700Y-70020455D01*
X135480700Y-70020455D02*
X135511652Y-69989503D01*
X135511652Y-69989503D02*
X135573557Y-69958550D01*
X135573557Y-69958550D02*
X135697366Y-69927598D01*
X135697366Y-69927598D02*
X135852128Y-69927598D01*
X135852128Y-69927598D02*
X135975938Y-69958550D01*
X135975938Y-69958550D02*
X136037842Y-69989503D01*
X136037842Y-69989503D02*
X136068795Y-70020455D01*
X136068795Y-70020455D02*
X136099747Y-70082360D01*
X136099747Y-70701408D02*
X136099747Y-70763313D01*
X136099747Y-70763313D02*
X136068795Y-70825217D01*
X136068795Y-70825217D02*
X136037842Y-70856170D01*
X136037842Y-70856170D02*
X135975938Y-70887122D01*
X135975938Y-70887122D02*
X135852128Y-70918075D01*
X135852128Y-70918075D02*
X135697366Y-70918075D01*
X135697366Y-70918075D02*
X135573557Y-70887122D01*
X135573557Y-70887122D02*
X135511652Y-70856170D01*
X135511652Y-70856170D02*
X135480700Y-70825217D01*
X135480700Y-70825217D02*
X135449747Y-70763313D01*
X135449747Y-70763313D02*
X135449747Y-70701408D01*
X135449747Y-70701408D02*
X135480700Y-70639503D01*
X135480700Y-70639503D02*
X135511652Y-70608551D01*
X135511652Y-70608551D02*
X135573557Y-70577598D01*
X135573557Y-70577598D02*
X135697366Y-70546646D01*
X135697366Y-70546646D02*
X135852128Y-70546646D01*
X135852128Y-70546646D02*
X135975938Y-70577598D01*
X135975938Y-70577598D02*
X136037842Y-70608551D01*
X136037842Y-70608551D02*
X136068795Y-70639503D01*
X136068795Y-70639503D02*
X136099747Y-70701408D01*
X136719747Y-66372550D02*
X137369747Y-66372550D01*
X137369747Y-66372550D02*
X136905461Y-66589217D01*
X136905461Y-66589217D02*
X137369747Y-66805884D01*
X137369747Y-66805884D02*
X136719747Y-66805884D01*
X136719747Y-67115407D02*
X137369747Y-67115407D01*
X136750700Y-67393979D02*
X136719747Y-67486836D01*
X136719747Y-67486836D02*
X136719747Y-67641598D01*
X136719747Y-67641598D02*
X136750700Y-67703503D01*
X136750700Y-67703503D02*
X136781652Y-67734455D01*
X136781652Y-67734455D02*
X136843557Y-67765408D01*
X136843557Y-67765408D02*
X136905461Y-67765408D01*
X136905461Y-67765408D02*
X136967366Y-67734455D01*
X136967366Y-67734455D02*
X136998319Y-67703503D01*
X136998319Y-67703503D02*
X137029271Y-67641598D01*
X137029271Y-67641598D02*
X137060223Y-67517789D01*
X137060223Y-67517789D02*
X137091176Y-67455884D01*
X137091176Y-67455884D02*
X137122128Y-67424931D01*
X137122128Y-67424931D02*
X137184033Y-67393979D01*
X137184033Y-67393979D02*
X137245938Y-67393979D01*
X137245938Y-67393979D02*
X137307842Y-67424931D01*
X137307842Y-67424931D02*
X137338795Y-67455884D01*
X137338795Y-67455884D02*
X137369747Y-67517789D01*
X137369747Y-67517789D02*
X137369747Y-67672550D01*
X137369747Y-67672550D02*
X137338795Y-67765408D01*
X137369747Y-68167789D02*
X137369747Y-68291598D01*
X137369747Y-68291598D02*
X137338795Y-68353503D01*
X137338795Y-68353503D02*
X137276890Y-68415408D01*
X137276890Y-68415408D02*
X137153080Y-68446360D01*
X137153080Y-68446360D02*
X136936414Y-68446360D01*
X136936414Y-68446360D02*
X136812604Y-68415408D01*
X136812604Y-68415408D02*
X136750700Y-68353503D01*
X136750700Y-68353503D02*
X136719747Y-68291598D01*
X136719747Y-68291598D02*
X136719747Y-68167789D01*
X136719747Y-68167789D02*
X136750700Y-68105884D01*
X136750700Y-68105884D02*
X136812604Y-68043979D01*
X136812604Y-68043979D02*
X136936414Y-68013027D01*
X136936414Y-68013027D02*
X137153080Y-68013027D01*
X137153080Y-68013027D02*
X137276890Y-68043979D01*
X137276890Y-68043979D02*
X137338795Y-68105884D01*
X137338795Y-68105884D02*
X137369747Y-68167789D01*
X137400700Y-69189217D02*
X136564985Y-68632074D01*
X137338795Y-69746360D02*
X137369747Y-69684455D01*
X137369747Y-69684455D02*
X137369747Y-69591598D01*
X137369747Y-69591598D02*
X137338795Y-69498741D01*
X137338795Y-69498741D02*
X137276890Y-69436836D01*
X137276890Y-69436836D02*
X137214985Y-69405883D01*
X137214985Y-69405883D02*
X137091176Y-69374931D01*
X137091176Y-69374931D02*
X136998319Y-69374931D01*
X136998319Y-69374931D02*
X136874509Y-69405883D01*
X136874509Y-69405883D02*
X136812604Y-69436836D01*
X136812604Y-69436836D02*
X136750700Y-69498741D01*
X136750700Y-69498741D02*
X136719747Y-69591598D01*
X136719747Y-69591598D02*
X136719747Y-69653502D01*
X136719747Y-69653502D02*
X136750700Y-69746360D01*
X136750700Y-69746360D02*
X136781652Y-69777312D01*
X136781652Y-69777312D02*
X136998319Y-69777312D01*
X136998319Y-69777312D02*
X136998319Y-69653502D01*
X136719747Y-70055883D02*
X137369747Y-70055883D01*
X137369747Y-70055883D02*
X137369747Y-70210645D01*
X137369747Y-70210645D02*
X137338795Y-70303502D01*
X137338795Y-70303502D02*
X137276890Y-70365407D01*
X137276890Y-70365407D02*
X137214985Y-70396360D01*
X137214985Y-70396360D02*
X137091176Y-70427312D01*
X137091176Y-70427312D02*
X136998319Y-70427312D01*
X136998319Y-70427312D02*
X136874509Y-70396360D01*
X136874509Y-70396360D02*
X136812604Y-70365407D01*
X136812604Y-70365407D02*
X136750700Y-70303502D01*
X136750700Y-70303502D02*
X136719747Y-70210645D01*
X136719747Y-70210645D02*
X136719747Y-70055883D01*
X137369747Y-70829693D02*
X137369747Y-70891598D01*
X137369747Y-70891598D02*
X137338795Y-70953502D01*
X137338795Y-70953502D02*
X137307842Y-70984455D01*
X137307842Y-70984455D02*
X137245938Y-71015407D01*
X137245938Y-71015407D02*
X137122128Y-71046360D01*
X137122128Y-71046360D02*
X136967366Y-71046360D01*
X136967366Y-71046360D02*
X136843557Y-71015407D01*
X136843557Y-71015407D02*
X136781652Y-70984455D01*
X136781652Y-70984455D02*
X136750700Y-70953502D01*
X136750700Y-70953502D02*
X136719747Y-70891598D01*
X136719747Y-70891598D02*
X136719747Y-70829693D01*
X136719747Y-70829693D02*
X136750700Y-70767788D01*
X136750700Y-70767788D02*
X136781652Y-70736836D01*
X136781652Y-70736836D02*
X136843557Y-70705883D01*
X136843557Y-70705883D02*
X136967366Y-70674931D01*
X136967366Y-70674931D02*
X137122128Y-70674931D01*
X137122128Y-70674931D02*
X137245938Y-70705883D01*
X137245938Y-70705883D02*
X137307842Y-70736836D01*
X137307842Y-70736836D02*
X137338795Y-70767788D01*
X137338795Y-70767788D02*
X137369747Y-70829693D01*
X136719747Y-71665408D02*
X136719747Y-71293979D01*
X136719747Y-71479693D02*
X137369747Y-71479693D01*
X137369747Y-71479693D02*
X137276890Y-71417789D01*
X137276890Y-71417789D02*
X137214985Y-71355884D01*
X137214985Y-71355884D02*
X137184033Y-71293979D01*
X132898747Y-60125550D02*
X133548747Y-60125550D01*
X133548747Y-60125550D02*
X132898747Y-60496979D01*
X132898747Y-60496979D02*
X133548747Y-60496979D01*
X132960652Y-61177931D02*
X132929700Y-61146979D01*
X132929700Y-61146979D02*
X132898747Y-61054121D01*
X132898747Y-61054121D02*
X132898747Y-60992217D01*
X132898747Y-60992217D02*
X132929700Y-60899360D01*
X132929700Y-60899360D02*
X132991604Y-60837455D01*
X132991604Y-60837455D02*
X133053509Y-60806502D01*
X133053509Y-60806502D02*
X133177319Y-60775550D01*
X133177319Y-60775550D02*
X133270176Y-60775550D01*
X133270176Y-60775550D02*
X133393985Y-60806502D01*
X133393985Y-60806502D02*
X133455890Y-60837455D01*
X133455890Y-60837455D02*
X133517795Y-60899360D01*
X133517795Y-60899360D02*
X133548747Y-60992217D01*
X133548747Y-60992217D02*
X133548747Y-61054121D01*
X133548747Y-61054121D02*
X133517795Y-61146979D01*
X133517795Y-61146979D02*
X133486842Y-61177931D01*
D10*
X128307580Y-52236666D02*
X128355200Y-52284285D01*
X128355200Y-52284285D02*
X128402819Y-52427142D01*
X128402819Y-52427142D02*
X128402819Y-52522380D01*
X128402819Y-52522380D02*
X128355200Y-52665237D01*
X128355200Y-52665237D02*
X128259961Y-52760475D01*
X128259961Y-52760475D02*
X128164723Y-52808094D01*
X128164723Y-52808094D02*
X127974247Y-52855713D01*
X127974247Y-52855713D02*
X127831390Y-52855713D01*
X127831390Y-52855713D02*
X127640914Y-52808094D01*
X127640914Y-52808094D02*
X127545676Y-52760475D01*
X127545676Y-52760475D02*
X127450438Y-52665237D01*
X127450438Y-52665237D02*
X127402819Y-52522380D01*
X127402819Y-52522380D02*
X127402819Y-52427142D01*
X127402819Y-52427142D02*
X127450438Y-52284285D01*
X127450438Y-52284285D02*
X127498057Y-52236666D01*
X128402819Y-51284285D02*
X128402819Y-51855713D01*
X128402819Y-51569999D02*
X127402819Y-51569999D01*
X127402819Y-51569999D02*
X127545676Y-51665237D01*
X127545676Y-51665237D02*
X127640914Y-51760475D01*
X127640914Y-51760475D02*
X127688533Y-51855713D01*
X154178095Y-54810819D02*
X154178095Y-53810819D01*
X154178095Y-54287009D02*
X154749523Y-54287009D01*
X154749523Y-54810819D02*
X154749523Y-53810819D01*
X155654285Y-54144152D02*
X155654285Y-54810819D01*
X155416190Y-53763200D02*
X155178095Y-54477485D01*
X155178095Y-54477485D02*
X155797142Y-54477485D01*
X110410666Y-75444819D02*
X110410666Y-76159104D01*
X110410666Y-76159104D02*
X110363047Y-76301961D01*
X110363047Y-76301961D02*
X110267809Y-76397200D01*
X110267809Y-76397200D02*
X110124952Y-76444819D01*
X110124952Y-76444819D02*
X110029714Y-76444819D01*
X111410666Y-76444819D02*
X110839238Y-76444819D01*
X111124952Y-76444819D02*
X111124952Y-75444819D01*
X111124952Y-75444819D02*
X111029714Y-75587676D01*
X111029714Y-75587676D02*
X110934476Y-75682914D01*
X110934476Y-75682914D02*
X110839238Y-75730533D01*
X141583580Y-52236666D02*
X141631200Y-52284285D01*
X141631200Y-52284285D02*
X141678819Y-52427142D01*
X141678819Y-52427142D02*
X141678819Y-52522380D01*
X141678819Y-52522380D02*
X141631200Y-52665237D01*
X141631200Y-52665237D02*
X141535961Y-52760475D01*
X141535961Y-52760475D02*
X141440723Y-52808094D01*
X141440723Y-52808094D02*
X141250247Y-52855713D01*
X141250247Y-52855713D02*
X141107390Y-52855713D01*
X141107390Y-52855713D02*
X140916914Y-52808094D01*
X140916914Y-52808094D02*
X140821676Y-52760475D01*
X140821676Y-52760475D02*
X140726438Y-52665237D01*
X140726438Y-52665237D02*
X140678819Y-52522380D01*
X140678819Y-52522380D02*
X140678819Y-52427142D01*
X140678819Y-52427142D02*
X140726438Y-52284285D01*
X140726438Y-52284285D02*
X140774057Y-52236666D01*
X140774057Y-51855713D02*
X140726438Y-51808094D01*
X140726438Y-51808094D02*
X140678819Y-51712856D01*
X140678819Y-51712856D02*
X140678819Y-51474761D01*
X140678819Y-51474761D02*
X140726438Y-51379523D01*
X140726438Y-51379523D02*
X140774057Y-51331904D01*
X140774057Y-51331904D02*
X140869295Y-51284285D01*
X140869295Y-51284285D02*
X140964533Y-51284285D01*
X140964533Y-51284285D02*
X141107390Y-51331904D01*
X141107390Y-51331904D02*
X141678819Y-51903332D01*
X141678819Y-51903332D02*
X141678819Y-51284285D01*
D11*
%TO.C,U1*%
X129954000Y-58532000D02*
X149954000Y-58532000D01*
X129954000Y-72532000D02*
X129954000Y-58532000D01*
X129954000Y-72532000D02*
X149954000Y-72532000D01*
X149954000Y-72532000D02*
X149954000Y-58532000D01*
D12*
%TO.C,C1*%
X130466000Y-52742752D02*
X130466000Y-51320248D01*
X133186000Y-52742752D02*
X133186000Y-51320248D01*
D13*
%TO.C,J$1*%
X154114500Y-63055500D02*
X154114500Y-64198500D01*
X154114500Y-65849500D02*
X154114500Y-66992500D01*
D12*
%TO.C,J1*%
X109414000Y-72390000D02*
X109414000Y-54550000D01*
X112074000Y-54550000D02*
X109414000Y-54550000D01*
X112074000Y-72390000D02*
X109414000Y-72390000D01*
X112074000Y-72390000D02*
X112074000Y-54550000D01*
X112074000Y-73660000D02*
X112074000Y-74990000D01*
X112074000Y-74990000D02*
X110744000Y-74990000D01*
%TO.C,C2*%
X136054000Y-52742752D02*
X136054000Y-51320248D01*
X138774000Y-52742752D02*
X138774000Y-51320248D01*
%TD*%
M02*
