M48
; DRILL file {KiCad 8.0.2} date 2024-06-12T13:55:30+0200
; FORMAT={-:-/ absolute / metric / decimal}
; #@! TF.CreationDate,2024-06-12T13:55:30+02:00
; #@! TF.GenerationSoftware,Kicad,Pcbnew,8.0.2
; #@! TF.FileFunction,Plated,1,2,PTH
FMAT,2
METRIC
; #@! TA.AperFunction,Plated,PTH,ViaDrill
T1C0.300
; #@! TA.AperFunction,Plated,PTH,ComponentDrill
T2C0.500
; #@! TA.AperFunction,Plated,PTH,ComponentDrill
T3C0.559
; #@! TA.AperFunction,Plated,PTH,ComponentDrill
T4C1.000
; #@! TA.AperFunction,Plated,PTH,ComponentDrill
T5C2.500
%
G90
G05
T1
X110.998Y-77.216
X113.03Y-69.596
X114.3Y-55.88
X114.3Y-71.374
X115.824Y-58.674
X115.824Y-70.612
X117.856Y-63.5
X117.856Y-69.596
X120.142Y-78.486
X120.65Y-52.324
X129.794Y-78.486
X131.826Y-55.118
X131.826Y-74.676
X139.192Y-55.118
X144.272Y-55.626
X144.526Y-61.468
X144.526Y-64.262
X144.526Y-66.802
X144.526Y-69.596
X144.526Y-74.422
X145.542Y-77.724
X146.304Y-60.198
X146.304Y-62.992
X146.304Y-65.532
X146.304Y-68.326
X146.304Y-70.866
X147.828Y-55.626
X150.368Y-58.674
X150.368Y-72.39
X150.622Y-76.2
X151.638Y-56.134
X151.638Y-58.674
X152.654Y-71.628
X153.416Y-59.944
X154.178Y-70.104
X154.94Y-61.468
X155.702Y-57.912
X155.702Y-68.58
X156.21Y-72.136
T2
X153.121Y-50.602
X153.121Y-76.764
X153.67Y-49.276
X153.67Y-51.928
X153.67Y-75.438
X153.67Y-78.09
X154.996Y-48.727
X154.996Y-52.477
X154.996Y-74.889
X154.996Y-78.639
X156.322Y-49.276
X156.322Y-51.928
X156.322Y-75.438
X156.322Y-78.09
X156.871Y-50.602
X156.871Y-76.764
T3
X153.48Y-65.024
T4
X110.744Y-55.88
X110.744Y-58.42
X110.744Y-60.96
X110.744Y-63.5
X110.744Y-66.04
X110.744Y-68.58
X110.744Y-71.12
X110.744Y-73.66
T5
X154.996Y-50.602
X154.996Y-76.764
M30
